  0
SECTION
  2
HEADER
  9
$ACADVER
  1
AC1014
  9
$HANDSEED
  5
FFFF
  9
$MEASUREMENT
 70
     1
  0
ENDSEC
  0
SECTION
  2
TABLES
  0
TABLE
  2
VPORT
  5
8
330
0
100
AcDbSymbolTable
 70
     4
  0
VPORT
  5
2E
330
8
100
AcDbSymbolTableRecord
100
AcDbViewportTableRecord
  2
*ACTIVE
 70
     0
 10
0.0
 20
0.0
 11
1.0
 21
1.0
 12
210.0
 22
148.5
 13
0.0
 23
0.0
 14
10.0
 24
10.0
 15
10.0
 25
10.0
 16
0.0
 26
0.0
 36
1.0
 17
0.0
 27
0.0
 37
0.0
 40
341.0
 41
1.24
 42
50.0
 43
0.0
 44
0.0
 50
0.0
 51
0.0
 71
     0
 72
   100
 73
     1
 74
     3
 75
     0
 76
     0
 77
     0
 78
     0
  0
ENDTAB
  0
TABLE
  2
LTYPE
  5
5
330
0
100
AcDbSymbolTable
 70
     1
  0
LTYPE
  5
14
330
5
100
AcDbSymbolTableRecord
100
AcDbLinetypeTableRecord
  2
BYBLOCK
 70
     0
  3

 72
    65
 73
     0
 40
0.0
  0
LTYPE
  5
15
330
5
100
AcDbSymbolTableRecord
100
AcDbLinetypeTableRecord
  2
BYLAYER
 70
     0
  3

 72
    65
 73
     0
 40
0.0
  0
LTYPE
  5
16
330
5
100
AcDbSymbolTableRecord
100
AcDbLinetypeTableRecord
  2
CONTINUOUS
 70
     0
  3
Solid line
 72
    65
 73
     0
 40
0.0
  0
ENDTAB
  0
TABLE
  2
LAYER
  5
2
100
AcDbSymbolTable
 70
2
  0
LAYER
  5
50
100
AcDbSymbolTableRecord
100
AcDbLayerTableRecord
  2
0
 70
0
  6
CONTINUOUS
  0
LAYER
  5
51
100
AcDbSymbolTableRecord
100
AcDbLayerTableRecord
  2
Layer_1
 70
0
  6
CONTINUOUS
  0
ENDTAB
  0
TABLE
  2
STYLE
  5
3
330
0
100
AcDbSymbolTable
 70
     1
  0
STYLE
  5
11
330
3
100
AcDbSymbolTableRecord
100
AcDbTextStyleTableRecord
  2
STANDARD
 70
     0
 40
0.0
 41
1.0
 50
0.0
 71
     0
 42
2.5
  3
txt
  4

  0
ENDTAB
  0
TABLE
  2
VIEW
  5
6
330
0
100
AcDbSymbolTable
 70
     0
  0
ENDTAB
  0
TABLE
  2
UCS
  5
7
330
0
100
AcDbSymbolTable
 70
     0
  0
ENDTAB
  0
TABLE
  2
APPID
  5
9
330
0
100
AcDbSymbolTable
 70
     2
  0
APPID
  5
12
330
9
100
AcDbSymbolTableRecord
100
AcDbRegAppTableRecord
  2
ACAD
 70
     0
  0
ENDTAB
  0
TABLE
  2
DIMSTYLE
  5
A
330
0
100
AcDbSymbolTable
 70
     1
  0
DIMSTYLE
105
27
330
A
100
AcDbSymbolTableRecord
100
AcDbDimStyleTableRecord
  2
ISO-25
 70
     0
  3

  4

  5

  6

  7

 40
1.0
 41
2.5
 42
0.625
 43
3.75
 44
1.25
 45
0.0
 46
0.0
 47
0.0
 48
0.0
140
2.5
141
2.5
142
0.0
143
0.03937007874016
144
1.0
145
0.0
146
1.0
147
0.625
 71
     0
 72
     0
 73
     0
 74
     0
 75
     0
 76
     0
 77
     1
 78
     8
170
     0
171
     3
172
     1
173
     0
174
     0
175
     0
176
     0
177
     0
178
     0
270
     2
271
     2
272
     2
273
     2
274
     3
340
11
275
     0
280
     0
281
     0
282
     0
283
     0
284
     8
285
     0
286
     0
287
     3
288
     0
  0
ENDTAB
  0
TABLE
  2
BLOCK_RECORD
  5
1
330
0
100
AcDbSymbolTable
 70
     1
  0
BLOCK_RECORD
  5
1F
330
1
100
AcDbSymbolTableRecord
100
AcDbBlockTableRecord
  2
*MODEL_SPACE
  0
BLOCK_RECORD
  5
1B
330
1
100
AcDbSymbolTableRecord
100
AcDbBlockTableRecord
  2
*PAPER_SPACE
  0
ENDTAB
  0
ENDSEC
  0
SECTION
  2
BLOCKS
  0
BLOCK
  5
20
330
1F
100
AcDbEntity
  8
0
100
AcDbBlockBegin
  2
*MODEL_SPACE
 70
     0
 10
0.0
 20
0.0
 30
0.0
  3
*MODEL_SPACE
  1

  0
ENDBLK
  5
21
330
1F
100
AcDbEntity
  8
0
100
AcDbBlockEnd
  0
BLOCK
  5
1C
330
1B
100
AcDbEntity
 67
     1
  8
0
100
AcDbBlockBegin
  2
*PAPER_SPACE
  1

  0
ENDBLK
  5
1D
330
1B
100
AcDbEntity
 67
     1
  8
0
100
AcDbBlockEnd
  0
ENDSEC
  0
SECTION
  2
ENTITIES
  0
LINE
  5
100
100
AcDbEntity
  8
Layer_1
 62
7
100
AcDbLine
 10
8.185602
 20
289.815116
 30
0.0
 11
169.815121
 21
289.815116
 31
0.0
  0
LINE
  5
101
100
AcDbEntity
  8
Layer_1
 62
7
100
AcDbLine
 10
169.815121
 20
289.815116
 30
0.0
 11
169.815121
 21
115.184878
 31
0.0
  0
LINE
  5
102
100
AcDbEntity
  8
Layer_1
 62
7
100
AcDbLine
 10
169.815121
 20
115.184878
 30
0.0
 11
8.184882
 21
115.184878
 31
0.0
  0
LINE
  5
103
100
AcDbEntity
  8
Layer_1
 62
7
100
AcDbLine
 10
8.184882
 20
115.184878
 30
0.0
 11
8.185602
 21
289.815116
 31
0.0
  0
LINE
  5
104
100
AcDbEntity
  8
Layer_1
 62
7
100
AcDbLine
 10
78.358873
 20
222.303412
 30
0.0
 11
105.382359
 21
222.303412
 31
0.0
  0
LINE
  5
105
100
AcDbEntity
  8
Layer_1
 62
7
100
AcDbLine
 10
105.382359
 20
222.303412
 30
0.0
 11
105.382359
 21
182.696588
 31
0.0
  0
LINE
  5
106
100
AcDbEntity
  8
Layer_1
 62
7
100
AcDbLine
 10
105.382359
 20
182.696588
 30
0.0
 11
78.358873
 21
182.696588
 31
0.0
  0
LINE
  5
107
100
AcDbEntity
  8
Layer_1
 62
7
100
AcDbLine
 10
78.358873
 20
182.696588
 30
0.0
 11
78.358873
 21
222.303412
 31
0.0
  0
SPLINE
  5
108
100
AcDbEntity
  8
Layer_1
 62
7
100
AcDbSpline
 70
8
 71
3
 72
8
 73
4
 74
0
 40
0
 40
0
 40
0
 40
0
 40
1
 40
1
 40
1
 40
1
 10
12.382631
 20
118.000005
 30
0.0
 10
12.382631
 20
117.236399
 30
0.0
 10
11.763606
 20
116.617373
 30
0.0
 10
10.999999
 20
116.617373
 30
0.0
  0
SPLINE
  5
109
100
AcDbEntity
  8
Layer_1
 62
7
100
AcDbSpline
 70
8
 71
3
 72
8
 73
4
 74
0
 40
0
 40
0
 40
0
 40
0
 40
1
 40
1
 40
1
 40
1
 10
10.999999
 20
116.617373
 30
0.0
 10
10.633303
 20
116.617373
 30
0.0
 10
10.281625
 20
116.763043
 30
0.0
 10
10.022331
 20
117.022337
 30
0.0
  0
SPLINE
  5
10a
100
AcDbEntity
  8
Layer_1
 62
7
100
AcDbSpline
 70
8
 71
3
 72
8
 73
4
 74
0
 40
0
 40
0
 40
0
 40
0
 40
1
 40
1
 40
1
 40
1
 10
10.022331
 20
117.022337
 30
0.0
 10
9.763037
 20
117.281631
 30
0.0
 10
9.617368
 20
117.633308
 30
0.0
 10
9.617368
 20
118.000005
 30
0.0
  0
SPLINE
  5
10b
100
AcDbEntity
  8
Layer_1
 62
7
100
AcDbSpline
 70
8
 71
3
 72
8
 73
4
 74
0
 40
0
 40
0
 40
0
 40
0
 40
1
 40
1
 40
1
 40
1
 10
9.617368
 20
118.000005
 30
0.0
 10
9.617368
 20
118.366702
 30
0.0
 10
9.763037
 20
118.718380
 30
0.0
 10
10.022331
 20
118.977674
 30
0.0
  0
SPLINE
  5
10c
100
AcDbEntity
  8
Layer_1
 62
7
100
AcDbSpline
 70
8
 71
3
 72
8
 73
4
 74
0
 40
0
 40
0
 40
0
 40
0
 40
1
 40
1
 40
1
 40
1
 10
10.022331
 20
118.977674
 30
0.0
 10
10.281625
 20
119.236968
 30
0.0
 10
10.633303
 20
119.382637
 30
0.0
 10
10.999999
 20
119.382637
 30
0.0
  0
SPLINE
  5
10d
100
AcDbEntity
  8
Layer_1
 62
7
100
AcDbSpline
 70
8
 71
3
 72
8
 73
4
 74
0
 40
0
 40
0
 40
0
 40
0
 40
1
 40
1
 40
1
 40
1
 10
10.999999
 20
119.382637
 30
0.0
 10
11.763606
 20
119.382637
 30
0.0
 10
12.382631
 20
118.763612
 30
0.0
 10
12.382631
 20
118.000005
 30
0.0
  0
LINE
  5
10e
100
AcDbEntity
  8
Layer_1
 62
7
100
AcDbLine
 10
12.382631
 20
118.000005
 30
0.0
 11
12.382631
 21
118.000005
 31
0.0
  0
SPLINE
  5
10f
100
AcDbEntity
  8
Layer_1
 62
7
100
AcDbSpline
 70
8
 71
3
 72
8
 73
4
 74
0
 40
0
 40
0
 40
0
 40
0
 40
1
 40
1
 40
1
 40
1
 10
12.382631
 20
124.500004
 30
0.0
 10
12.382631
 20
123.736397
 30
0.0
 10
11.763606
 20
123.117372
 30
0.0
 10
10.999999
 20
123.117371
 30
0.0
  0
SPLINE
  5
110
100
AcDbEntity
  8
Layer_1
 62
7
100
AcDbSpline
 70
8
 71
3
 72
8
 73
4
 74
0
 40
0
 40
0
 40
0
 40
0
 40
1
 40
1
 40
1
 40
1
 10
10.999999
 20
123.117371
 30
0.0
 10
10.633303
 20
123.117371
 30
0.0
 10
10.281625
 20
123.263041
 30
0.0
 10
10.022331
 20
123.522335
 30
0.0
  0
SPLINE
  5
111
100
AcDbEntity
  8
Layer_1
 62
7
100
AcDbSpline
 70
8
 71
3
 72
8
 73
4
 74
0
 40
0
 40
0
 40
0
 40
0
 40
1
 40
1
 40
1
 40
1
 10
10.022331
 20
123.522335
 30
0.0
 10
9.763037
 20
123.781629
 30
0.0
 10
9.617368
 20
124.133307
 30
0.0
 10
9.617368
 20
124.500004
 30
0.0
  0
SPLINE
  5
112
100
AcDbEntity
  8
Layer_1
 62
7
100
AcDbSpline
 70
8
 71
3
 72
8
 73
4
 74
0
 40
0
 40
0
 40
0
 40
0
 40
1
 40
1
 40
1
 40
1
 10
9.617368
 20
124.500004
 30
0.0
 10
9.617368
 20
124.866700
 30
0.0
 10
9.763037
 20
125.218378
 30
0.0
 10
10.022331
 20
125.477672
 30
0.0
  0
SPLINE
  5
113
100
AcDbEntity
  8
Layer_1
 62
7
100
AcDbSpline
 70
8
 71
3
 72
8
 73
4
 74
0
 40
0
 40
0
 40
0
 40
0
 40
1
 40
1
 40
1
 40
1
 10
10.022331
 20
125.477672
 30
0.0
 10
10.281625
 20
125.736966
 30
0.0
 10
10.633303
 20
125.882636
 30
0.0
 10
10.999999
 20
125.882636
 30
0.0
  0
SPLINE
  5
114
100
AcDbEntity
  8
Layer_1
 62
7
100
AcDbSpline
 70
8
 71
3
 72
8
 73
4
 74
0
 40
0
 40
0
 40
0
 40
0
 40
1
 40
1
 40
1
 40
1
 10
10.999999
 20
125.882636
 30
0.0
 10
11.763606
 20
125.882635
 30
0.0
 10
12.382631
 20
125.263610
 30
0.0
 10
12.382631
 20
124.500004
 30
0.0
  0
LINE
  5
115
100
AcDbEntity
  8
Layer_1
 62
7
100
AcDbLine
 10
12.382631
 20
124.500004
 30
0.0
 11
12.382631
 21
124.500004
 31
0.0
  0
SPLINE
  5
116
100
AcDbEntity
  8
Layer_1
 62
7
100
AcDbSpline
 70
8
 71
3
 72
8
 73
4
 74
0
 40
0
 40
0
 40
0
 40
0
 40
1
 40
1
 40
1
 40
1
 10
12.382631
 20
287.000000
 30
0.0
 10
12.382631
 20
286.236394
 30
0.0
 10
11.763606
 20
285.617368
 30
0.0
 10
10.999999
 20
285.617368
 30
0.0
  0
SPLINE
  5
117
100
AcDbEntity
  8
Layer_1
 62
7
100
AcDbSpline
 70
8
 71
3
 72
8
 73
4
 74
0
 40
0
 40
0
 40
0
 40
0
 40
1
 40
1
 40
1
 40
1
 10
10.999999
 20
285.617368
 30
0.0
 10
10.236393
 20
285.617368
 30
0.0
 10
9.617368
 20
286.236393
 30
0.0
 10
9.617368
 20
287.000000
 30
0.0
  0
SPLINE
  5
118
100
AcDbEntity
  8
Layer_1
 62
7
100
AcDbSpline
 70
8
 71
3
 72
8
 73
4
 74
0
 40
0
 40
0
 40
0
 40
0
 40
1
 40
1
 40
1
 40
1
 10
9.617368
 20
287.000000
 30
0.0
 10
9.617368
 20
287.763606
 30
0.0
 10
10.236393
 20
288.382632
 30
0.0
 10
10.999999
 20
288.382632
 30
0.0
  0
SPLINE
  5
119
100
AcDbEntity
  8
Layer_1
 62
7
100
AcDbSpline
 70
8
 71
3
 72
8
 73
4
 74
0
 40
0
 40
0
 40
0
 40
0
 40
1
 40
1
 40
1
 40
1
 10
10.999999
 20
288.382632
 30
0.0
 10
11.763606
 20
288.382632
 30
0.0
 10
12.382631
 20
287.763606
 30
0.0
 10
12.382631
 20
287.000000
 30
0.0
  0
LINE
  5
11a
100
AcDbEntity
  8
Layer_1
 62
7
100
AcDbLine
 10
12.382631
 20
287.000000
 30
0.0
 11
12.382631
 21
287.000000
 31
0.0
  0
SPLINE
  5
11b
100
AcDbEntity
  8
Layer_1
 62
7
100
AcDbSpline
 70
8
 71
3
 72
8
 73
4
 74
0
 40
0
 40
0
 40
0
 40
0
 40
1
 40
1
 40
1
 40
1
 10
12.382631
 20
280.500001
 30
0.0
 10
12.382631
 20
279.736394
 30
0.0
 10
11.763606
 20
279.117369
 30
0.0
 10
10.999999
 20
279.117368
 30
0.0
  0
SPLINE
  5
11c
100
AcDbEntity
  8
Layer_1
 62
7
100
AcDbSpline
 70
8
 71
3
 72
8
 73
4
 74
0
 40
0
 40
0
 40
0
 40
0
 40
1
 40
1
 40
1
 40
1
 10
10.999999
 20
279.117368
 30
0.0
 10
10.633303
 20
279.117368
 30
0.0
 10
10.281625
 20
279.263038
 30
0.0
 10
10.022331
 20
279.522332
 30
0.0
  0
SPLINE
  5
11d
100
AcDbEntity
  8
Layer_1
 62
7
100
AcDbSpline
 70
8
 71
3
 72
8
 73
4
 74
0
 40
0
 40
0
 40
0
 40
0
 40
1
 40
1
 40
1
 40
1
 10
10.022331
 20
279.522332
 30
0.0
 10
9.763037
 20
279.781626
 30
0.0
 10
9.617368
 20
280.133304
 30
0.0
 10
9.617368
 20
280.500001
 30
0.0
  0
SPLINE
  5
11e
100
AcDbEntity
  8
Layer_1
 62
7
100
AcDbSpline
 70
8
 71
3
 72
8
 73
4
 74
0
 40
0
 40
0
 40
0
 40
0
 40
1
 40
1
 40
1
 40
1
 10
9.617368
 20
280.500001
 30
0.0
 10
9.617368
 20
281.263607
 30
0.0
 10
10.236393
 20
281.882632
 30
0.0
 10
10.999999
 20
281.882632
 30
0.0
  0
SPLINE
  5
11f
100
AcDbEntity
  8
Layer_1
 62
7
100
AcDbSpline
 70
8
 71
3
 72
8
 73
4
 74
0
 40
0
 40
0
 40
0
 40
0
 40
1
 40
1
 40
1
 40
1
 10
10.999999
 20
281.882632
 30
0.0
 10
11.763606
 20
281.882632
 30
0.0
 10
12.382631
 20
281.263607
 30
0.0
 10
12.382631
 20
280.500001
 30
0.0
  0
LINE
  5
120
100
AcDbEntity
  8
Layer_1
 62
7
100
AcDbLine
 10
12.382631
 20
280.500001
 30
0.0
 11
12.382631
 21
280.500001
 31
0.0
  0
SPLINE
  5
121
100
AcDbEntity
  8
Layer_1
 62
7
100
AcDbSpline
 70
8
 71
3
 72
8
 73
4
 74
0
 40
0
 40
0
 40
0
 40
0
 40
1
 40
1
 40
1
 40
1
 10
61.382631
 20
118.000005
 30
0.0
 10
61.382631
 20
117.633308
 30
0.0
 10
61.236961
 20
117.281630
 30
0.0
 10
60.977667
 20
117.022337
 30
0.0
  0
SPLINE
  5
122
100
AcDbEntity
  8
Layer_1
 62
7
100
AcDbSpline
 70
8
 71
3
 72
8
 73
4
 74
0
 40
0
 40
0
 40
0
 40
0
 40
1
 40
1
 40
1
 40
1
 10
60.977667
 20
117.022337
 30
0.0
 10
60.718373
 20
116.763043
 30
0.0
 10
60.366695
 20
116.617373
 30
0.0
 10
59.999999
 20
116.617373
 30
0.0
  0
SPLINE
  5
123
100
AcDbEntity
  8
Layer_1
 62
7
100
AcDbSpline
 70
8
 71
3
 72
8
 73
4
 74
0
 40
0
 40
0
 40
0
 40
0
 40
1
 40
1
 40
1
 40
1
 10
59.999999
 20
116.617373
 30
0.0
 10
59.633302
 20
116.617373
 30
0.0
 10
59.281624
 20
116.763043
 30
0.0
 10
59.022330
 20
117.022337
 30
0.0
  0
SPLINE
  5
124
100
AcDbEntity
  8
Layer_1
 62
7
100
AcDbSpline
 70
8
 71
3
 72
8
 73
4
 74
0
 40
0
 40
0
 40
0
 40
0
 40
1
 40
1
 40
1
 40
1
 10
59.022330
 20
117.022337
 30
0.0
 10
58.763036
 20
117.281630
 30
0.0
 10
58.617366
 20
117.633308
 30
0.0
 10
58.617366
 20
118.000005
 30
0.0
  0
SPLINE
  5
125
100
AcDbEntity
  8
Layer_1
 62
7
100
AcDbSpline
 70
8
 71
3
 72
8
 73
4
 74
0
 40
0
 40
0
 40
0
 40
0
 40
1
 40
1
 40
1
 40
1
 10
58.617366
 20
118.000005
 30
0.0
 10
58.617366
 20
118.366702
 30
0.0
 10
58.763036
 20
118.718380
 30
0.0
 10
59.022330
 20
118.977674
 30
0.0
  0
SPLINE
  5
126
100
AcDbEntity
  8
Layer_1
 62
7
100
AcDbSpline
 70
8
 71
3
 72
8
 73
4
 74
0
 40
0
 40
0
 40
0
 40
0
 40
1
 40
1
 40
1
 40
1
 10
59.022330
 20
118.977674
 30
0.0
 10
59.281624
 20
119.236968
 30
0.0
 10
59.633302
 20
119.382637
 30
0.0
 10
59.999999
 20
119.382637
 30
0.0
  0
SPLINE
  5
127
100
AcDbEntity
  8
Layer_1
 62
7
100
AcDbSpline
 70
8
 71
3
 72
8
 73
4
 74
0
 40
0
 40
0
 40
0
 40
0
 40
1
 40
1
 40
1
 40
1
 10
59.999999
 20
119.382637
 30
0.0
 10
60.366695
 20
119.382637
 30
0.0
 10
60.718373
 20
119.236968
 30
0.0
 10
60.977667
 20
118.977674
 30
0.0
  0
SPLINE
  5
128
100
AcDbEntity
  8
Layer_1
 62
7
100
AcDbSpline
 70
8
 71
3
 72
8
 73
4
 74
0
 40
0
 40
0
 40
0
 40
0
 40
1
 40
1
 40
1
 40
1
 10
60.977667
 20
118.977674
 30
0.0
 10
61.236961
 20
118.718380
 30
0.0
 10
61.382631
 20
118.366702
 30
0.0
 10
61.382631
 20
118.000005
 30
0.0
  0
LINE
  5
129
100
AcDbEntity
  8
Layer_1
 62
7
100
AcDbLine
 10
61.382631
 20
118.000005
 30
0.0
 11
61.382631
 21
118.000005
 31
0.0
  0
SPLINE
  5
12a
100
AcDbEntity
  8
Layer_1
 62
7
100
AcDbSpline
 70
8
 71
3
 72
8
 73
4
 74
0
 40
0
 40
0
 40
0
 40
0
 40
1
 40
1
 40
1
 40
1
 10
118.382629
 20
118.000005
 30
0.0
 10
118.382630
 20
117.236400
 30
0.0
 10
117.763606
 20
116.617375
 30
0.0
 10
117.000000
 20
116.617373
 30
0.0
  0
SPLINE
  5
12b
100
AcDbEntity
  8
Layer_1
 62
7
100
AcDbSpline
 70
8
 71
3
 72
8
 73
4
 74
0
 40
0
 40
0
 40
0
 40
0
 40
1
 40
1
 40
1
 40
1
 10
117.000000
 20
116.617373
 30
0.0
 10
116.633303
 20
116.617373
 30
0.0
 10
116.281626
 20
116.763043
 30
0.0
 10
116.022332
 20
117.022337
 30
0.0
  0
SPLINE
  5
12c
100
AcDbEntity
  8
Layer_1
 62
7
100
AcDbSpline
 70
8
 71
3
 72
8
 73
4
 74
0
 40
0
 40
0
 40
0
 40
0
 40
1
 40
1
 40
1
 40
1
 10
116.022332
 20
117.022337
 30
0.0
 10
115.763038
 20
117.281630
 30
0.0
 10
115.617368
 20
117.633308
 30
0.0
 10
115.617368
 20
118.000005
 30
0.0
  0
SPLINE
  5
12d
100
AcDbEntity
  8
Layer_1
 62
7
100
AcDbSpline
 70
8
 71
3
 72
8
 73
4
 74
0
 40
0
 40
0
 40
0
 40
0
 40
1
 40
1
 40
1
 40
1
 10
115.617368
 20
118.000005
 30
0.0
 10
115.617368
 20
118.366702
 30
0.0
 10
115.763038
 20
118.718380
 30
0.0
 10
116.022332
 20
118.977674
 30
0.0
  0
SPLINE
  5
12e
100
AcDbEntity
  8
Layer_1
 62
7
100
AcDbSpline
 70
8
 71
3
 72
8
 73
4
 74
0
 40
0
 40
0
 40
0
 40
0
 40
1
 40
1
 40
1
 40
1
 10
116.022332
 20
118.977674
 30
0.0
 10
116.281626
 20
119.236968
 30
0.0
 10
116.633303
 20
119.382637
 30
0.0
 10
117.000000
 20
119.382637
 30
0.0
  0
SPLINE
  5
12f
100
AcDbEntity
  8
Layer_1
 62
7
100
AcDbSpline
 70
8
 71
3
 72
8
 73
4
 74
0
 40
0
 40
0
 40
0
 40
0
 40
1
 40
1
 40
1
 40
1
 10
117.000000
 20
119.382637
 30
0.0
 10
117.763606
 20
119.382636
 30
0.0
 10
118.382630
 20
118.763611
 30
0.0
 10
118.382629
 20
118.000005
 30
0.0
  0
LINE
  5
130
100
AcDbEntity
  8
Layer_1
 62
7
100
AcDbLine
 10
118.382629
 20
118.000005
 30
0.0
 11
118.382629
 21
118.000005
 31
0.0
  0
SPLINE
  5
131
100
AcDbEntity
  8
Layer_1
 62
7
100
AcDbSpline
 70
8
 71
3
 72
8
 73
4
 74
0
 40
0
 40
0
 40
0
 40
0
 40
1
 40
1
 40
1
 40
1
 10
168.382637
 20
118.000005
 30
0.0
 10
168.382637
 20
117.633308
 30
0.0
 10
168.236967
 20
117.281630
 30
0.0
 10
167.977673
 20
117.022337
 30
0.0
  0
SPLINE
  5
132
100
AcDbEntity
  8
Layer_1
 62
7
100
AcDbSpline
 70
8
 71
3
 72
8
 73
4
 74
0
 40
0
 40
0
 40
0
 40
0
 40
1
 40
1
 40
1
 40
1
 10
167.977673
 20
117.022337
 30
0.0
 10
167.718379
 20
116.763043
 30
0.0
 10
167.366701
 20
116.617373
 30
0.0
 10
167.000005
 20
116.617373
 30
0.0
  0
SPLINE
  5
133
100
AcDbEntity
  8
Layer_1
 62
7
100
AcDbSpline
 70
8
 71
3
 72
8
 73
4
 74
0
 40
0
 40
0
 40
0
 40
0
 40
1
 40
1
 40
1
 40
1
 10
167.000005
 20
116.617373
 30
0.0
 10
166.633308
 20
116.617373
 30
0.0
 10
166.281630
 20
116.763043
 30
0.0
 10
166.022336
 20
117.022337
 30
0.0
  0
SPLINE
  5
134
100
AcDbEntity
  8
Layer_1
 62
7
100
AcDbSpline
 70
8
 71
3
 72
8
 73
4
 74
0
 40
0
 40
0
 40
0
 40
0
 40
1
 40
1
 40
1
 40
1
 10
166.022336
 20
117.022337
 30
0.0
 10
165.763042
 20
117.281630
 30
0.0
 10
165.617373
 20
117.633308
 30
0.0
 10
165.617373
 20
118.000005
 30
0.0
  0
SPLINE
  5
135
100
AcDbEntity
  8
Layer_1
 62
7
100
AcDbSpline
 70
8
 71
3
 72
8
 73
4
 74
0
 40
0
 40
0
 40
0
 40
0
 40
1
 40
1
 40
1
 40
1
 10
165.617373
 20
118.000005
 30
0.0
 10
165.617373
 20
118.366702
 30
0.0
 10
165.763042
 20
118.718380
 30
0.0
 10
166.022336
 20
118.977674
 30
0.0
  0
SPLINE
  5
136
100
AcDbEntity
  8
Layer_1
 62
7
100
AcDbSpline
 70
8
 71
3
 72
8
 73
4
 74
0
 40
0
 40
0
 40
0
 40
0
 40
1
 40
1
 40
1
 40
1
 10
166.022336
 20
118.977674
 30
0.0
 10
166.281630
 20
119.236968
 30
0.0
 10
166.633308
 20
119.382637
 30
0.0
 10
167.000005
 20
119.382637
 30
0.0
  0
SPLINE
  5
137
100
AcDbEntity
  8
Layer_1
 62
7
100
AcDbSpline
 70
8
 71
3
 72
8
 73
4
 74
0
 40
0
 40
0
 40
0
 40
0
 40
1
 40
1
 40
1
 40
1
 10
167.000005
 20
119.382637
 30
0.0
 10
167.366701
 20
119.382637
 30
0.0
 10
167.718379
 20
119.236968
 30
0.0
 10
167.977673
 20
118.977674
 30
0.0
  0
SPLINE
  5
138
100
AcDbEntity
  8
Layer_1
 62
7
100
AcDbSpline
 70
8
 71
3
 72
8
 73
4
 74
0
 40
0
 40
0
 40
0
 40
0
 40
1
 40
1
 40
1
 40
1
 10
167.977673
 20
118.977674
 30
0.0
 10
168.236967
 20
118.718380
 30
0.0
 10
168.382637
 20
118.366702
 30
0.0
 10
168.382637
 20
118.000005
 30
0.0
  0
LINE
  5
139
100
AcDbEntity
  8
Layer_1
 62
7
100
AcDbLine
 10
168.382637
 20
118.000005
 30
0.0
 11
168.382637
 21
118.000005
 31
0.0
  0
SPLINE
  5
13a
100
AcDbEntity
  8
Layer_1
 62
7
100
AcDbSpline
 70
8
 71
3
 72
8
 73
4
 74
0
 40
0
 40
0
 40
0
 40
0
 40
1
 40
1
 40
1
 40
1
 10
168.382637
 20
124.500004
 30
0.0
 10
168.382637
 20
124.133307
 30
0.0
 10
168.236967
 20
123.781629
 30
0.0
 10
167.977673
 20
123.522335
 30
0.0
  0
SPLINE
  5
13b
100
AcDbEntity
  8
Layer_1
 62
7
100
AcDbSpline
 70
8
 71
3
 72
8
 73
4
 74
0
 40
0
 40
0
 40
0
 40
0
 40
1
 40
1
 40
1
 40
1
 10
167.977673
 20
123.522335
 30
0.0
 10
167.718379
 20
123.263041
 30
0.0
 10
167.366701
 20
123.117371
 30
0.0
 10
167.000005
 20
123.117371
 30
0.0
  0
SPLINE
  5
13c
100
AcDbEntity
  8
Layer_1
 62
7
100
AcDbSpline
 70
8
 71
3
 72
8
 73
4
 74
0
 40
0
 40
0
 40
0
 40
0
 40
1
 40
1
 40
1
 40
1
 10
167.000005
 20
123.117371
 30
0.0
 10
166.633308
 20
123.117371
 30
0.0
 10
166.281630
 20
123.263041
 30
0.0
 10
166.022336
 20
123.522335
 30
0.0
  0
SPLINE
  5
13d
100
AcDbEntity
  8
Layer_1
 62
7
100
AcDbSpline
 70
8
 71
3
 72
8
 73
4
 74
0
 40
0
 40
0
 40
0
 40
0
 40
1
 40
1
 40
1
 40
1
 10
166.022336
 20
123.522335
 30
0.0
 10
165.763042
 20
123.781629
 30
0.0
 10
165.617373
 20
124.133307
 30
0.0
 10
165.617373
 20
124.500004
 30
0.0
  0
SPLINE
  5
13e
100
AcDbEntity
  8
Layer_1
 62
7
100
AcDbSpline
 70
8
 71
3
 72
8
 73
4
 74
0
 40
0
 40
0
 40
0
 40
0
 40
1
 40
1
 40
1
 40
1
 10
165.617373
 20
124.500004
 30
0.0
 10
165.617373
 20
124.866700
 30
0.0
 10
165.763042
 20
125.218378
 30
0.0
 10
166.022336
 20
125.477672
 30
0.0
  0
SPLINE
  5
13f
100
AcDbEntity
  8
Layer_1
 62
7
100
AcDbSpline
 70
8
 71
3
 72
8
 73
4
 74
0
 40
0
 40
0
 40
0
 40
0
 40
1
 40
1
 40
1
 40
1
 10
166.022336
 20
125.477672
 30
0.0
 10
166.281630
 20
125.736966
 30
0.0
 10
166.633308
 20
125.882636
 30
0.0
 10
167.000005
 20
125.882636
 30
0.0
  0
SPLINE
  5
140
100
AcDbEntity
  8
Layer_1
 62
7
100
AcDbSpline
 70
8
 71
3
 72
8
 73
4
 74
0
 40
0
 40
0
 40
0
 40
0
 40
1
 40
1
 40
1
 40
1
 10
167.000005
 20
125.882636
 30
0.0
 10
167.366701
 20
125.882636
 30
0.0
 10
167.718379
 20
125.736966
 30
0.0
 10
167.977673
 20
125.477672
 30
0.0
  0
SPLINE
  5
141
100
AcDbEntity
  8
Layer_1
 62
7
100
AcDbSpline
 70
8
 71
3
 72
8
 73
4
 74
0
 40
0
 40
0
 40
0
 40
0
 40
1
 40
1
 40
1
 40
1
 10
167.977673
 20
125.477672
 30
0.0
 10
168.236967
 20
125.218378
 30
0.0
 10
168.382637
 20
124.866700
 30
0.0
 10
168.382637
 20
124.500004
 30
0.0
  0
LINE
  5
142
100
AcDbEntity
  8
Layer_1
 62
7
100
AcDbLine
 10
168.382637
 20
124.500004
 30
0.0
 11
168.382637
 21
124.500004
 31
0.0
  0
SPLINE
  5
143
100
AcDbEntity
  8
Layer_1
 62
7
100
AcDbSpline
 70
8
 71
3
 72
8
 73
4
 74
0
 40
0
 40
0
 40
0
 40
0
 40
1
 40
1
 40
1
 40
1
 10
61.382631
 20
287.000000
 30
0.0
 10
61.382631
 20
286.633303
 30
0.0
 10
61.236961
 20
286.281625
 30
0.0
 10
60.977667
 20
286.022332
 30
0.0
  0
SPLINE
  5
144
100
AcDbEntity
  8
Layer_1
 62
7
100
AcDbSpline
 70
8
 71
3
 72
8
 73
4
 74
0
 40
0
 40
0
 40
0
 40
0
 40
1
 40
1
 40
1
 40
1
 10
60.977667
 20
286.022332
 30
0.0
 10
60.718373
 20
285.763038
 30
0.0
 10
60.366695
 20
285.617368
 30
0.0
 10
59.999999
 20
285.617368
 30
0.0
  0
SPLINE
  5
145
100
AcDbEntity
  8
Layer_1
 62
7
100
AcDbSpline
 70
8
 71
3
 72
8
 73
4
 74
0
 40
0
 40
0
 40
0
 40
0
 40
1
 40
1
 40
1
 40
1
 10
59.999999
 20
285.617368
 30
0.0
 10
59.633302
 20
285.617368
 30
0.0
 10
59.281624
 20
285.763038
 30
0.0
 10
59.022330
 20
286.022332
 30
0.0
  0
SPLINE
  5
146
100
AcDbEntity
  8
Layer_1
 62
7
100
AcDbSpline
 70
8
 71
3
 72
8
 73
4
 74
0
 40
0
 40
0
 40
0
 40
0
 40
1
 40
1
 40
1
 40
1
 10
59.022330
 20
286.022332
 30
0.0
 10
58.763036
 20
286.281625
 30
0.0
 10
58.617366
 20
286.633303
 30
0.0
 10
58.617366
 20
287.000000
 30
0.0
  0
SPLINE
  5
147
100
AcDbEntity
  8
Layer_1
 62
7
100
AcDbSpline
 70
8
 71
3
 72
8
 73
4
 74
0
 40
0
 40
0
 40
0
 40
0
 40
1
 40
1
 40
1
 40
1
 10
58.617366
 20
287.000000
 30
0.0
 10
58.617366
 20
287.366697
 30
0.0
 10
58.763036
 20
287.718375
 30
0.0
 10
59.022330
 20
287.977668
 30
0.0
  0
SPLINE
  5
148
100
AcDbEntity
  8
Layer_1
 62
7
100
AcDbSpline
 70
8
 71
3
 72
8
 73
4
 74
0
 40
0
 40
0
 40
0
 40
0
 40
1
 40
1
 40
1
 40
1
 10
59.022330
 20
287.977668
 30
0.0
 10
59.281624
 20
288.236962
 30
0.0
 10
59.633302
 20
288.382632
 30
0.0
 10
59.999999
 20
288.382632
 30
0.0
  0
SPLINE
  5
149
100
AcDbEntity
  8
Layer_1
 62
7
100
AcDbSpline
 70
8
 71
3
 72
8
 73
4
 74
0
 40
0
 40
0
 40
0
 40
0
 40
1
 40
1
 40
1
 40
1
 10
59.999999
 20
288.382632
 30
0.0
 10
60.366695
 20
288.382632
 30
0.0
 10
60.718373
 20
288.236962
 30
0.0
 10
60.977667
 20
287.977668
 30
0.0
  0
SPLINE
  5
14a
100
AcDbEntity
  8
Layer_1
 62
7
100
AcDbSpline
 70
8
 71
3
 72
8
 73
4
 74
0
 40
0
 40
0
 40
0
 40
0
 40
1
 40
1
 40
1
 40
1
 10
60.977667
 20
287.977668
 30
0.0
 10
61.236961
 20
287.718375
 30
0.0
 10
61.382631
 20
287.366697
 30
0.0
 10
61.382631
 20
287.000000
 30
0.0
  0
LINE
  5
14b
100
AcDbEntity
  8
Layer_1
 62
7
100
AcDbLine
 10
61.382631
 20
287.000000
 30
0.0
 11
61.382631
 21
287.000000
 31
0.0
  0
SPLINE
  5
14c
100
AcDbEntity
  8
Layer_1
 62
7
100
AcDbSpline
 70
8
 71
3
 72
8
 73
4
 74
0
 40
0
 40
0
 40
0
 40
0
 40
1
 40
1
 40
1
 40
1
 10
118.382629
 20
287.000000
 30
0.0
 10
118.382629
 20
286.236394
 30
0.0
 10
117.763606
 20
285.617370
 30
0.0
 10
117.000000
 20
285.617368
 30
0.0
  0
SPLINE
  5
14d
100
AcDbEntity
  8
Layer_1
 62
7
100
AcDbSpline
 70
8
 71
3
 72
8
 73
4
 74
0
 40
0
 40
0
 40
0
 40
0
 40
1
 40
1
 40
1
 40
1
 10
117.000000
 20
285.617368
 30
0.0
 10
116.633303
 20
285.617368
 30
0.0
 10
116.281626
 20
285.763038
 30
0.0
 10
116.022332
 20
286.022332
 30
0.0
  0
SPLINE
  5
14e
100
AcDbEntity
  8
Layer_1
 62
7
100
AcDbSpline
 70
8
 71
3
 72
8
 73
4
 74
0
 40
0
 40
0
 40
0
 40
0
 40
1
 40
1
 40
1
 40
1
 10
116.022332
 20
286.022332
 30
0.0
 10
115.763038
 20
286.281625
 30
0.0
 10
115.617368
 20
286.633303
 30
0.0
 10
115.617368
 20
287.000000
 30
0.0
  0
SPLINE
  5
14f
100
AcDbEntity
  8
Layer_1
 62
7
100
AcDbSpline
 70
8
 71
3
 72
8
 73
4
 74
0
 40
0
 40
0
 40
0
 40
0
 40
1
 40
1
 40
1
 40
1
 10
115.617368
 20
287.000000
 30
0.0
 10
115.617368
 20
287.366697
 30
0.0
 10
115.763038
 20
287.718375
 30
0.0
 10
116.022332
 20
287.977668
 30
0.0
  0
SPLINE
  5
150
100
AcDbEntity
  8
Layer_1
 62
7
100
AcDbSpline
 70
8
 71
3
 72
8
 73
4
 74
0
 40
0
 40
0
 40
0
 40
0
 40
1
 40
1
 40
1
 40
1
 10
116.022332
 20
287.977668
 30
0.0
 10
116.281626
 20
288.236962
 30
0.0
 10
116.633303
 20
288.382632
 30
0.0
 10
117.000000
 20
288.382632
 30
0.0
  0
SPLINE
  5
151
100
AcDbEntity
  8
Layer_1
 62
7
100
AcDbSpline
 70
8
 71
3
 72
8
 73
4
 74
0
 40
0
 40
0
 40
0
 40
0
 40
1
 40
1
 40
1
 40
1
 10
117.000000
 20
288.382632
 30
0.0
 10
117.763606
 20
288.382630
 30
0.0
 10
118.382629
 20
287.763605
 30
0.0
 10
118.382629
 20
287.000000
 30
0.0
  0
LINE
  5
152
100
AcDbEntity
  8
Layer_1
 62
7
100
AcDbLine
 10
118.382629
 20
287.000000
 30
0.0
 11
118.382629
 21
287.000000
 31
0.0
  0
SPLINE
  5
153
100
AcDbEntity
  8
Layer_1
 62
7
100
AcDbSpline
 70
8
 71
3
 72
8
 73
4
 74
0
 40
0
 40
0
 40
0
 40
0
 40
1
 40
1
 40
1
 40
1
 10
168.382637
 20
287.000000
 30
0.0
 10
168.382637
 20
286.633303
 30
0.0
 10
168.236967
 20
286.281625
 30
0.0
 10
167.977673
 20
286.022332
 30
0.0
  0
SPLINE
  5
154
100
AcDbEntity
  8
Layer_1
 62
7
100
AcDbSpline
 70
8
 71
3
 72
8
 73
4
 74
0
 40
0
 40
0
 40
0
 40
0
 40
1
 40
1
 40
1
 40
1
 10
167.977673
 20
286.022332
 30
0.0
 10
167.718379
 20
285.763038
 30
0.0
 10
167.366701
 20
285.617368
 30
0.0
 10
167.000005
 20
285.617368
 30
0.0
  0
SPLINE
  5
155
100
AcDbEntity
  8
Layer_1
 62
7
100
AcDbSpline
 70
8
 71
3
 72
8
 73
4
 74
0
 40
0
 40
0
 40
0
 40
0
 40
1
 40
1
 40
1
 40
1
 10
167.000005
 20
285.617368
 30
0.0
 10
166.633308
 20
285.617368
 30
0.0
 10
166.281630
 20
285.763038
 30
0.0
 10
166.022336
 20
286.022332
 30
0.0
  0
SPLINE
  5
156
100
AcDbEntity
  8
Layer_1
 62
7
100
AcDbSpline
 70
8
 71
3
 72
8
 73
4
 74
0
 40
0
 40
0
 40
0
 40
0
 40
1
 40
1
 40
1
 40
1
 10
166.022336
 20
286.022332
 30
0.0
 10
165.763042
 20
286.281625
 30
0.0
 10
165.617373
 20
286.633303
 30
0.0
 10
165.617373
 20
287.000000
 30
0.0
  0
SPLINE
  5
157
100
AcDbEntity
  8
Layer_1
 62
7
100
AcDbSpline
 70
8
 71
3
 72
8
 73
4
 74
0
 40
0
 40
0
 40
0
 40
0
 40
1
 40
1
 40
1
 40
1
 10
165.617373
 20
287.000000
 30
0.0
 10
165.617373
 20
287.366697
 30
0.0
 10
165.763042
 20
287.718375
 30
0.0
 10
166.022336
 20
287.977668
 30
0.0
  0
SPLINE
  5
158
100
AcDbEntity
  8
Layer_1
 62
7
100
AcDbSpline
 70
8
 71
3
 72
8
 73
4
 74
0
 40
0
 40
0
 40
0
 40
0
 40
1
 40
1
 40
1
 40
1
 10
166.022336
 20
287.977668
 30
0.0
 10
166.281630
 20
288.236962
 30
0.0
 10
166.633308
 20
288.382632
 30
0.0
 10
167.000005
 20
288.382632
 30
0.0
  0
SPLINE
  5
159
100
AcDbEntity
  8
Layer_1
 62
7
100
AcDbSpline
 70
8
 71
3
 72
8
 73
4
 74
0
 40
0
 40
0
 40
0
 40
0
 40
1
 40
1
 40
1
 40
1
 10
167.000005
 20
288.382632
 30
0.0
 10
167.366701
 20
288.382632
 30
0.0
 10
167.718379
 20
288.236962
 30
0.0
 10
167.977673
 20
287.977668
 30
0.0
  0
SPLINE
  5
15a
100
AcDbEntity
  8
Layer_1
 62
7
100
AcDbSpline
 70
8
 71
3
 72
8
 73
4
 74
0
 40
0
 40
0
 40
0
 40
0
 40
1
 40
1
 40
1
 40
1
 10
167.977673
 20
287.977668
 30
0.0
 10
168.236967
 20
287.718375
 30
0.0
 10
168.382637
 20
287.366697
 30
0.0
 10
168.382637
 20
287.000000
 30
0.0
  0
LINE
  5
15b
100
AcDbEntity
  8
Layer_1
 62
7
100
AcDbLine
 10
168.382637
 20
287.000000
 30
0.0
 11
168.382637
 21
287.000000
 31
0.0
  0
SPLINE
  5
15c
100
AcDbEntity
  8
Layer_1
 62
7
100
AcDbSpline
 70
8
 71
3
 72
8
 73
4
 74
0
 40
0
 40
0
 40
0
 40
0
 40
1
 40
1
 40
1
 40
1
 10
168.382637
 20
280.500001
 30
0.0
 10
168.382637
 20
280.133304
 30
0.0
 10
168.236967
 20
279.781626
 30
0.0
 10
167.977673
 20
279.522332
 30
0.0
  0
SPLINE
  5
15d
100
AcDbEntity
  8
Layer_1
 62
7
100
AcDbSpline
 70
8
 71
3
 72
8
 73
4
 74
0
 40
0
 40
0
 40
0
 40
0
 40
1
 40
1
 40
1
 40
1
 10
167.977673
 20
279.522332
 30
0.0
 10
167.718379
 20
279.263038
 30
0.0
 10
167.366701
 20
279.117368
 30
0.0
 10
167.000005
 20
279.117368
 30
0.0
  0
SPLINE
  5
15e
100
AcDbEntity
  8
Layer_1
 62
7
100
AcDbSpline
 70
8
 71
3
 72
8
 73
4
 74
0
 40
0
 40
0
 40
0
 40
0
 40
1
 40
1
 40
1
 40
1
 10
167.000005
 20
279.117368
 30
0.0
 10
166.633308
 20
279.117368
 30
0.0
 10
166.281630
 20
279.263038
 30
0.0
 10
166.022336
 20
279.522332
 30
0.0
  0
SPLINE
  5
15f
100
AcDbEntity
  8
Layer_1
 62
7
100
AcDbSpline
 70
8
 71
3
 72
8
 73
4
 74
0
 40
0
 40
0
 40
0
 40
0
 40
1
 40
1
 40
1
 40
1
 10
166.022336
 20
279.522332
 30
0.0
 10
165.763042
 20
279.781626
 30
0.0
 10
165.617373
 20
280.133304
 30
0.0
 10
165.617373
 20
280.500001
 30
0.0
  0
SPLINE
  5
160
100
AcDbEntity
  8
Layer_1
 62
7
100
AcDbSpline
 70
8
 71
3
 72
8
 73
4
 74
0
 40
0
 40
0
 40
0
 40
0
 40
1
 40
1
 40
1
 40
1
 10
165.617373
 20
280.500001
 30
0.0
 10
165.617373
 20
280.866697
 30
0.0
 10
165.763042
 20
281.218375
 30
0.0
 10
166.022336
 20
281.477669
 30
0.0
  0
SPLINE
  5
161
100
AcDbEntity
  8
Layer_1
 62
7
100
AcDbSpline
 70
8
 71
3
 72
8
 73
4
 74
0
 40
0
 40
0
 40
0
 40
0
 40
1
 40
1
 40
1
 40
1
 10
166.022336
 20
281.477669
 30
0.0
 10
166.281630
 20
281.736963
 30
0.0
 10
166.633308
 20
281.882632
 30
0.0
 10
167.000005
 20
281.882632
 30
0.0
  0
SPLINE
  5
162
100
AcDbEntity
  8
Layer_1
 62
7
100
AcDbSpline
 70
8
 71
3
 72
8
 73
4
 74
0
 40
0
 40
0
 40
0
 40
0
 40
1
 40
1
 40
1
 40
1
 10
167.000005
 20
281.882632
 30
0.0
 10
167.366701
 20
281.882632
 30
0.0
 10
167.718379
 20
281.736963
 30
0.0
 10
167.977673
 20
281.477669
 30
0.0
  0
SPLINE
  5
163
100
AcDbEntity
  8
Layer_1
 62
7
100
AcDbSpline
 70
8
 71
3
 72
8
 73
4
 74
0
 40
0
 40
0
 40
0
 40
0
 40
1
 40
1
 40
1
 40
1
 10
167.977673
 20
281.477669
 30
0.0
 10
168.236967
 20
281.218375
 30
0.0
 10
168.382637
 20
280.866697
 30
0.0
 10
168.382637
 20
280.500001
 30
0.0
  0
LINE
  5
164
100
AcDbEntity
  8
Layer_1
 62
7
100
AcDbLine
 10
168.382637
 20
280.500001
 30
0.0
 11
168.382637
 21
280.500001
 31
0.0
  0
SPLINE
  5
165
100
AcDbEntity
  8
Layer_1
 62
7
100
AcDbSpline
 70
8
 71
3
 72
8
 73
4
 74
0
 40
0
 40
0
 40
0
 40
0
 40
1
 40
1
 40
1
 40
1
 10
141.382631
 20
191.499997
 30
0.0
 10
141.382632
 20
191.133300
 30
0.0
 10
141.236962
 20
190.781622
 30
0.0
 10
140.977668
 20
190.522328
 30
0.0
  0
SPLINE
  5
166
100
AcDbEntity
  8
Layer_1
 62
7
100
AcDbSpline
 70
8
 71
3
 72
8
 73
4
 74
0
 40
0
 40
0
 40
0
 40
0
 40
1
 40
1
 40
1
 40
1
 10
140.977668
 20
190.522328
 30
0.0
 10
140.718374
 20
190.263034
 30
0.0
 10
140.366696
 20
190.117364
 30
0.0
 10
139.999999
 20
190.117364
 30
0.0
  0
SPLINE
  5
167
100
AcDbEntity
  8
Layer_1
 62
7
100
AcDbSpline
 70
8
 71
3
 72
8
 73
4
 74
0
 40
0
 40
0
 40
0
 40
0
 40
1
 40
1
 40
1
 40
1
 10
139.999999
 20
190.117364
 30
0.0
 10
139.633303
 20
190.117364
 30
0.0
 10
139.281625
 20
190.263034
 30
0.0
 10
139.022331
 20
190.522328
 30
0.0
  0
SPLINE
  5
168
100
AcDbEntity
  8
Layer_1
 62
7
100
AcDbSpline
 70
8
 71
3
 72
8
 73
4
 74
0
 40
0
 40
0
 40
0
 40
0
 40
1
 40
1
 40
1
 40
1
 10
139.022331
 20
190.522328
 30
0.0
 10
138.763037
 20
190.781622
 30
0.0
 10
138.617367
 20
191.133300
 30
0.0
 10
138.617367
 20
191.499997
 30
0.0
  0
SPLINE
  5
169
100
AcDbEntity
  8
Layer_1
 62
7
100
AcDbSpline
 70
8
 71
3
 72
8
 73
4
 74
0
 40
0
 40
0
 40
0
 40
0
 40
1
 40
1
 40
1
 40
1
 10
138.617367
 20
191.499997
 30
0.0
 10
138.617367
 20
191.866693
 30
0.0
 10
138.763037
 20
192.218371
 30
0.0
 10
139.022331
 20
192.477665
 30
0.0
  0
SPLINE
  5
16a
100
AcDbEntity
  8
Layer_1
 62
7
100
AcDbSpline
 70
8
 71
3
 72
8
 73
4
 74
0
 40
0
 40
0
 40
0
 40
0
 40
1
 40
1
 40
1
 40
1
 10
139.022331
 20
192.477665
 30
0.0
 10
139.281625
 20
192.736959
 30
0.0
 10
139.633303
 20
192.882629
 30
0.0
 10
139.999999
 20
192.882629
 30
0.0
  0
SPLINE
  5
16b
100
AcDbEntity
  8
Layer_1
 62
7
100
AcDbSpline
 70
8
 71
3
 72
8
 73
4
 74
0
 40
0
 40
0
 40
0
 40
0
 40
1
 40
1
 40
1
 40
1
 10
139.999999
 20
192.882629
 30
0.0
 10
140.366696
 20
192.882629
 30
0.0
 10
140.718374
 20
192.736959
 30
0.0
 10
140.977668
 20
192.477665
 30
0.0
  0
SPLINE
  5
16c
100
AcDbEntity
  8
Layer_1
 62
7
100
AcDbSpline
 70
8
 71
3
 72
8
 73
4
 74
0
 40
0
 40
0
 40
0
 40
0
 40
1
 40
1
 40
1
 40
1
 10
140.977668
 20
192.477665
 30
0.0
 10
141.236962
 20
192.218371
 30
0.0
 10
141.382632
 20
191.866693
 30
0.0
 10
141.382631
 20
191.499997
 30
0.0
  0
LINE
  5
16d
100
AcDbEntity
  8
Layer_1
 62
7
100
AcDbLine
 10
141.382631
 20
191.499997
 30
0.0
 11
141.382631
 21
191.499997
 31
0.0
  0
SPLINE
  5
16e
100
AcDbEntity
  8
Layer_1
 62
7
100
AcDbSpline
 70
8
 71
3
 72
8
 73
4
 74
0
 40
0
 40
0
 40
0
 40
0
 40
1
 40
1
 40
1
 40
1
 10
122.382627
 20
191.499997
 30
0.0
 10
122.382627
 20
191.133300
 30
0.0
 10
122.236957
 20
190.781622
 30
0.0
 10
121.977664
 20
190.522328
 30
0.0
  0
SPLINE
  5
16f
100
AcDbEntity
  8
Layer_1
 62
7
100
AcDbSpline
 70
8
 71
3
 72
8
 73
4
 74
0
 40
0
 40
0
 40
0
 40
0
 40
1
 40
1
 40
1
 40
1
 10
121.977664
 20
190.522328
 30
0.0
 10
121.718370
 20
190.263034
 30
0.0
 10
121.366692
 20
190.117364
 30
0.0
 10
120.999995
 20
190.117364
 30
0.0
  0
SPLINE
  5
170
100
AcDbEntity
  8
Layer_1
 62
7
100
AcDbSpline
 70
8
 71
3
 72
8
 73
4
 74
0
 40
0
 40
0
 40
0
 40
0
 40
1
 40
1
 40
1
 40
1
 10
120.999995
 20
190.117364
 30
0.0
 10
120.633298
 20
190.117364
 30
0.0
 10
120.281620
 20
190.263034
 30
0.0
 10
120.022326
 20
190.522328
 30
0.0
  0
SPLINE
  5
171
100
AcDbEntity
  8
Layer_1
 62
7
100
AcDbSpline
 70
8
 71
3
 72
8
 73
4
 74
0
 40
0
 40
0
 40
0
 40
0
 40
1
 40
1
 40
1
 40
1
 10
120.022326
 20
190.522328
 30
0.0
 10
119.763033
 20
190.781622
 30
0.0
 10
119.617363
 20
191.133300
 30
0.0
 10
119.617363
 20
191.499997
 30
0.0
  0
SPLINE
  5
172
100
AcDbEntity
  8
Layer_1
 62
7
100
AcDbSpline
 70
8
 71
3
 72
8
 73
4
 74
0
 40
0
 40
0
 40
0
 40
0
 40
1
 40
1
 40
1
 40
1
 10
119.617363
 20
191.499997
 30
0.0
 10
119.617363
 20
191.866693
 30
0.0
 10
119.763033
 20
192.218371
 30
0.0
 10
120.022326
 20
192.477665
 30
0.0
  0
SPLINE
  5
173
100
AcDbEntity
  8
Layer_1
 62
7
100
AcDbSpline
 70
8
 71
3
 72
8
 73
4
 74
0
 40
0
 40
0
 40
0
 40
0
 40
1
 40
1
 40
1
 40
1
 10
120.022326
 20
192.477665
 30
0.0
 10
120.281620
 20
192.736959
 30
0.0
 10
120.633298
 20
192.882629
 30
0.0
 10
120.999995
 20
192.882629
 30
0.0
  0
SPLINE
  5
174
100
AcDbEntity
  8
Layer_1
 62
7
100
AcDbSpline
 70
8
 71
3
 72
8
 73
4
 74
0
 40
0
 40
0
 40
0
 40
0
 40
1
 40
1
 40
1
 40
1
 10
120.999995
 20
192.882629
 30
0.0
 10
121.366692
 20
192.882629
 30
0.0
 10
121.718370
 20
192.736959
 30
0.0
 10
121.977664
 20
192.477665
 30
0.0
  0
SPLINE
  5
175
100
AcDbEntity
  8
Layer_1
 62
7
100
AcDbSpline
 70
8
 71
3
 72
8
 73
4
 74
0
 40
0
 40
0
 40
0
 40
0
 40
1
 40
1
 40
1
 40
1
 10
121.977664
 20
192.477665
 30
0.0
 10
122.236957
 20
192.218371
 30
0.0
 10
122.382627
 20
191.866693
 30
0.0
 10
122.382627
 20
191.499997
 30
0.0
  0
LINE
  5
176
100
AcDbEntity
  8
Layer_1
 62
7
100
AcDbLine
 10
122.382627
 20
191.499997
 30
0.0
 11
122.382627
 21
191.499997
 31
0.0
  0
SPLINE
  5
177
100
AcDbEntity
  8
Layer_1
 62
7
100
AcDbSpline
 70
8
 71
3
 72
8
 73
4
 74
0
 40
0
 40
0
 40
0
 40
0
 40
1
 40
1
 40
1
 40
1
 10
28.382632
 20
164.350001
 30
0.0
 10
28.382632
 20
163.983305
 30
0.0
 10
28.236962
 20
163.631627
 30
0.0
 10
27.977668
 20
163.372333
 30
0.0
  0
SPLINE
  5
178
100
AcDbEntity
  8
Layer_1
 62
7
100
AcDbSpline
 70
8
 71
3
 72
8
 73
4
 74
0
 40
0
 40
0
 40
0
 40
0
 40
1
 40
1
 40
1
 40
1
 10
27.977668
 20
163.372333
 30
0.0
 10
27.718374
 20
163.113039
 30
0.0
 10
27.366696
 20
162.967369
 30
0.0
 10
26.999999
 20
162.967369
 30
0.0
  0
SPLINE
  5
179
100
AcDbEntity
  8
Layer_1
 62
7
100
AcDbSpline
 70
8
 71
3
 72
8
 73
4
 74
0
 40
0
 40
0
 40
0
 40
0
 40
1
 40
1
 40
1
 40
1
 10
26.999999
 20
162.967369
 30
0.0
 10
26.633303
 20
162.967369
 30
0.0
 10
26.281625
 20
163.113039
 30
0.0
 10
26.022331
 20
163.372333
 30
0.0
  0
SPLINE
  5
17a
100
AcDbEntity
  8
Layer_1
 62
7
100
AcDbSpline
 70
8
 71
3
 72
8
 73
4
 74
0
 40
0
 40
0
 40
0
 40
0
 40
1
 40
1
 40
1
 40
1
 10
26.022331
 20
163.372333
 30
0.0
 10
25.763037
 20
163.631627
 30
0.0
 10
25.617367
 20
163.983305
 30
0.0
 10
25.617367
 20
164.350001
 30
0.0
  0
SPLINE
  5
17b
100
AcDbEntity
  8
Layer_1
 62
7
100
AcDbSpline
 70
8
 71
3
 72
8
 73
4
 74
0
 40
0
 40
0
 40
0
 40
0
 40
1
 40
1
 40
1
 40
1
 10
25.617367
 20
164.350001
 30
0.0
 10
25.617367
 20
164.716698
 30
0.0
 10
25.763037
 20
165.068376
 30
0.0
 10
26.022331
 20
165.327670
 30
0.0
  0
SPLINE
  5
17c
100
AcDbEntity
  8
Layer_1
 62
7
100
AcDbSpline
 70
8
 71
3
 72
8
 73
4
 74
0
 40
0
 40
0
 40
0
 40
0
 40
1
 40
1
 40
1
 40
1
 10
26.022331
 20
165.327670
 30
0.0
 10
26.281625
 20
165.586964
 30
0.0
 10
26.633303
 20
165.732634
 30
0.0
 10
26.999999
 20
165.732633
 30
0.0
  0
SPLINE
  5
17d
100
AcDbEntity
  8
Layer_1
 62
7
100
AcDbSpline
 70
8
 71
3
 72
8
 73
4
 74
0
 40
0
 40
0
 40
0
 40
0
 40
1
 40
1
 40
1
 40
1
 10
26.999999
 20
165.732633
 30
0.0
 10
27.366696
 20
165.732634
 30
0.0
 10
27.718374
 20
165.586964
 30
0.0
 10
27.977668
 20
165.327670
 30
0.0
  0
SPLINE
  5
17e
100
AcDbEntity
  8
Layer_1
 62
7
100
AcDbSpline
 70
8
 71
3
 72
8
 73
4
 74
0
 40
0
 40
0
 40
0
 40
0
 40
1
 40
1
 40
1
 40
1
 10
27.977668
 20
165.327670
 30
0.0
 10
28.236962
 20
165.068376
 30
0.0
 10
28.382632
 20
164.716698
 30
0.0
 10
28.382632
 20
164.350001
 30
0.0
  0
LINE
  5
17f
100
AcDbEntity
  8
Layer_1
 62
7
100
AcDbLine
 10
28.382632
 20
164.350001
 30
0.0
 11
28.382632
 21
164.350001
 31
0.0
  0
SPLINE
  5
180
100
AcDbEntity
  8
Layer_1
 62
7
100
AcDbSpline
 70
8
 71
3
 72
8
 73
4
 74
0
 40
0
 40
0
 40
0
 40
0
 40
1
 40
1
 40
1
 40
1
 10
52.682631
 20
164.350001
 30
0.0
 10
52.682631
 20
163.983305
 30
0.0
 10
52.536961
 20
163.631627
 30
0.0
 10
52.277668
 20
163.372333
 30
0.0
  0
SPLINE
  5
181
100
AcDbEntity
  8
Layer_1
 62
7
100
AcDbSpline
 70
8
 71
3
 72
8
 73
4
 74
0
 40
0
 40
0
 40
0
 40
0
 40
1
 40
1
 40
1
 40
1
 10
52.277668
 20
163.372333
 30
0.0
 10
52.018374
 20
163.113039
 30
0.0
 10
51.666696
 20
162.967369
 30
0.0
 10
51.299999
 20
162.967369
 30
0.0
  0
SPLINE
  5
182
100
AcDbEntity
  8
Layer_1
 62
7
100
AcDbSpline
 70
8
 71
3
 72
8
 73
4
 74
0
 40
0
 40
0
 40
0
 40
0
 40
1
 40
1
 40
1
 40
1
 10
51.299999
 20
162.967369
 30
0.0
 10
50.933302
 20
162.967369
 30
0.0
 10
50.581624
 20
163.113039
 30
0.0
 10
50.322330
 20
163.372333
 30
0.0
  0
SPLINE
  5
183
100
AcDbEntity
  8
Layer_1
 62
7
100
AcDbSpline
 70
8
 71
3
 72
8
 73
4
 74
0
 40
0
 40
0
 40
0
 40
0
 40
1
 40
1
 40
1
 40
1
 10
50.322330
 20
163.372333
 30
0.0
 10
50.063037
 20
163.631627
 30
0.0
 10
49.917367
 20
163.983305
 30
0.0
 10
49.917367
 20
164.350001
 30
0.0
  0
SPLINE
  5
184
100
AcDbEntity
  8
Layer_1
 62
7
100
AcDbSpline
 70
8
 71
3
 72
8
 73
4
 74
0
 40
0
 40
0
 40
0
 40
0
 40
1
 40
1
 40
1
 40
1
 10
49.917367
 20
164.350001
 30
0.0
 10
49.917367
 20
164.716698
 30
0.0
 10
50.063037
 20
165.068376
 30
0.0
 10
50.322330
 20
165.327670
 30
0.0
  0
SPLINE
  5
185
100
AcDbEntity
  8
Layer_1
 62
7
100
AcDbSpline
 70
8
 71
3
 72
8
 73
4
 74
0
 40
0
 40
0
 40
0
 40
0
 40
1
 40
1
 40
1
 40
1
 10
50.322330
 20
165.327670
 30
0.0
 10
50.581624
 20
165.586964
 30
0.0
 10
50.933302
 20
165.732634
 30
0.0
 10
51.299999
 20
165.732633
 30
0.0
  0
SPLINE
  5
186
100
AcDbEntity
  8
Layer_1
 62
7
100
AcDbSpline
 70
8
 71
3
 72
8
 73
4
 74
0
 40
0
 40
0
 40
0
 40
0
 40
1
 40
1
 40
1
 40
1
 10
51.299999
 20
165.732633
 30
0.0
 10
51.666696
 20
165.732634
 30
0.0
 10
52.018374
 20
165.586964
 30
0.0
 10
52.277668
 20
165.327670
 30
0.0
  0
SPLINE
  5
187
100
AcDbEntity
  8
Layer_1
 62
7
100
AcDbSpline
 70
8
 71
3
 72
8
 73
4
 74
0
 40
0
 40
0
 40
0
 40
0
 40
1
 40
1
 40
1
 40
1
 10
52.277668
 20
165.327670
 30
0.0
 10
52.536961
 20
165.068376
 30
0.0
 10
52.682631
 20
164.716698
 30
0.0
 10
52.682631
 20
164.350001
 30
0.0
  0
LINE
  5
188
100
AcDbEntity
  8
Layer_1
 62
7
100
AcDbLine
 10
52.682631
 20
164.350001
 30
0.0
 11
52.682631
 21
164.350001
 31
0.0
  0
SPLINE
  5
189
100
AcDbEntity
  8
Layer_1
 62
7
100
AcDbSpline
 70
8
 71
3
 72
8
 73
4
 74
0
 40
0
 40
0
 40
0
 40
0
 40
1
 40
1
 40
1
 40
1
 10
28.382632
 20
240.649998
 30
0.0
 10
28.382632
 20
240.283302
 30
0.0
 10
28.236962
 20
239.931624
 30
0.0
 10
27.977668
 20
239.672330
 30
0.0
  0
SPLINE
  5
18a
100
AcDbEntity
  8
Layer_1
 62
7
100
AcDbSpline
 70
8
 71
3
 72
8
 73
4
 74
0
 40
0
 40
0
 40
0
 40
0
 40
1
 40
1
 40
1
 40
1
 10
27.977668
 20
239.672330
 30
0.0
 10
27.718374
 20
239.413036
 30
0.0
 10
27.366696
 20
239.267366
 30
0.0
 10
26.999999
 20
239.267366
 30
0.0
  0
SPLINE
  5
18b
100
AcDbEntity
  8
Layer_1
 62
7
100
AcDbSpline
 70
8
 71
3
 72
8
 73
4
 74
0
 40
0
 40
0
 40
0
 40
0
 40
1
 40
1
 40
1
 40
1
 10
26.999999
 20
239.267366
 30
0.0
 10
26.633303
 20
239.267366
 30
0.0
 10
26.281625
 20
239.413036
 30
0.0
 10
26.022331
 20
239.672330
 30
0.0
  0
SPLINE
  5
18c
100
AcDbEntity
  8
Layer_1
 62
7
100
AcDbSpline
 70
8
 71
3
 72
8
 73
4
 74
0
 40
0
 40
0
 40
0
 40
0
 40
1
 40
1
 40
1
 40
1
 10
26.022331
 20
239.672330
 30
0.0
 10
25.763037
 20
239.931624
 30
0.0
 10
25.617367
 20
240.283302
 30
0.0
 10
25.617367
 20
240.649998
 30
0.0
  0
SPLINE
  5
18d
100
AcDbEntity
  8
Layer_1
 62
7
100
AcDbSpline
 70
8
 71
3
 72
8
 73
4
 74
0
 40
0
 40
0
 40
0
 40
0
 40
1
 40
1
 40
1
 40
1
 10
25.617367
 20
240.649998
 30
0.0
 10
25.617367
 20
241.016695
 30
0.0
 10
25.763037
 20
241.368373
 30
0.0
 10
26.022331
 20
241.627667
 30
0.0
  0
SPLINE
  5
18e
100
AcDbEntity
  8
Layer_1
 62
7
100
AcDbSpline
 70
8
 71
3
 72
8
 73
4
 74
0
 40
0
 40
0
 40
0
 40
0
 40
1
 40
1
 40
1
 40
1
 10
26.022331
 20
241.627667
 30
0.0
 10
26.281625
 20
241.886961
 30
0.0
 10
26.633303
 20
242.032631
 30
0.0
 10
26.999999
 20
242.032630
 30
0.0
  0
SPLINE
  5
18f
100
AcDbEntity
  8
Layer_1
 62
7
100
AcDbSpline
 70
8
 71
3
 72
8
 73
4
 74
0
 40
0
 40
0
 40
0
 40
0
 40
1
 40
1
 40
1
 40
1
 10
26.999999
 20
242.032630
 30
0.0
 10
27.366696
 20
242.032631
 30
0.0
 10
27.718374
 20
241.886961
 30
0.0
 10
27.977668
 20
241.627667
 30
0.0
  0
SPLINE
  5
190
100
AcDbEntity
  8
Layer_1
 62
7
100
AcDbSpline
 70
8
 71
3
 72
8
 73
4
 74
0
 40
0
 40
0
 40
0
 40
0
 40
1
 40
1
 40
1
 40
1
 10
27.977668
 20
241.627667
 30
0.0
 10
28.236962
 20
241.368373
 30
0.0
 10
28.382632
 20
241.016695
 30
0.0
 10
28.382632
 20
240.649998
 30
0.0
  0
LINE
  5
191
100
AcDbEntity
  8
Layer_1
 62
7
100
AcDbLine
 10
28.382632
 20
240.649998
 30
0.0
 11
28.382632
 21
240.649998
 31
0.0
  0
SPLINE
  5
192
100
AcDbEntity
  8
Layer_1
 62
7
100
AcDbSpline
 70
8
 71
3
 72
8
 73
4
 74
0
 40
0
 40
0
 40
0
 40
0
 40
1
 40
1
 40
1
 40
1
 10
52.682631
 20
240.649998
 30
0.0
 10
52.682631
 20
240.283302
 30
0.0
 10
52.536961
 20
239.931624
 30
0.0
 10
52.277668
 20
239.672330
 30
0.0
  0
SPLINE
  5
193
100
AcDbEntity
  8
Layer_1
 62
7
100
AcDbSpline
 70
8
 71
3
 72
8
 73
4
 74
0
 40
0
 40
0
 40
0
 40
0
 40
1
 40
1
 40
1
 40
1
 10
52.277668
 20
239.672330
 30
0.0
 10
52.018374
 20
239.413036
 30
0.0
 10
51.666696
 20
239.267366
 30
0.0
 10
51.299999
 20
239.267366
 30
0.0
  0
SPLINE
  5
194
100
AcDbEntity
  8
Layer_1
 62
7
100
AcDbSpline
 70
8
 71
3
 72
8
 73
4
 74
0
 40
0
 40
0
 40
0
 40
0
 40
1
 40
1
 40
1
 40
1
 10
51.299999
 20
239.267366
 30
0.0
 10
50.933302
 20
239.267366
 30
0.0
 10
50.581624
 20
239.413036
 30
0.0
 10
50.322330
 20
239.672330
 30
0.0
  0
SPLINE
  5
195
100
AcDbEntity
  8
Layer_1
 62
7
100
AcDbSpline
 70
8
 71
3
 72
8
 73
4
 74
0
 40
0
 40
0
 40
0
 40
0
 40
1
 40
1
 40
1
 40
1
 10
50.322330
 20
239.672330
 30
0.0
 10
50.063037
 20
239.931624
 30
0.0
 10
49.917367
 20
240.283302
 30
0.0
 10
49.917367
 20
240.649998
 30
0.0
  0
SPLINE
  5
196
100
AcDbEntity
  8
Layer_1
 62
7
100
AcDbSpline
 70
8
 71
3
 72
8
 73
4
 74
0
 40
0
 40
0
 40
0
 40
0
 40
1
 40
1
 40
1
 40
1
 10
49.917367
 20
240.649998
 30
0.0
 10
49.917367
 20
241.016695
 30
0.0
 10
50.063037
 20
241.368373
 30
0.0
 10
50.322330
 20
241.627667
 30
0.0
  0
SPLINE
  5
197
100
AcDbEntity
  8
Layer_1
 62
7
100
AcDbSpline
 70
8
 71
3
 72
8
 73
4
 74
0
 40
0
 40
0
 40
0
 40
0
 40
1
 40
1
 40
1
 40
1
 10
50.322330
 20
241.627667
 30
0.0
 10
50.581624
 20
241.886961
 30
0.0
 10
50.933302
 20
242.032631
 30
0.0
 10
51.299999
 20
242.032630
 30
0.0
  0
SPLINE
  5
198
100
AcDbEntity
  8
Layer_1
 62
7
100
AcDbSpline
 70
8
 71
3
 72
8
 73
4
 74
0
 40
0
 40
0
 40
0
 40
0
 40
1
 40
1
 40
1
 40
1
 10
51.299999
 20
242.032630
 30
0.0
 10
51.666696
 20
242.032631
 30
0.0
 10
52.018374
 20
241.886961
 30
0.0
 10
52.277668
 20
241.627667
 30
0.0
  0
SPLINE
  5
199
100
AcDbEntity
  8
Layer_1
 62
7
100
AcDbSpline
 70
8
 71
3
 72
8
 73
4
 74
0
 40
0
 40
0
 40
0
 40
0
 40
1
 40
1
 40
1
 40
1
 10
52.277668
 20
241.627667
 30
0.0
 10
52.536961
 20
241.368373
 30
0.0
 10
52.682631
 20
241.016695
 30
0.0
 10
52.682631
 20
240.649998
 30
0.0
  0
LINE
  5
19a
100
AcDbEntity
  8
Layer_1
 62
7
100
AcDbLine
 10
52.682631
 20
240.649998
 30
0.0
 11
52.682631
 21
240.649998
 31
0.0
  0
SPLINE
  5
19b
100
AcDbEntity
  8
Layer_1
 62
7
100
AcDbSpline
 70
8
 71
3
 72
8
 73
4
 74
0
 40
0
 40
0
 40
0
 40
0
 40
1
 40
1
 40
1
 40
1
 10
122.382627
 20
213.499998
 30
0.0
 10
122.382627
 20
213.133301
 30
0.0
 10
122.236957
 20
212.781623
 30
0.0
 10
121.977664
 20
212.522329
 30
0.0
  0
SPLINE
  5
19c
100
AcDbEntity
  8
Layer_1
 62
7
100
AcDbSpline
 70
8
 71
3
 72
8
 73
4
 74
0
 40
0
 40
0
 40
0
 40
0
 40
1
 40
1
 40
1
 40
1
 10
121.977664
 20
212.522329
 30
0.0
 10
121.718370
 20
212.263035
 30
0.0
 10
121.366692
 20
212.117366
 30
0.0
 10
120.999995
 20
212.117366
 30
0.0
  0
SPLINE
  5
19d
100
AcDbEntity
  8
Layer_1
 62
7
100
AcDbSpline
 70
8
 71
3
 72
8
 73
4
 74
0
 40
0
 40
0
 40
0
 40
0
 40
1
 40
1
 40
1
 40
1
 10
120.999995
 20
212.117366
 30
0.0
 10
120.633298
 20
212.117366
 30
0.0
 10
120.281620
 20
212.263035
 30
0.0
 10
120.022326
 20
212.522329
 30
0.0
  0
SPLINE
  5
19e
100
AcDbEntity
  8
Layer_1
 62
7
100
AcDbSpline
 70
8
 71
3
 72
8
 73
4
 74
0
 40
0
 40
0
 40
0
 40
0
 40
1
 40
1
 40
1
 40
1
 10
120.022326
 20
212.522329
 30
0.0
 10
119.763033
 20
212.781623
 30
0.0
 10
119.617363
 20
213.133301
 30
0.0
 10
119.617363
 20
213.499998
 30
0.0
  0
SPLINE
  5
19f
100
AcDbEntity
  8
Layer_1
 62
7
100
AcDbSpline
 70
8
 71
3
 72
8
 73
4
 74
0
 40
0
 40
0
 40
0
 40
0
 40
1
 40
1
 40
1
 40
1
 10
119.617363
 20
213.499998
 30
0.0
 10
119.617363
 20
213.866695
 30
0.0
 10
119.763033
 20
214.218372
 30
0.0
 10
120.022326
 20
214.477666
 30
0.0
  0
SPLINE
  5
1a0
100
AcDbEntity
  8
Layer_1
 62
7
100
AcDbSpline
 70
8
 71
3
 72
8
 73
4
 74
0
 40
0
 40
0
 40
0
 40
0
 40
1
 40
1
 40
1
 40
1
 10
120.022326
 20
214.477666
 30
0.0
 10
120.281620
 20
214.736960
 30
0.0
 10
120.633298
 20
214.882630
 30
0.0
 10
120.999995
 20
214.882630
 30
0.0
  0
SPLINE
  5
1a1
100
AcDbEntity
  8
Layer_1
 62
7
100
AcDbSpline
 70
8
 71
3
 72
8
 73
4
 74
0
 40
0
 40
0
 40
0
 40
0
 40
1
 40
1
 40
1
 40
1
 10
120.999995
 20
214.882630
 30
0.0
 10
121.366692
 20
214.882630
 30
0.0
 10
121.718370
 20
214.736960
 30
0.0
 10
121.977664
 20
214.477666
 30
0.0
  0
SPLINE
  5
1a2
100
AcDbEntity
  8
Layer_1
 62
7
100
AcDbSpline
 70
8
 71
3
 72
8
 73
4
 74
0
 40
0
 40
0
 40
0
 40
0
 40
1
 40
1
 40
1
 40
1
 10
121.977664
 20
214.477666
 30
0.0
 10
122.236957
 20
214.218372
 30
0.0
 10
122.382627
 20
213.866695
 30
0.0
 10
122.382627
 20
213.499998
 30
0.0
  0
LINE
  5
1a3
100
AcDbEntity
  8
Layer_1
 62
7
100
AcDbLine
 10
122.382627
 20
213.499998
 30
0.0
 11
122.382627
 21
213.499998
 31
0.0
  0
SPLINE
  5
1a4
100
AcDbEntity
  8
Layer_1
 62
7
100
AcDbSpline
 70
8
 71
3
 72
8
 73
4
 74
0
 40
0
 40
0
 40
0
 40
0
 40
1
 40
1
 40
1
 40
1
 10
141.382631
 20
213.499998
 30
0.0
 10
141.382632
 20
213.133301
 30
0.0
 10
141.236962
 20
212.781623
 30
0.0
 10
140.977668
 20
212.522329
 30
0.0
  0
SPLINE
  5
1a5
100
AcDbEntity
  8
Layer_1
 62
7
100
AcDbSpline
 70
8
 71
3
 72
8
 73
4
 74
0
 40
0
 40
0
 40
0
 40
0
 40
1
 40
1
 40
1
 40
1
 10
140.977668
 20
212.522329
 30
0.0
 10
140.718374
 20
212.263035
 30
0.0
 10
140.366696
 20
212.117366
 30
0.0
 10
139.999999
 20
212.117366
 30
0.0
  0
SPLINE
  5
1a6
100
AcDbEntity
  8
Layer_1
 62
7
100
AcDbSpline
 70
8
 71
3
 72
8
 73
4
 74
0
 40
0
 40
0
 40
0
 40
0
 40
1
 40
1
 40
1
 40
1
 10
139.999999
 20
212.117366
 30
0.0
 10
139.633303
 20
212.117366
 30
0.0
 10
139.281625
 20
212.263035
 30
0.0
 10
139.022331
 20
212.522329
 30
0.0
  0
SPLINE
  5
1a7
100
AcDbEntity
  8
Layer_1
 62
7
100
AcDbSpline
 70
8
 71
3
 72
8
 73
4
 74
0
 40
0
 40
0
 40
0
 40
0
 40
1
 40
1
 40
1
 40
1
 10
139.022331
 20
212.522329
 30
0.0
 10
138.763037
 20
212.781623
 30
0.0
 10
138.617367
 20
213.133301
 30
0.0
 10
138.617367
 20
213.499998
 30
0.0
  0
SPLINE
  5
1a8
100
AcDbEntity
  8
Layer_1
 62
7
100
AcDbSpline
 70
8
 71
3
 72
8
 73
4
 74
0
 40
0
 40
0
 40
0
 40
0
 40
1
 40
1
 40
1
 40
1
 10
138.617367
 20
213.499998
 30
0.0
 10
138.617367
 20
213.866695
 30
0.0
 10
138.763037
 20
214.218372
 30
0.0
 10
139.022331
 20
214.477666
 30
0.0
  0
SPLINE
  5
1a9
100
AcDbEntity
  8
Layer_1
 62
7
100
AcDbSpline
 70
8
 71
3
 72
8
 73
4
 74
0
 40
0
 40
0
 40
0
 40
0
 40
1
 40
1
 40
1
 40
1
 10
139.022331
 20
214.477666
 30
0.0
 10
139.281625
 20
214.736960
 30
0.0
 10
139.633303
 20
214.882630
 30
0.0
 10
139.999999
 20
214.882630
 30
0.0
  0
SPLINE
  5
1aa
100
AcDbEntity
  8
Layer_1
 62
7
100
AcDbSpline
 70
8
 71
3
 72
8
 73
4
 74
0
 40
0
 40
0
 40
0
 40
0
 40
1
 40
1
 40
1
 40
1
 10
139.999999
 20
214.882630
 30
0.0
 10
140.366696
 20
214.882630
 30
0.0
 10
140.718374
 20
214.736960
 30
0.0
 10
140.977668
 20
214.477666
 30
0.0
  0
SPLINE
  5
1ab
100
AcDbEntity
  8
Layer_1
 62
7
100
AcDbSpline
 70
8
 71
3
 72
8
 73
4
 74
0
 40
0
 40
0
 40
0
 40
0
 40
1
 40
1
 40
1
 40
1
 10
140.977668
 20
214.477666
 30
0.0
 10
141.236962
 20
214.218372
 30
0.0
 10
141.382632
 20
213.866695
 30
0.0
 10
141.382631
 20
213.499998
 30
0.0
  0
LINE
  5
1ac
100
AcDbEntity
  8
Layer_1
 62
7
100
AcDbLine
 10
141.382631
 20
213.499998
 30
0.0
 11
141.382631
 21
213.499998
 31
0.0
  0
SPLINE
  5
1ad
100
AcDbEntity
  8
Layer_1
 62
7
100
AcDbSpline
 70
8
 71
3
 72
8
 73
4
 74
0
 40
0
 40
0
 40
0
 40
0
 40
1
 40
1
 40
1
 40
1
 10
75.402192
 20
125.250001
 30
0.0
 10
75.402191
 20
124.613663
 30
0.0
 10
74.886337
 20
124.097809
 30
0.0
 10
74.250000
 20
124.097809
 30
0.0
  0
SPLINE
  5
1ae
100
AcDbEntity
  8
Layer_1
 62
7
100
AcDbSpline
 70
8
 71
3
 72
8
 73
4
 74
0
 40
0
 40
0
 40
0
 40
0
 40
1
 40
1
 40
1
 40
1
 10
74.250000
 20
124.097809
 30
0.0
 10
73.944419
 20
124.097808
 30
0.0
 10
73.651354
 20
124.219199
 30
0.0
 10
73.435275
 20
124.435277
 30
0.0
  0
SPLINE
  5
1af
100
AcDbEntity
  8
Layer_1
 62
7
100
AcDbSpline
 70
8
 71
3
 72
8
 73
4
 74
0
 40
0
 40
0
 40
0
 40
0
 40
1
 40
1
 40
1
 40
1
 10
73.435275
 20
124.435277
 30
0.0
 10
73.219197
 20
124.651355
 30
0.0
 10
73.097805
 20
124.944420
 30
0.0
 10
73.097805
 20
125.250001
 30
0.0
  0
SPLINE
  5
1b0
100
AcDbEntity
  8
Layer_1
 62
7
100
AcDbSpline
 70
8
 71
3
 72
8
 73
4
 74
0
 40
0
 40
0
 40
0
 40
0
 40
1
 40
1
 40
1
 40
1
 10
73.097805
 20
125.250001
 30
0.0
 10
73.097804
 20
125.555582
 30
0.0
 10
73.219196
 20
125.848647
 30
0.0
 10
73.435274
 20
126.064726
 30
0.0
  0
SPLINE
  5
1b1
100
AcDbEntity
  8
Layer_1
 62
7
100
AcDbSpline
 70
8
 71
3
 72
8
 73
4
 74
0
 40
0
 40
0
 40
0
 40
0
 40
1
 40
1
 40
1
 40
1
 10
73.435274
 20
126.064726
 30
0.0
 10
73.651353
 20
126.280804
 30
0.0
 10
73.944418
 20
126.402196
 30
0.0
 10
74.250000
 20
126.402195
 30
0.0
  0
SPLINE
  5
1b2
100
AcDbEntity
  8
Layer_1
 62
7
100
AcDbSpline
 70
8
 71
3
 72
8
 73
4
 74
0
 40
0
 40
0
 40
0
 40
0
 40
1
 40
1
 40
1
 40
1
 10
74.250000
 20
126.402195
 30
0.0
 10
74.555580
 20
126.402195
 30
0.0
 10
74.848645
 20
126.280803
 30
0.0
 10
75.064723
 20
126.064725
 30
0.0
  0
SPLINE
  5
1b3
100
AcDbEntity
  8
Layer_1
 62
7
100
AcDbSpline
 70
8
 71
3
 72
8
 73
4
 74
0
 40
0
 40
0
 40
0
 40
0
 40
1
 40
1
 40
1
 40
1
 10
75.064723
 20
126.064725
 30
0.0
 10
75.280801
 20
125.848646
 30
0.0
 10
75.402192
 20
125.555581
 30
0.0
 10
75.402192
 20
125.250001
 30
0.0
  0
LINE
  5
1b4
100
AcDbEntity
  8
Layer_1
 62
7
100
AcDbLine
 10
75.402192
 20
125.250001
 30
0.0
 11
75.402192
 21
125.250001
 31
0.0
  0
SPLINE
  5
1b5
100
AcDbEntity
  8
Layer_1
 62
7
100
AcDbSpline
 70
8
 71
3
 72
8
 73
4
 74
0
 40
0
 40
0
 40
0
 40
0
 40
1
 40
1
 40
1
 40
1
 10
75.402192
 20
174.249999
 30
0.0
 10
75.402191
 20
173.613661
 30
0.0
 10
74.886337
 20
173.097807
 30
0.0
 10
74.250000
 20
173.097807
 30
0.0
  0
SPLINE
  5
1b6
100
AcDbEntity
  8
Layer_1
 62
7
100
AcDbSpline
 70
8
 71
3
 72
8
 73
4
 74
0
 40
0
 40
0
 40
0
 40
0
 40
1
 40
1
 40
1
 40
1
 10
74.250000
 20
173.097807
 30
0.0
 10
73.944419
 20
173.097806
 30
0.0
 10
73.651354
 20
173.219197
 30
0.0
 10
73.435275
 20
173.435275
 30
0.0
  0
SPLINE
  5
1b7
100
AcDbEntity
  8
Layer_1
 62
7
100
AcDbSpline
 70
8
 71
3
 72
8
 73
4
 74
0
 40
0
 40
0
 40
0
 40
0
 40
1
 40
1
 40
1
 40
1
 10
73.435275
 20
173.435275
 30
0.0
 10
73.219197
 20
173.651353
 30
0.0
 10
73.097805
 20
173.944418
 30
0.0
 10
73.097805
 20
174.249999
 30
0.0
  0
SPLINE
  5
1b8
100
AcDbEntity
  8
Layer_1
 62
7
100
AcDbSpline
 70
8
 71
3
 72
8
 73
4
 74
0
 40
0
 40
0
 40
0
 40
0
 40
1
 40
1
 40
1
 40
1
 10
73.097805
 20
174.249999
 30
0.0
 10
73.097804
 20
174.555580
 30
0.0
 10
73.219196
 20
174.848645
 30
0.0
 10
73.435274
 20
175.064724
 30
0.0
  0
SPLINE
  5
1b9
100
AcDbEntity
  8
Layer_1
 62
7
100
AcDbSpline
 70
8
 71
3
 72
8
 73
4
 74
0
 40
0
 40
0
 40
0
 40
0
 40
1
 40
1
 40
1
 40
1
 10
73.435274
 20
175.064724
 30
0.0
 10
73.651353
 20
175.280802
 30
0.0
 10
73.944418
 20
175.402194
 30
0.0
 10
74.250000
 20
175.402193
 30
0.0
  0
SPLINE
  5
1ba
100
AcDbEntity
  8
Layer_1
 62
7
100
AcDbSpline
 70
8
 71
3
 72
8
 73
4
 74
0
 40
0
 40
0
 40
0
 40
0
 40
1
 40
1
 40
1
 40
1
 10
74.250000
 20
175.402193
 30
0.0
 10
74.555580
 20
175.402193
 30
0.0
 10
74.848645
 20
175.280801
 30
0.0
 10
75.064723
 20
175.064723
 30
0.0
  0
SPLINE
  5
1bb
100
AcDbEntity
  8
Layer_1
 62
7
100
AcDbSpline
 70
8
 71
3
 72
8
 73
4
 74
0
 40
0
 40
0
 40
0
 40
0
 40
1
 40
1
 40
1
 40
1
 10
75.064723
 20
175.064723
 30
0.0
 10
75.280801
 20
174.848644
 30
0.0
 10
75.402192
 20
174.555579
 30
0.0
 10
75.402192
 20
174.249999
 30
0.0
  0
LINE
  5
1bc
100
AcDbEntity
  8
Layer_1
 62
7
100
AcDbLine
 10
75.402192
 20
174.249999
 30
0.0
 11
75.402192
 21
174.249999
 31
0.0
  0
SPLINE
  5
1bd
100
AcDbEntity
  8
Layer_1
 62
7
100
AcDbSpline
 70
8
 71
3
 72
8
 73
4
 74
0
 40
0
 40
0
 40
0
 40
0
 40
1
 40
1
 40
1
 40
1
 10
133.402191
 20
174.249999
 30
0.0
 10
133.402191
 20
173.613661
 30
0.0
 10
132.886337
 20
173.097807
 30
0.0
 10
132.249999
 20
173.097807
 30
0.0
  0
SPLINE
  5
1be
100
AcDbEntity
  8
Layer_1
 62
7
100
AcDbSpline
 70
8
 71
3
 72
8
 73
4
 74
0
 40
0
 40
0
 40
0
 40
0
 40
1
 40
1
 40
1
 40
1
 10
132.249999
 20
173.097807
 30
0.0
 10
131.944419
 20
173.097806
 30
0.0
 10
131.651354
 20
173.219197
 30
0.0
 10
131.435275
 20
173.435275
 30
0.0
  0
SPLINE
  5
1bf
100
AcDbEntity
  8
Layer_1
 62
7
100
AcDbSpline
 70
8
 71
3
 72
8
 73
4
 74
0
 40
0
 40
0
 40
0
 40
0
 40
1
 40
1
 40
1
 40
1
 10
131.435275
 20
173.435275
 30
0.0
 10
131.219197
 20
173.651353
 30
0.0
 10
131.097805
 20
173.944418
 30
0.0
 10
131.097805
 20
174.249999
 30
0.0
  0
SPLINE
  5
1c0
100
AcDbEntity
  8
Layer_1
 62
7
100
AcDbSpline
 70
8
 71
3
 72
8
 73
4
 74
0
 40
0
 40
0
 40
0
 40
0
 40
1
 40
1
 40
1
 40
1
 10
131.097805
 20
174.249999
 30
0.0
 10
131.097804
 20
174.555580
 30
0.0
 10
131.219196
 20
174.848645
 30
0.0
 10
131.435274
 20
175.064724
 30
0.0
  0
SPLINE
  5
1c1
100
AcDbEntity
  8
Layer_1
 62
7
100
AcDbSpline
 70
8
 71
3
 72
8
 73
4
 74
0
 40
0
 40
0
 40
0
 40
0
 40
1
 40
1
 40
1
 40
1
 10
131.435274
 20
175.064724
 30
0.0
 10
131.651353
 20
175.280802
 30
0.0
 10
131.944418
 20
175.402194
 30
0.0
 10
132.249999
 20
175.402193
 30
0.0
  0
SPLINE
  5
1c2
100
AcDbEntity
  8
Layer_1
 62
7
100
AcDbSpline
 70
8
 71
3
 72
8
 73
4
 74
0
 40
0
 40
0
 40
0
 40
0
 40
1
 40
1
 40
1
 40
1
 10
132.249999
 20
175.402193
 30
0.0
 10
132.555580
 20
175.402193
 30
0.0
 10
132.848645
 20
175.280801
 30
0.0
 10
133.064723
 20
175.064723
 30
0.0
  0
SPLINE
  5
1c3
100
AcDbEntity
  8
Layer_1
 62
7
100
AcDbSpline
 70
8
 71
3
 72
8
 73
4
 74
0
 40
0
 40
0
 40
0
 40
0
 40
1
 40
1
 40
1
 40
1
 10
133.064723
 20
175.064723
 30
0.0
 10
133.280801
 20
174.848644
 30
0.0
 10
133.402192
 20
174.555579
 30
0.0
 10
133.402191
 20
174.249999
 30
0.0
  0
LINE
  5
1c4
100
AcDbEntity
  8
Layer_1
 62
7
100
AcDbLine
 10
133.402191
 20
174.249999
 30
0.0
 11
133.402191
 21
174.249999
 31
0.0
  0
SPLINE
  5
1c5
100
AcDbEntity
  8
Layer_1
 62
7
100
AcDbSpline
 70
8
 71
3
 72
8
 73
4
 74
0
 40
0
 40
0
 40
0
 40
0
 40
1
 40
1
 40
1
 40
1
 10
133.402191
 20
125.250001
 30
0.0
 10
133.402191
 20
124.613663
 30
0.0
 10
132.886337
 20
124.097809
 30
0.0
 10
132.249999
 20
124.097809
 30
0.0
  0
SPLINE
  5
1c6
100
AcDbEntity
  8
Layer_1
 62
7
100
AcDbSpline
 70
8
 71
3
 72
8
 73
4
 74
0
 40
0
 40
0
 40
0
 40
0
 40
1
 40
1
 40
1
 40
1
 10
132.249999
 20
124.097809
 30
0.0
 10
131.944419
 20
124.097808
 30
0.0
 10
131.651354
 20
124.219199
 30
0.0
 10
131.435275
 20
124.435277
 30
0.0
  0
SPLINE
  5
1c7
100
AcDbEntity
  8
Layer_1
 62
7
100
AcDbSpline
 70
8
 71
3
 72
8
 73
4
 74
0
 40
0
 40
0
 40
0
 40
0
 40
1
 40
1
 40
1
 40
1
 10
131.435275
 20
124.435277
 30
0.0
 10
131.219197
 20
124.651355
 30
0.0
 10
131.097805
 20
124.944420
 30
0.0
 10
131.097805
 20
125.250001
 30
0.0
  0
SPLINE
  5
1c8
100
AcDbEntity
  8
Layer_1
 62
7
100
AcDbSpline
 70
8
 71
3
 72
8
 73
4
 74
0
 40
0
 40
0
 40
0
 40
0
 40
1
 40
1
 40
1
 40
1
 10
131.097805
 20
125.250001
 30
0.0
 10
131.097804
 20
125.555582
 30
0.0
 10
131.219196
 20
125.848647
 30
0.0
 10
131.435274
 20
126.064726
 30
0.0
  0
SPLINE
  5
1c9
100
AcDbEntity
  8
Layer_1
 62
7
100
AcDbSpline
 70
8
 71
3
 72
8
 73
4
 74
0
 40
0
 40
0
 40
0
 40
0
 40
1
 40
1
 40
1
 40
1
 10
131.435274
 20
126.064726
 30
0.0
 10
131.651353
 20
126.280804
 30
0.0
 10
131.944418
 20
126.402196
 30
0.0
 10
132.249999
 20
126.402195
 30
0.0
  0
SPLINE
  5
1ca
100
AcDbEntity
  8
Layer_1
 62
7
100
AcDbSpline
 70
8
 71
3
 72
8
 73
4
 74
0
 40
0
 40
0
 40
0
 40
0
 40
1
 40
1
 40
1
 40
1
 10
132.249999
 20
126.402195
 30
0.0
 10
132.555580
 20
126.402195
 30
0.0
 10
132.848645
 20
126.280803
 30
0.0
 10
133.064723
 20
126.064725
 30
0.0
  0
SPLINE
  5
1cb
100
AcDbEntity
  8
Layer_1
 62
7
100
AcDbSpline
 70
8
 71
3
 72
8
 73
4
 74
0
 40
0
 40
0
 40
0
 40
0
 40
1
 40
1
 40
1
 40
1
 10
133.064723
 20
126.064725
 30
0.0
 10
133.280801
 20
125.848646
 30
0.0
 10
133.402192
 20
125.555581
 30
0.0
 10
133.402191
 20
125.250001
 30
0.0
  0
LINE
  5
1cc
100
AcDbEntity
  8
Layer_1
 62
7
100
AcDbLine
 10
133.402191
 20
125.250001
 30
0.0
 11
133.402191
 21
125.250001
 31
0.0
  0
ENDSEC
  0
SECTION
  2
OBJECTS
  0
DICTIONARY
  5
C
330
0
100
AcDbDictionary
  3
ACAD_GROUP
350
D
  3
ACAD_MLINESTYLE
350
17
  0
DICTIONARY
  5
D
330
C
100
AcDbDictionary
  0
DICTIONARY
  5
1A
330
C
100
AcDbDictionary
  0
DICTIONARY
  5
17
330
C
100
AcDbDictionary
  3
STANDARD
350
18
  0
DICTIONARY
  5
19
330
C
100
AcDbDictionary
  0
ENDSEC
  0
EOF
