<?xml version="1.0" encoding="UTF-8" standalone="no"?>
<!-- Created with Inkscape (http://www.inkscape.org/) -->

<svg
   xmlns:dc="http://purl.org/dc/elements/1.1/"
   xmlns:cc="http://creativecommons.org/ns#"
   xmlns:rdf="http://www.w3.org/1999/02/22-rdf-syntax-ns#"
   xmlns:svg="http://www.w3.org/2000/svg"
   xmlns="http://www.w3.org/2000/svg"
   xmlns:sodipodi="http://sodipodi.sourceforge.net/DTD/sodipodi-0.dtd"
   xmlns:inkscape="http://www.inkscape.org/namespaces/inkscape"
   width="210mm"
   height="297mm"
   viewBox="0 0 744.09448819 1052.3622047"
   id="svg2"
   version="1.1"
   inkscape:version="0.91 r13725"
   sodipodi:docname="TopPlate.svg">
  <defs
     id="defs4" />
  <sodipodi:namedview
     id="base"
     pagecolor="#ffffff"
     bordercolor="#666666"
     borderopacity="1.0"
     inkscape:pageopacity="0.0"
     inkscape:pageshadow="2"
     inkscape:zoom="1.4"
     inkscape:cx="221.80695"
     inkscape:cy="712.95811"
     inkscape:document-units="px"
     inkscape:current-layer="layer1"
     showgrid="false"
     inkscape:snap-global="true"
     inkscape:snap-bbox="false"
     inkscape:window-width="1855"
     inkscape:window-height="1056"
     inkscape:window-x="65"
     inkscape:window-y="24"
     inkscape:window-maximized="1" />
  <metadata
     id="metadata7">
    <rdf:RDF>
      <cc:Work
         rdf:about="">
        <dc:format>image/svg+xml</dc:format>
        <dc:type
           rdf:resource="http://purl.org/dc/dcmitype/StillImage" />
        <dc:title></dc:title>
      </cc:Work>
    </rdf:RDF>
  </metadata>
  <g
     inkscape:label="Layer 1"
     inkscape:groupmode="layer"
     id="layer1"
     style="display:inline">
    <path
       style="fill:none;fill-rule:evenodd;stroke:#000000;stroke-width:1.31018364px;stroke-linecap:butt;stroke-linejoin:miter;stroke-opacity:1"
       d="m 29.004102,25.45825 572.703018,0 0,618.76856 -572.705568,0 z"
       id="path3386"
       inkscape:connector-curvature="0" />
    <path
       style="fill:none;fill-rule:evenodd;stroke:#000000;stroke-width:1.3931396px;stroke-linecap:butt;stroke-linejoin:miter;stroke-opacity:1"
       d="m 277.64955,264.67295 95.75251,0 0,140.33914 -95.75251,0 z"
       id="path3388"
       inkscape:connector-curvature="0" />
    <path
       style="fill:none;fill-opacity:1;stroke:#000000;stroke-width:0.83174253;stroke-miterlimit:4;stroke-dasharray:none;stroke-dashoffset:0;stroke-opacity:1"
       d="m 43.875464,634.25195 a 4.8990889,4.8990893 0 0 1 -4.899088,4.89909 4.8990889,4.8990893 0 0 1 -4.899089,-4.89909 4.8990889,4.8990893 0 0 1 4.899089,-4.89909 4.8990889,4.8990893 0 0 1 4.899088,4.89909 z"
       id="path4207" />
    <path
       style="display:inline;fill:none;fill-opacity:1;stroke:#000000;stroke-width:0.83174253;stroke-miterlimit:4;stroke-dasharray:none;stroke-dashoffset:0;stroke-opacity:1"
       d="m 43.875464,611.22046 a 4.8990889,4.8990893 0 0 1 -4.899088,4.89909 4.8990889,4.8990893 0 0 1 -4.899089,-4.89909 4.8990889,4.8990893 0 0 1 4.899089,-4.89909 4.8990889,4.8990893 0 0 1 4.899088,4.89909 z"
       id="path4207-1" />
    <path
       style="display:inline;fill:none;fill-opacity:1;stroke:#000000;stroke-width:0.83174253;stroke-miterlimit:4;stroke-dasharray:none;stroke-dashoffset:0;stroke-opacity:1"
       d="m 43.875464,35.433071 a 4.8990889,4.8990893 0 0 1 -4.899088,4.899089 4.8990889,4.8990893 0 0 1 -4.899089,-4.899089 4.8990889,4.8990893 0 0 1 4.899089,-4.899089 4.8990889,4.8990893 0 0 1 4.899088,4.899089 z"
       id="path4207-1-3" />
    <path
       style="display:inline;fill:none;fill-opacity:1;stroke:#000000;stroke-width:0.83174253;stroke-miterlimit:4;stroke-dasharray:none;stroke-dashoffset:0;stroke-opacity:1"
       d="m 43.875464,58.464565 a 4.8990889,4.8990893 0 0 1 -4.899088,4.89909 4.8990889,4.8990893 0 0 1 -4.899089,-4.89909 4.8990889,4.8990893 0 0 1 4.899089,-4.899089 4.8990889,4.8990893 0 0 1 4.899088,4.899089 z"
       id="path4207-1-33" />
    <path
       style="display:inline;fill:none;fill-opacity:1;stroke:#000000;stroke-width:0.83174253;stroke-miterlimit:4;stroke-dasharray:none;stroke-dashoffset:0;stroke-opacity:1"
       d="m 217.49751,634.25195 a 4.8990889,4.8990893 0 0 1 -4.89909,4.89909 4.8990889,4.8990893 0 0 1 -4.89909,-4.89909 4.8990889,4.8990893 0 0 1 4.89909,-4.89909 4.8990889,4.8990893 0 0 1 4.89909,4.89909 z"
       id="path4207-1-8" />
    <path
       style="display:inline;fill:none;fill-opacity:1;stroke:#000000;stroke-width:0.83174253;stroke-miterlimit:4;stroke-dasharray:none;stroke-dashoffset:0;stroke-opacity:1"
       d="m 419.46601,634.25195 a 4.8990889,4.8990893 0 0 1 -4.89908,4.89909 4.8990889,4.8990893 0 0 1 -4.89909,-4.89909 4.8990889,4.8990893 0 0 1 4.89909,-4.89909 4.8990889,4.8990893 0 0 1 4.89908,4.89909 z"
       id="path4207-1-5" />
    <path
       style="display:inline;fill:none;fill-opacity:1;stroke:#000000;stroke-width:0.83174253;stroke-miterlimit:4;stroke-dasharray:none;stroke-dashoffset:0;stroke-opacity:1"
       d="m 596.63139,634.25195 a 4.8990889,4.8990893 0 0 1 -4.89909,4.89909 4.8990889,4.8990893 0 0 1 -4.89909,-4.89909 4.8990889,4.8990893 0 0 1 4.89909,-4.89909 4.8990889,4.8990893 0 0 1 4.89909,4.89909 z"
       id="path4207-1-1" />
    <path
       style="display:inline;fill:none;fill-opacity:1;stroke:#000000;stroke-width:0.83174253;stroke-miterlimit:4;stroke-dasharray:none;stroke-dashoffset:0;stroke-opacity:1"
       d="m 596.63139,611.22046 a 4.8990889,4.8990893 0 0 1 -4.89909,4.89909 4.8990889,4.8990893 0 0 1 -4.89909,-4.89909 4.8990889,4.8990893 0 0 1 4.89909,-4.89909 4.8990889,4.8990893 0 0 1 4.89909,4.89909 z"
       id="path4207-1-0" />
    <path
       style="display:inline;fill:none;fill-opacity:1;stroke:#000000;stroke-width:0.83174253;stroke-miterlimit:4;stroke-dasharray:none;stroke-dashoffset:0;stroke-opacity:1"
       d="m 217.49751,35.433071 a 4.8990889,4.8990893 0 0 1 -4.89909,4.899089 4.8990889,4.8990893 0 0 1 -4.89909,-4.899089 4.8990889,4.8990893 0 0 1 4.89909,-4.899089 4.8990889,4.8990893 0 0 1 4.89909,4.899089 z"
       id="path4207-1-87" />
    <path
       style="display:inline;fill:none;fill-opacity:1;stroke:#000000;stroke-width:0.83174253;stroke-miterlimit:4;stroke-dasharray:none;stroke-dashoffset:0;stroke-opacity:1"
       d="m 419.46601,35.433071 a 4.8990889,4.8990893 0 0 1 -4.89908,4.899089 4.8990889,4.8990893 0 0 1 -4.89909,-4.899089 4.8990889,4.8990893 0 0 1 4.89909,-4.899089 4.8990889,4.8990893 0 0 1 4.89908,4.899089 z"
       id="path4207-1-6" />
    <path
       style="display:inline;fill:none;fill-opacity:1;stroke:#000000;stroke-width:0.83174253;stroke-miterlimit:4;stroke-dasharray:none;stroke-dashoffset:0;stroke-opacity:1"
       d="m 596.63139,35.433071 a 4.8990889,4.8990893 0 0 1 -4.89909,4.899089 4.8990889,4.8990893 0 0 1 -4.89909,-4.899089 4.8990889,4.8990893 0 0 1 4.89909,-4.899089 4.8990889,4.8990893 0 0 1 4.89909,4.899089 z"
       id="path4207-1-35" />
    <path
       style="display:inline;fill:none;fill-opacity:1;stroke:#000000;stroke-width:0.83174253;stroke-miterlimit:4;stroke-dasharray:none;stroke-dashoffset:0;stroke-opacity:1"
       d="m 596.63139,58.464565 a 4.8990889,4.8990893 0 0 1 -4.89909,4.89909 4.8990889,4.8990893 0 0 1 -4.89909,-4.89909 4.8990889,4.8990893 0 0 1 4.89909,-4.899089 4.8990889,4.8990893 0 0 1 4.89909,4.899089 z"
       id="path4207-1-08" />
    <path
       style="display:inline;fill:none;fill-opacity:1;stroke:#000000;stroke-width:0.83174253;stroke-miterlimit:4;stroke-dasharray:none;stroke-dashoffset:0;stroke-opacity:1"
       d="m 500.96208,373.81891 a 4.8990893,4.8990893 0 0 1 -4.89909,4.89909 4.8990893,4.8990893 0 0 1 -4.89909,-4.89909 4.8990893,4.8990893 0 0 1 4.89909,-4.89909 4.8990893,4.8990893 0 0 1 4.89909,4.89909 z"
       id="path4207-1-33-3" />
    <path
       style="display:inline;fill:none;fill-opacity:1;stroke:#000000;stroke-width:0.83174253;stroke-miterlimit:4;stroke-dasharray:none;stroke-dashoffset:0;stroke-opacity:1"
       d="m 433.63923,373.81891 a 4.8990893,4.8990893 0 0 1 -4.89909,4.89909 4.8990893,4.8990893 0 0 1 -4.89909,-4.89909 4.8990893,4.8990893 0 0 1 4.89909,-4.89909 4.8990893,4.8990893 0 0 1 4.89909,4.89909 z"
       id="path4207-1-33-3-6" />
    <path
       style="display:inline;fill:none;fill-opacity:1;stroke:#000000;stroke-width:0.83174253;stroke-miterlimit:4;stroke-dasharray:none;stroke-dashoffset:0;stroke-opacity:1"
       d="m 100.56838,470.01968 a 4.8990893,4.8990893 0 0 1 -4.899091,4.89909 4.8990893,4.8990893 0 0 1 -4.89909,-4.89909 4.8990893,4.8990893 0 0 1 4.89909,-4.89909 4.8990893,4.8990893 0 0 1 4.899091,4.89909 z"
       id="path4207-1-33-3-6-3" />
    <path
       style="display:inline;fill:none;fill-opacity:1;stroke:#000000;stroke-width:0.83174253;stroke-miterlimit:4;stroke-dasharray:none;stroke-dashoffset:0;stroke-opacity:1"
       d="m 186.67074,470.01968 a 4.8990893,4.8990893 0 0 1 -4.89909,4.89909 4.8990893,4.8990893 0 0 1 -4.89909,-4.89909 4.8990893,4.8990893 0 0 1 4.89909,-4.89909 4.8990893,4.8990893 0 0 1 4.89909,4.89909 z"
       id="path4207-1-33-3-6-6" />
    <path
       style="display:inline;fill:none;fill-opacity:1;stroke:#000000;stroke-width:0.83174253;stroke-miterlimit:4;stroke-dasharray:none;stroke-dashoffset:0;stroke-opacity:1"
       d="m 100.56838,199.66536 a 4.8990893,4.8990893 0 0 1 -4.899091,4.89909 4.8990893,4.8990893 0 0 1 -4.89909,-4.89909 4.8990893,4.8990893 0 0 1 4.89909,-4.89909 4.8990893,4.8990893 0 0 1 4.899091,4.89909 z"
       id="path4207-1-33-3-6-3-7" />
    <path
       style="display:inline;fill:none;fill-opacity:1;stroke:#000000;stroke-width:0.83174253;stroke-miterlimit:4;stroke-dasharray:none;stroke-dashoffset:0;stroke-opacity:1"
       d="m 186.67074,199.66536 a 4.8990893,4.8990893 0 0 1 -4.89909,4.89909 4.8990893,4.8990893 0 0 1 -4.89909,-4.89909 4.8990893,4.8990893 0 0 1 4.89909,-4.89909 4.8990893,4.8990893 0 0 1 4.89909,4.89909 z"
       id="path4207-1-33-3-6-3-5" />
    <path
       style="display:inline;fill:none;fill-opacity:1;stroke:#000000;stroke-width:0.83174253;stroke-miterlimit:4;stroke-dasharray:none;stroke-dashoffset:0;stroke-opacity:1"
       d="m 433.63923,295.86615 a 4.8990893,4.8990893 0 0 1 -4.89909,4.89909 4.8990893,4.8990893 0 0 1 -4.89909,-4.89909 4.8990893,4.8990893 0 0 1 4.89909,-4.89909 4.8990893,4.8990893 0 0 1 4.89909,4.89909 z"
       id="path4207-1-33-3-7" />
    <path
       style="display:inline;fill:none;fill-opacity:1;stroke:#000000;stroke-width:0.83174253;stroke-miterlimit:4;stroke-dasharray:none;stroke-dashoffset:0;stroke-opacity:1"
       d="m 500.96208,295.86615 a 4.8990893,4.8990893 0 0 1 -4.89909,4.89909 4.8990893,4.8990893 0 0 1 -4.89909,-4.89909 4.8990893,4.8990893 0 0 1 4.89909,-4.89909 4.8990893,4.8990893 0 0 1 4.89909,4.89909 z"
       id="path4207-1-33-3-5" />
    <path
       style="display:inline;fill:none;fill-opacity:1;stroke:#000000;stroke-width:0.69311875;stroke-miterlimit:4;stroke-dasharray:none;stroke-dashoffset:0;stroke-opacity:1"
       d="m 267.17312,608.56299 a 4.0825744,4.0825744 0 0 1 -4.08257,4.08257 4.0825744,4.0825744 0 0 1 -4.08258,-4.08257 4.0825744,4.0825744 0 0 1 4.08258,-4.08258 4.0825744,4.0825744 0 0 1 4.08257,4.08258 z"
       id="path4207-1-33-3-6-35" />
    <path
       style="display:inline;fill:none;fill-opacity:1;stroke:#000000;stroke-width:0.69311875;stroke-miterlimit:4;stroke-dasharray:none;stroke-dashoffset:0;stroke-opacity:1"
       d="m 267.17312,434.94095 a 4.0825744,4.0825744 0 0 1 -4.08257,4.08257 4.0825744,4.0825744 0 0 1 -4.08258,-4.08257 4.0825744,4.0825744 0 0 1 4.08258,-4.08258 4.0825744,4.0825744 0 0 1 4.08257,4.08258 z"
       id="path4207-1-33-3-6-35-9" />
    <path
       style="display:inline;fill:none;fill-opacity:1;stroke:#000000;stroke-width:0.69311875;stroke-miterlimit:4;stroke-dasharray:none;stroke-dashoffset:0;stroke-opacity:1"
       d="m 472.68493,434.94095 a 4.0825744,4.0825744 0 0 1 -4.08257,4.08257 4.0825744,4.0825744 0 0 1 -4.08258,-4.08257 4.0825744,4.0825744 0 0 1 4.08258,-4.08258 4.0825744,4.0825744 0 0 1 4.08257,4.08258 z"
       id="path4207-1-33-3-6-35-1" />
    <path
       style="display:inline;fill:none;fill-opacity:1;stroke:#000000;stroke-width:0.69311875;stroke-miterlimit:4;stroke-dasharray:none;stroke-dashoffset:0;stroke-opacity:1"
       d="m 472.68493,608.56299 a 4.0825744,4.0825744 0 0 1 -4.08257,4.08257 4.0825744,4.0825744 0 0 1 -4.08258,-4.08257 4.0825744,4.0825744 0 0 1 4.08258,-4.08258 4.0825744,4.0825744 0 0 1 4.08257,4.08258 z"
       id="path4207-1-33-3-6-35-2" />
  </g>
</svg>
