  0
SECTION
  2
HEADER
  9
$ACADVER
  1
AC1014
  9
$HANDSEED
  5
FFFF
  9
$MEASUREMENT
 70
     1
  0
ENDSEC
  0
SECTION
  2
TABLES
  0
TABLE
  2
VPORT
  5
8
330
0
100
AcDbSymbolTable
 70
     4
  0
VPORT
  5
2E
330
8
100
AcDbSymbolTableRecord
100
AcDbViewportTableRecord
  2
*ACTIVE
 70
     0
 10
0.0
 20
0.0
 11
1.0
 21
1.0
 12
210.0
 22
148.5
 13
0.0
 23
0.0
 14
10.0
 24
10.0
 15
10.0
 25
10.0
 16
0.0
 26
0.0
 36
1.0
 17
0.0
 27
0.0
 37
0.0
 40
341.0
 41
1.24
 42
50.0
 43
0.0
 44
0.0
 50
0.0
 51
0.0
 71
     0
 72
   100
 73
     1
 74
     3
 75
     0
 76
     0
 77
     0
 78
     0
  0
ENDTAB
  0
TABLE
  2
LTYPE
  5
5
330
0
100
AcDbSymbolTable
 70
     1
  0
LTYPE
  5
14
330
5
100
AcDbSymbolTableRecord
100
AcDbLinetypeTableRecord
  2
BYBLOCK
 70
     0
  3

 72
    65
 73
     0
 40
0.0
  0
LTYPE
  5
15
330
5
100
AcDbSymbolTableRecord
100
AcDbLinetypeTableRecord
  2
BYLAYER
 70
     0
  3

 72
    65
 73
     0
 40
0.0
  0
LTYPE
  5
16
330
5
100
AcDbSymbolTableRecord
100
AcDbLinetypeTableRecord
  2
CONTINUOUS
 70
     0
  3
Solid line
 72
    65
 73
     0
 40
0.0
  0
ENDTAB
  0
TABLE
  2
LAYER
  5
2
100
AcDbSymbolTable
 70
2
  0
LAYER
  5
50
100
AcDbSymbolTableRecord
100
AcDbLayerTableRecord
  2
0
 70
0
  6
CONTINUOUS
  0
LAYER
  5
51
100
AcDbSymbolTableRecord
100
AcDbLayerTableRecord
  2
Layer_1
 70
0
  6
CONTINUOUS
  0
ENDTAB
  0
TABLE
  2
STYLE
  5
3
330
0
100
AcDbSymbolTable
 70
     1
  0
STYLE
  5
11
330
3
100
AcDbSymbolTableRecord
100
AcDbTextStyleTableRecord
  2
STANDARD
 70
     0
 40
0.0
 41
1.0
 50
0.0
 71
     0
 42
2.5
  3
txt
  4

  0
ENDTAB
  0
TABLE
  2
VIEW
  5
6
330
0
100
AcDbSymbolTable
 70
     0
  0
ENDTAB
  0
TABLE
  2
UCS
  5
7
330
0
100
AcDbSymbolTable
 70
     0
  0
ENDTAB
  0
TABLE
  2
APPID
  5
9
330
0
100
AcDbSymbolTable
 70
     2
  0
APPID
  5
12
330
9
100
AcDbSymbolTableRecord
100
AcDbRegAppTableRecord
  2
ACAD
 70
     0
  0
ENDTAB
  0
TABLE
  2
DIMSTYLE
  5
A
330
0
100
AcDbSymbolTable
 70
     1
  0
DIMSTYLE
105
27
330
A
100
AcDbSymbolTableRecord
100
AcDbDimStyleTableRecord
  2
ISO-25
 70
     0
  3

  4

  5

  6

  7

 40
1.0
 41
2.5
 42
0.625
 43
3.75
 44
1.25
 45
0.0
 46
0.0
 47
0.0
 48
0.0
140
2.5
141
2.5
142
0.0
143
0.03937007874016
144
1.0
145
0.0
146
1.0
147
0.625
 71
     0
 72
     0
 73
     0
 74
     0
 75
     0
 76
     0
 77
     1
 78
     8
170
     0
171
     3
172
     1
173
     0
174
     0
175
     0
176
     0
177
     0
178
     0
270
     2
271
     2
272
     2
273
     2
274
     3
340
11
275
     0
280
     0
281
     0
282
     0
283
     0
284
     8
285
     0
286
     0
287
     3
288
     0
  0
ENDTAB
  0
TABLE
  2
BLOCK_RECORD
  5
1
330
0
100
AcDbSymbolTable
 70
     1
  0
BLOCK_RECORD
  5
1F
330
1
100
AcDbSymbolTableRecord
100
AcDbBlockTableRecord
  2
*MODEL_SPACE
  0
BLOCK_RECORD
  5
1B
330
1
100
AcDbSymbolTableRecord
100
AcDbBlockTableRecord
  2
*PAPER_SPACE
  0
ENDTAB
  0
ENDSEC
  0
SECTION
  2
BLOCKS
  0
BLOCK
  5
20
330
1F
100
AcDbEntity
  8
0
100
AcDbBlockBegin
  2
*MODEL_SPACE
 70
     0
 10
0.0
 20
0.0
 30
0.0
  3
*MODEL_SPACE
  1

  0
ENDBLK
  5
21
330
1F
100
AcDbEntity
  8
0
100
AcDbBlockEnd
  0
BLOCK
  5
1C
330
1B
100
AcDbEntity
 67
     1
  8
0
100
AcDbBlockBegin
  2
*PAPER_SPACE
  1

  0
ENDBLK
  5
1D
330
1B
100
AcDbEntity
 67
     1
  8
0
100
AcDbBlockEnd
  0
ENDSEC
  0
SECTION
  2
ENTITIES
  0
LINE
  5
100
100
AcDbEntity
  8
Layer_1
 62
7
100
AcDbLine
 10
8.184543
 20
287.816177
 30
0.0
 11
169.816179
 21
287.816177
 31
0.0
  0
LINE
  5
101
100
AcDbEntity
  8
Layer_1
 62
7
100
AcDbLine
 10
169.816179
 20
287.816177
 30
0.0
 11
169.816179
 21
115.183820
 31
0.0
  0
LINE
  5
102
100
AcDbEntity
  8
Layer_1
 62
7
100
AcDbLine
 10
169.816179
 20
115.183820
 30
0.0
 11
8.183823
 21
115.183820
 31
0.0
  0
LINE
  5
103
100
AcDbEntity
  8
Layer_1
 62
7
100
AcDbLine
 10
8.183823
 20
115.183820
 30
0.0
 11
8.184543
 21
287.816177
 31
0.0
  0
LINE
  5
104
100
AcDbEntity
  8
Layer_1
 62
7
100
AcDbLine
 10
87.744136
 20
219.727372
 30
0.0
 11
100.396209
 21
219.727372
 31
0.0
  0
LINE
  5
105
100
AcDbEntity
  8
Layer_1
 62
7
100
AcDbLine
 10
100.396209
 20
219.727372
 30
0.0
 11
100.396209
 21
153.483182
 31
0.0
  0
LINE
  5
106
100
AcDbEntity
  8
Layer_1
 62
7
100
AcDbLine
 10
100.396209
 20
153.483182
 30
0.0
 11
87.744136
 21
153.483182
 31
0.0
  0
LINE
  5
107
100
AcDbEntity
  8
Layer_1
 62
7
100
AcDbLine
 10
87.744136
 20
153.483182
 30
0.0
 11
87.744136
 21
219.727372
 31
0.0
  0
SPLINE
  5
108
100
AcDbEntity
  8
Layer_1
 62
7
100
AcDbSpline
 70
8
 71
3
 72
8
 73
4
 74
0
 40
0
 40
0
 40
0
 40
0
 40
1
 40
1
 40
1
 40
1
 10
12.382631
 20
118.000005
 30
0.0
 10
12.382631
 20
117.236399
 30
0.0
 10
11.763606
 20
116.617373
 30
0.0
 10
10.999999
 20
116.617373
 30
0.0
  0
SPLINE
  5
109
100
AcDbEntity
  8
Layer_1
 62
7
100
AcDbSpline
 70
8
 71
3
 72
8
 73
4
 74
0
 40
0
 40
0
 40
0
 40
0
 40
1
 40
1
 40
1
 40
1
 10
10.999999
 20
116.617373
 30
0.0
 10
10.633303
 20
116.617373
 30
0.0
 10
10.281625
 20
116.763043
 30
0.0
 10
10.022331
 20
117.022337
 30
0.0
  0
SPLINE
  5
10a
100
AcDbEntity
  8
Layer_1
 62
7
100
AcDbSpline
 70
8
 71
3
 72
8
 73
4
 74
0
 40
0
 40
0
 40
0
 40
0
 40
1
 40
1
 40
1
 40
1
 10
10.022331
 20
117.022337
 30
0.0
 10
9.763037
 20
117.281631
 30
0.0
 10
9.617368
 20
117.633308
 30
0.0
 10
9.617368
 20
118.000005
 30
0.0
  0
SPLINE
  5
10b
100
AcDbEntity
  8
Layer_1
 62
7
100
AcDbSpline
 70
8
 71
3
 72
8
 73
4
 74
0
 40
0
 40
0
 40
0
 40
0
 40
1
 40
1
 40
1
 40
1
 10
9.617368
 20
118.000005
 30
0.0
 10
9.617368
 20
118.366702
 30
0.0
 10
9.763037
 20
118.718380
 30
0.0
 10
10.022331
 20
118.977674
 30
0.0
  0
SPLINE
  5
10c
100
AcDbEntity
  8
Layer_1
 62
7
100
AcDbSpline
 70
8
 71
3
 72
8
 73
4
 74
0
 40
0
 40
0
 40
0
 40
0
 40
1
 40
1
 40
1
 40
1
 10
10.022331
 20
118.977674
 30
0.0
 10
10.281625
 20
119.236968
 30
0.0
 10
10.633303
 20
119.382637
 30
0.0
 10
10.999999
 20
119.382637
 30
0.0
  0
SPLINE
  5
10d
100
AcDbEntity
  8
Layer_1
 62
7
100
AcDbSpline
 70
8
 71
3
 72
8
 73
4
 74
0
 40
0
 40
0
 40
0
 40
0
 40
1
 40
1
 40
1
 40
1
 10
10.999999
 20
119.382637
 30
0.0
 10
11.763606
 20
119.382637
 30
0.0
 10
12.382631
 20
118.763612
 30
0.0
 10
12.382631
 20
118.000005
 30
0.0
  0
LINE
  5
10e
100
AcDbEntity
  8
Layer_1
 62
7
100
AcDbLine
 10
12.382631
 20
118.000005
 30
0.0
 11
12.382631
 21
118.000005
 31
0.0
  0
SPLINE
  5
10f
100
AcDbEntity
  8
Layer_1
 62
7
100
AcDbSpline
 70
8
 71
3
 72
8
 73
4
 74
0
 40
0
 40
0
 40
0
 40
0
 40
1
 40
1
 40
1
 40
1
 10
12.382631
 20
124.500004
 30
0.0
 10
12.382631
 20
123.736397
 30
0.0
 10
11.763606
 20
123.117372
 30
0.0
 10
10.999999
 20
123.117371
 30
0.0
  0
SPLINE
  5
110
100
AcDbEntity
  8
Layer_1
 62
7
100
AcDbSpline
 70
8
 71
3
 72
8
 73
4
 74
0
 40
0
 40
0
 40
0
 40
0
 40
1
 40
1
 40
1
 40
1
 10
10.999999
 20
123.117371
 30
0.0
 10
10.633303
 20
123.117371
 30
0.0
 10
10.281625
 20
123.263041
 30
0.0
 10
10.022331
 20
123.522335
 30
0.0
  0
SPLINE
  5
111
100
AcDbEntity
  8
Layer_1
 62
7
100
AcDbSpline
 70
8
 71
3
 72
8
 73
4
 74
0
 40
0
 40
0
 40
0
 40
0
 40
1
 40
1
 40
1
 40
1
 10
10.022331
 20
123.522335
 30
0.0
 10
9.763037
 20
123.781629
 30
0.0
 10
9.617368
 20
124.133307
 30
0.0
 10
9.617368
 20
124.500004
 30
0.0
  0
SPLINE
  5
112
100
AcDbEntity
  8
Layer_1
 62
7
100
AcDbSpline
 70
8
 71
3
 72
8
 73
4
 74
0
 40
0
 40
0
 40
0
 40
0
 40
1
 40
1
 40
1
 40
1
 10
9.617368
 20
124.500004
 30
0.0
 10
9.617368
 20
124.866700
 30
0.0
 10
9.763037
 20
125.218378
 30
0.0
 10
10.022331
 20
125.477672
 30
0.0
  0
SPLINE
  5
113
100
AcDbEntity
  8
Layer_1
 62
7
100
AcDbSpline
 70
8
 71
3
 72
8
 73
4
 74
0
 40
0
 40
0
 40
0
 40
0
 40
1
 40
1
 40
1
 40
1
 10
10.022331
 20
125.477672
 30
0.0
 10
10.281625
 20
125.736966
 30
0.0
 10
10.633303
 20
125.882636
 30
0.0
 10
10.999999
 20
125.882636
 30
0.0
  0
SPLINE
  5
114
100
AcDbEntity
  8
Layer_1
 62
7
100
AcDbSpline
 70
8
 71
3
 72
8
 73
4
 74
0
 40
0
 40
0
 40
0
 40
0
 40
1
 40
1
 40
1
 40
1
 10
10.999999
 20
125.882636
 30
0.0
 10
11.763606
 20
125.882635
 30
0.0
 10
12.382631
 20
125.263610
 30
0.0
 10
12.382631
 20
124.500004
 30
0.0
  0
LINE
  5
115
100
AcDbEntity
  8
Layer_1
 62
7
100
AcDbLine
 10
12.382631
 20
124.500004
 30
0.0
 11
12.382631
 21
124.500004
 31
0.0
  0
SPLINE
  5
116
100
AcDbEntity
  8
Layer_1
 62
7
100
AcDbSpline
 70
8
 71
3
 72
8
 73
4
 74
0
 40
0
 40
0
 40
0
 40
0
 40
1
 40
1
 40
1
 40
1
 10
12.382631
 20
285.000000
 30
0.0
 10
12.382631
 20
284.236394
 30
0.0
 10
11.763606
 20
283.617369
 30
0.0
 10
10.999999
 20
283.617369
 30
0.0
  0
SPLINE
  5
117
100
AcDbEntity
  8
Layer_1
 62
7
100
AcDbSpline
 70
8
 71
3
 72
8
 73
4
 74
0
 40
0
 40
0
 40
0
 40
0
 40
1
 40
1
 40
1
 40
1
 10
10.999999
 20
283.617369
 30
0.0
 10
10.236393
 20
283.617368
 30
0.0
 10
9.617368
 20
284.236394
 30
0.0
 10
9.617368
 20
285.000000
 30
0.0
  0
SPLINE
  5
118
100
AcDbEntity
  8
Layer_1
 62
7
100
AcDbSpline
 70
8
 71
3
 72
8
 73
4
 74
0
 40
0
 40
0
 40
0
 40
0
 40
1
 40
1
 40
1
 40
1
 10
9.617368
 20
285.000000
 30
0.0
 10
9.617368
 20
285.763607
 30
0.0
 10
10.236393
 20
286.382632
 30
0.0
 10
10.999999
 20
286.382632
 30
0.0
  0
SPLINE
  5
119
100
AcDbEntity
  8
Layer_1
 62
7
100
AcDbSpline
 70
8
 71
3
 72
8
 73
4
 74
0
 40
0
 40
0
 40
0
 40
0
 40
1
 40
1
 40
1
 40
1
 10
10.999999
 20
286.382632
 30
0.0
 10
11.763606
 20
286.382632
 30
0.0
 10
12.382631
 20
285.763607
 30
0.0
 10
12.382631
 20
285.000000
 30
0.0
  0
LINE
  5
11a
100
AcDbEntity
  8
Layer_1
 62
7
100
AcDbLine
 10
12.382631
 20
285.000000
 30
0.0
 11
12.382631
 21
285.000000
 31
0.0
  0
SPLINE
  5
11b
100
AcDbEntity
  8
Layer_1
 62
7
100
AcDbSpline
 70
8
 71
3
 72
8
 73
4
 74
0
 40
0
 40
0
 40
0
 40
0
 40
1
 40
1
 40
1
 40
1
 10
12.382631
 20
278.500001
 30
0.0
 10
12.382631
 20
277.736395
 30
0.0
 10
11.763606
 20
277.117369
 30
0.0
 10
10.999999
 20
277.117369
 30
0.0
  0
SPLINE
  5
11c
100
AcDbEntity
  8
Layer_1
 62
7
100
AcDbSpline
 70
8
 71
3
 72
8
 73
4
 74
0
 40
0
 40
0
 40
0
 40
0
 40
1
 40
1
 40
1
 40
1
 10
10.999999
 20
277.117369
 30
0.0
 10
10.236393
 20
277.117369
 30
0.0
 10
9.617368
 20
277.736394
 30
0.0
 10
9.617368
 20
278.500001
 30
0.0
  0
SPLINE
  5
11d
100
AcDbEntity
  8
Layer_1
 62
7
100
AcDbSpline
 70
8
 71
3
 72
8
 73
4
 74
0
 40
0
 40
0
 40
0
 40
0
 40
1
 40
1
 40
1
 40
1
 10
9.617368
 20
278.500001
 30
0.0
 10
9.617368
 20
279.263607
 30
0.0
 10
10.236393
 20
279.882633
 30
0.0
 10
10.999999
 20
279.882633
 30
0.0
  0
SPLINE
  5
11e
100
AcDbEntity
  8
Layer_1
 62
7
100
AcDbSpline
 70
8
 71
3
 72
8
 73
4
 74
0
 40
0
 40
0
 40
0
 40
0
 40
1
 40
1
 40
1
 40
1
 10
10.999999
 20
279.882633
 30
0.0
 10
11.763606
 20
279.882633
 30
0.0
 10
12.382631
 20
279.263607
 30
0.0
 10
12.382631
 20
278.500001
 30
0.0
  0
LINE
  5
11f
100
AcDbEntity
  8
Layer_1
 62
7
100
AcDbLine
 10
12.382631
 20
278.500001
 30
0.0
 11
12.382631
 21
278.500001
 31
0.0
  0
SPLINE
  5
120
100
AcDbEntity
  8
Layer_1
 62
7
100
AcDbSpline
 70
8
 71
3
 72
8
 73
4
 74
0
 40
0
 40
0
 40
0
 40
0
 40
1
 40
1
 40
1
 40
1
 10
61.382631
 20
118.000005
 30
0.0
 10
61.382631
 20
117.633308
 30
0.0
 10
61.236961
 20
117.281630
 30
0.0
 10
60.977667
 20
117.022337
 30
0.0
  0
SPLINE
  5
121
100
AcDbEntity
  8
Layer_1
 62
7
100
AcDbSpline
 70
8
 71
3
 72
8
 73
4
 74
0
 40
0
 40
0
 40
0
 40
0
 40
1
 40
1
 40
1
 40
1
 10
60.977667
 20
117.022337
 30
0.0
 10
60.718373
 20
116.763043
 30
0.0
 10
60.366695
 20
116.617373
 30
0.0
 10
59.999999
 20
116.617373
 30
0.0
  0
SPLINE
  5
122
100
AcDbEntity
  8
Layer_1
 62
7
100
AcDbSpline
 70
8
 71
3
 72
8
 73
4
 74
0
 40
0
 40
0
 40
0
 40
0
 40
1
 40
1
 40
1
 40
1
 10
59.999999
 20
116.617373
 30
0.0
 10
59.633302
 20
116.617373
 30
0.0
 10
59.281624
 20
116.763043
 30
0.0
 10
59.022330
 20
117.022337
 30
0.0
  0
SPLINE
  5
123
100
AcDbEntity
  8
Layer_1
 62
7
100
AcDbSpline
 70
8
 71
3
 72
8
 73
4
 74
0
 40
0
 40
0
 40
0
 40
0
 40
1
 40
1
 40
1
 40
1
 10
59.022330
 20
117.022337
 30
0.0
 10
58.763036
 20
117.281630
 30
0.0
 10
58.617366
 20
117.633308
 30
0.0
 10
58.617366
 20
118.000005
 30
0.0
  0
SPLINE
  5
124
100
AcDbEntity
  8
Layer_1
 62
7
100
AcDbSpline
 70
8
 71
3
 72
8
 73
4
 74
0
 40
0
 40
0
 40
0
 40
0
 40
1
 40
1
 40
1
 40
1
 10
58.617366
 20
118.000005
 30
0.0
 10
58.617366
 20
118.366702
 30
0.0
 10
58.763036
 20
118.718380
 30
0.0
 10
59.022330
 20
118.977674
 30
0.0
  0
SPLINE
  5
125
100
AcDbEntity
  8
Layer_1
 62
7
100
AcDbSpline
 70
8
 71
3
 72
8
 73
4
 74
0
 40
0
 40
0
 40
0
 40
0
 40
1
 40
1
 40
1
 40
1
 10
59.022330
 20
118.977674
 30
0.0
 10
59.281624
 20
119.236968
 30
0.0
 10
59.633302
 20
119.382637
 30
0.0
 10
59.999999
 20
119.382637
 30
0.0
  0
SPLINE
  5
126
100
AcDbEntity
  8
Layer_1
 62
7
100
AcDbSpline
 70
8
 71
3
 72
8
 73
4
 74
0
 40
0
 40
0
 40
0
 40
0
 40
1
 40
1
 40
1
 40
1
 10
59.999999
 20
119.382637
 30
0.0
 10
60.366695
 20
119.382637
 30
0.0
 10
60.718373
 20
119.236968
 30
0.0
 10
60.977667
 20
118.977674
 30
0.0
  0
SPLINE
  5
127
100
AcDbEntity
  8
Layer_1
 62
7
100
AcDbSpline
 70
8
 71
3
 72
8
 73
4
 74
0
 40
0
 40
0
 40
0
 40
0
 40
1
 40
1
 40
1
 40
1
 10
60.977667
 20
118.977674
 30
0.0
 10
61.236961
 20
118.718380
 30
0.0
 10
61.382631
 20
118.366702
 30
0.0
 10
61.382631
 20
118.000005
 30
0.0
  0
LINE
  5
128
100
AcDbEntity
  8
Layer_1
 62
7
100
AcDbLine
 10
61.382631
 20
118.000005
 30
0.0
 11
61.382631
 21
118.000005
 31
0.0
  0
SPLINE
  5
129
100
AcDbEntity
  8
Layer_1
 62
7
100
AcDbSpline
 70
8
 71
3
 72
8
 73
4
 74
0
 40
0
 40
0
 40
0
 40
0
 40
1
 40
1
 40
1
 40
1
 10
118.382629
 20
118.000005
 30
0.0
 10
118.382630
 20
117.236400
 30
0.0
 10
117.763606
 20
116.617375
 30
0.0
 10
117.000000
 20
116.617373
 30
0.0
  0
SPLINE
  5
12a
100
AcDbEntity
  8
Layer_1
 62
7
100
AcDbSpline
 70
8
 71
3
 72
8
 73
4
 74
0
 40
0
 40
0
 40
0
 40
0
 40
1
 40
1
 40
1
 40
1
 10
117.000000
 20
116.617373
 30
0.0
 10
116.633303
 20
116.617373
 30
0.0
 10
116.281626
 20
116.763043
 30
0.0
 10
116.022332
 20
117.022337
 30
0.0
  0
SPLINE
  5
12b
100
AcDbEntity
  8
Layer_1
 62
7
100
AcDbSpline
 70
8
 71
3
 72
8
 73
4
 74
0
 40
0
 40
0
 40
0
 40
0
 40
1
 40
1
 40
1
 40
1
 10
116.022332
 20
117.022337
 30
0.0
 10
115.763038
 20
117.281630
 30
0.0
 10
115.617368
 20
117.633308
 30
0.0
 10
115.617368
 20
118.000005
 30
0.0
  0
SPLINE
  5
12c
100
AcDbEntity
  8
Layer_1
 62
7
100
AcDbSpline
 70
8
 71
3
 72
8
 73
4
 74
0
 40
0
 40
0
 40
0
 40
0
 40
1
 40
1
 40
1
 40
1
 10
115.617368
 20
118.000005
 30
0.0
 10
115.617368
 20
118.366702
 30
0.0
 10
115.763038
 20
118.718380
 30
0.0
 10
116.022332
 20
118.977674
 30
0.0
  0
SPLINE
  5
12d
100
AcDbEntity
  8
Layer_1
 62
7
100
AcDbSpline
 70
8
 71
3
 72
8
 73
4
 74
0
 40
0
 40
0
 40
0
 40
0
 40
1
 40
1
 40
1
 40
1
 10
116.022332
 20
118.977674
 30
0.0
 10
116.281626
 20
119.236968
 30
0.0
 10
116.633303
 20
119.382637
 30
0.0
 10
117.000000
 20
119.382637
 30
0.0
  0
SPLINE
  5
12e
100
AcDbEntity
  8
Layer_1
 62
7
100
AcDbSpline
 70
8
 71
3
 72
8
 73
4
 74
0
 40
0
 40
0
 40
0
 40
0
 40
1
 40
1
 40
1
 40
1
 10
117.000000
 20
119.382637
 30
0.0
 10
117.763606
 20
119.382636
 30
0.0
 10
118.382630
 20
118.763611
 30
0.0
 10
118.382629
 20
118.000005
 30
0.0
  0
LINE
  5
12f
100
AcDbEntity
  8
Layer_1
 62
7
100
AcDbLine
 10
118.382629
 20
118.000005
 30
0.0
 11
118.382629
 21
118.000005
 31
0.0
  0
SPLINE
  5
130
100
AcDbEntity
  8
Layer_1
 62
7
100
AcDbSpline
 70
8
 71
3
 72
8
 73
4
 74
0
 40
0
 40
0
 40
0
 40
0
 40
1
 40
1
 40
1
 40
1
 10
168.382637
 20
118.000005
 30
0.0
 10
168.382637
 20
117.633308
 30
0.0
 10
168.236967
 20
117.281630
 30
0.0
 10
167.977673
 20
117.022337
 30
0.0
  0
SPLINE
  5
131
100
AcDbEntity
  8
Layer_1
 62
7
100
AcDbSpline
 70
8
 71
3
 72
8
 73
4
 74
0
 40
0
 40
0
 40
0
 40
0
 40
1
 40
1
 40
1
 40
1
 10
167.977673
 20
117.022337
 30
0.0
 10
167.718379
 20
116.763043
 30
0.0
 10
167.366701
 20
116.617373
 30
0.0
 10
167.000005
 20
116.617373
 30
0.0
  0
SPLINE
  5
132
100
AcDbEntity
  8
Layer_1
 62
7
100
AcDbSpline
 70
8
 71
3
 72
8
 73
4
 74
0
 40
0
 40
0
 40
0
 40
0
 40
1
 40
1
 40
1
 40
1
 10
167.000005
 20
116.617373
 30
0.0
 10
166.633308
 20
116.617373
 30
0.0
 10
166.281630
 20
116.763043
 30
0.0
 10
166.022336
 20
117.022337
 30
0.0
  0
SPLINE
  5
133
100
AcDbEntity
  8
Layer_1
 62
7
100
AcDbSpline
 70
8
 71
3
 72
8
 73
4
 74
0
 40
0
 40
0
 40
0
 40
0
 40
1
 40
1
 40
1
 40
1
 10
166.022336
 20
117.022337
 30
0.0
 10
165.763042
 20
117.281630
 30
0.0
 10
165.617373
 20
117.633308
 30
0.0
 10
165.617373
 20
118.000005
 30
0.0
  0
SPLINE
  5
134
100
AcDbEntity
  8
Layer_1
 62
7
100
AcDbSpline
 70
8
 71
3
 72
8
 73
4
 74
0
 40
0
 40
0
 40
0
 40
0
 40
1
 40
1
 40
1
 40
1
 10
165.617373
 20
118.000005
 30
0.0
 10
165.617373
 20
118.366702
 30
0.0
 10
165.763042
 20
118.718380
 30
0.0
 10
166.022336
 20
118.977674
 30
0.0
  0
SPLINE
  5
135
100
AcDbEntity
  8
Layer_1
 62
7
100
AcDbSpline
 70
8
 71
3
 72
8
 73
4
 74
0
 40
0
 40
0
 40
0
 40
0
 40
1
 40
1
 40
1
 40
1
 10
166.022336
 20
118.977674
 30
0.0
 10
166.281630
 20
119.236968
 30
0.0
 10
166.633308
 20
119.382637
 30
0.0
 10
167.000005
 20
119.382637
 30
0.0
  0
SPLINE
  5
136
100
AcDbEntity
  8
Layer_1
 62
7
100
AcDbSpline
 70
8
 71
3
 72
8
 73
4
 74
0
 40
0
 40
0
 40
0
 40
0
 40
1
 40
1
 40
1
 40
1
 10
167.000005
 20
119.382637
 30
0.0
 10
167.366701
 20
119.382637
 30
0.0
 10
167.718379
 20
119.236968
 30
0.0
 10
167.977673
 20
118.977674
 30
0.0
  0
SPLINE
  5
137
100
AcDbEntity
  8
Layer_1
 62
7
100
AcDbSpline
 70
8
 71
3
 72
8
 73
4
 74
0
 40
0
 40
0
 40
0
 40
0
 40
1
 40
1
 40
1
 40
1
 10
167.977673
 20
118.977674
 30
0.0
 10
168.236967
 20
118.718380
 30
0.0
 10
168.382637
 20
118.366702
 30
0.0
 10
168.382637
 20
118.000005
 30
0.0
  0
LINE
  5
138
100
AcDbEntity
  8
Layer_1
 62
7
100
AcDbLine
 10
168.382637
 20
118.000005
 30
0.0
 11
168.382637
 21
118.000005
 31
0.0
  0
SPLINE
  5
139
100
AcDbEntity
  8
Layer_1
 62
7
100
AcDbSpline
 70
8
 71
3
 72
8
 73
4
 74
0
 40
0
 40
0
 40
0
 40
0
 40
1
 40
1
 40
1
 40
1
 10
168.382637
 20
124.500004
 30
0.0
 10
168.382637
 20
124.133307
 30
0.0
 10
168.236967
 20
123.781629
 30
0.0
 10
167.977673
 20
123.522335
 30
0.0
  0
SPLINE
  5
13a
100
AcDbEntity
  8
Layer_1
 62
7
100
AcDbSpline
 70
8
 71
3
 72
8
 73
4
 74
0
 40
0
 40
0
 40
0
 40
0
 40
1
 40
1
 40
1
 40
1
 10
167.977673
 20
123.522335
 30
0.0
 10
167.718379
 20
123.263041
 30
0.0
 10
167.366701
 20
123.117371
 30
0.0
 10
167.000005
 20
123.117371
 30
0.0
  0
SPLINE
  5
13b
100
AcDbEntity
  8
Layer_1
 62
7
100
AcDbSpline
 70
8
 71
3
 72
8
 73
4
 74
0
 40
0
 40
0
 40
0
 40
0
 40
1
 40
1
 40
1
 40
1
 10
167.000005
 20
123.117371
 30
0.0
 10
166.633308
 20
123.117371
 30
0.0
 10
166.281630
 20
123.263041
 30
0.0
 10
166.022336
 20
123.522335
 30
0.0
  0
SPLINE
  5
13c
100
AcDbEntity
  8
Layer_1
 62
7
100
AcDbSpline
 70
8
 71
3
 72
8
 73
4
 74
0
 40
0
 40
0
 40
0
 40
0
 40
1
 40
1
 40
1
 40
1
 10
166.022336
 20
123.522335
 30
0.0
 10
165.763042
 20
123.781629
 30
0.0
 10
165.617373
 20
124.133307
 30
0.0
 10
165.617373
 20
124.500004
 30
0.0
  0
SPLINE
  5
13d
100
AcDbEntity
  8
Layer_1
 62
7
100
AcDbSpline
 70
8
 71
3
 72
8
 73
4
 74
0
 40
0
 40
0
 40
0
 40
0
 40
1
 40
1
 40
1
 40
1
 10
165.617373
 20
124.500004
 30
0.0
 10
165.617373
 20
124.866700
 30
0.0
 10
165.763042
 20
125.218378
 30
0.0
 10
166.022336
 20
125.477672
 30
0.0
  0
SPLINE
  5
13e
100
AcDbEntity
  8
Layer_1
 62
7
100
AcDbSpline
 70
8
 71
3
 72
8
 73
4
 74
0
 40
0
 40
0
 40
0
 40
0
 40
1
 40
1
 40
1
 40
1
 10
166.022336
 20
125.477672
 30
0.0
 10
166.281630
 20
125.736966
 30
0.0
 10
166.633308
 20
125.882636
 30
0.0
 10
167.000005
 20
125.882636
 30
0.0
  0
SPLINE
  5
13f
100
AcDbEntity
  8
Layer_1
 62
7
100
AcDbSpline
 70
8
 71
3
 72
8
 73
4
 74
0
 40
0
 40
0
 40
0
 40
0
 40
1
 40
1
 40
1
 40
1
 10
167.000005
 20
125.882636
 30
0.0
 10
167.366701
 20
125.882636
 30
0.0
 10
167.718379
 20
125.736966
 30
0.0
 10
167.977673
 20
125.477672
 30
0.0
  0
SPLINE
  5
140
100
AcDbEntity
  8
Layer_1
 62
7
100
AcDbSpline
 70
8
 71
3
 72
8
 73
4
 74
0
 40
0
 40
0
 40
0
 40
0
 40
1
 40
1
 40
1
 40
1
 10
167.977673
 20
125.477672
 30
0.0
 10
168.236967
 20
125.218378
 30
0.0
 10
168.382637
 20
124.866700
 30
0.0
 10
168.382637
 20
124.500004
 30
0.0
  0
LINE
  5
141
100
AcDbEntity
  8
Layer_1
 62
7
100
AcDbLine
 10
168.382637
 20
124.500004
 30
0.0
 11
168.382637
 21
124.500004
 31
0.0
  0
SPLINE
  5
142
100
AcDbEntity
  8
Layer_1
 62
7
100
AcDbSpline
 70
8
 71
3
 72
8
 73
4
 74
0
 40
0
 40
0
 40
0
 40
0
 40
1
 40
1
 40
1
 40
1
 10
61.382631
 20
285.000000
 30
0.0
 10
61.382631
 20
284.633303
 30
0.0
 10
61.236961
 20
284.281626
 30
0.0
 10
60.977667
 20
284.022332
 30
0.0
  0
SPLINE
  5
143
100
AcDbEntity
  8
Layer_1
 62
7
100
AcDbSpline
 70
8
 71
3
 72
8
 73
4
 74
0
 40
0
 40
0
 40
0
 40
0
 40
1
 40
1
 40
1
 40
1
 10
60.977667
 20
284.022332
 30
0.0
 10
60.718373
 20
283.763038
 30
0.0
 10
60.366695
 20
283.617368
 30
0.0
 10
59.999999
 20
283.617369
 30
0.0
  0
SPLINE
  5
144
100
AcDbEntity
  8
Layer_1
 62
7
100
AcDbSpline
 70
8
 71
3
 72
8
 73
4
 74
0
 40
0
 40
0
 40
0
 40
0
 40
1
 40
1
 40
1
 40
1
 10
59.999999
 20
283.617369
 30
0.0
 10
59.633302
 20
283.617368
 30
0.0
 10
59.281624
 20
283.763038
 30
0.0
 10
59.022330
 20
284.022332
 30
0.0
  0
SPLINE
  5
145
100
AcDbEntity
  8
Layer_1
 62
7
100
AcDbSpline
 70
8
 71
3
 72
8
 73
4
 74
0
 40
0
 40
0
 40
0
 40
0
 40
1
 40
1
 40
1
 40
1
 10
59.022330
 20
284.022332
 30
0.0
 10
58.763036
 20
284.281626
 30
0.0
 10
58.617366
 20
284.633303
 30
0.0
 10
58.617366
 20
285.000000
 30
0.0
  0
SPLINE
  5
146
100
AcDbEntity
  8
Layer_1
 62
7
100
AcDbSpline
 70
8
 71
3
 72
8
 73
4
 74
0
 40
0
 40
0
 40
0
 40
0
 40
1
 40
1
 40
1
 40
1
 10
58.617366
 20
285.000000
 30
0.0
 10
58.617366
 20
285.366697
 30
0.0
 10
58.763036
 20
285.718375
 30
0.0
 10
59.022330
 20
285.977669
 30
0.0
  0
SPLINE
  5
147
100
AcDbEntity
  8
Layer_1
 62
7
100
AcDbSpline
 70
8
 71
3
 72
8
 73
4
 74
0
 40
0
 40
0
 40
0
 40
0
 40
1
 40
1
 40
1
 40
1
 10
59.022330
 20
285.977669
 30
0.0
 10
59.281624
 20
286.236962
 30
0.0
 10
59.633302
 20
286.382632
 30
0.0
 10
59.999999
 20
286.382632
 30
0.0
  0
SPLINE
  5
148
100
AcDbEntity
  8
Layer_1
 62
7
100
AcDbSpline
 70
8
 71
3
 72
8
 73
4
 74
0
 40
0
 40
0
 40
0
 40
0
 40
1
 40
1
 40
1
 40
1
 10
59.999999
 20
286.382632
 30
0.0
 10
60.366695
 20
286.382632
 30
0.0
 10
60.718373
 20
286.236962
 30
0.0
 10
60.977667
 20
285.977669
 30
0.0
  0
SPLINE
  5
149
100
AcDbEntity
  8
Layer_1
 62
7
100
AcDbSpline
 70
8
 71
3
 72
8
 73
4
 74
0
 40
0
 40
0
 40
0
 40
0
 40
1
 40
1
 40
1
 40
1
 10
60.977667
 20
285.977669
 30
0.0
 10
61.236961
 20
285.718375
 30
0.0
 10
61.382631
 20
285.366697
 30
0.0
 10
61.382631
 20
285.000000
 30
0.0
  0
LINE
  5
14a
100
AcDbEntity
  8
Layer_1
 62
7
100
AcDbLine
 10
61.382631
 20
285.000000
 30
0.0
 11
61.382631
 21
285.000000
 31
0.0
  0
SPLINE
  5
14b
100
AcDbEntity
  8
Layer_1
 62
7
100
AcDbSpline
 70
8
 71
3
 72
8
 73
4
 74
0
 40
0
 40
0
 40
0
 40
0
 40
1
 40
1
 40
1
 40
1
 10
118.382629
 20
285.000000
 30
0.0
 10
118.382629
 20
284.236395
 30
0.0
 10
117.763606
 20
283.617370
 30
0.0
 10
117.000000
 20
283.617369
 30
0.0
  0
SPLINE
  5
14c
100
AcDbEntity
  8
Layer_1
 62
7
100
AcDbSpline
 70
8
 71
3
 72
8
 73
4
 74
0
 40
0
 40
0
 40
0
 40
0
 40
1
 40
1
 40
1
 40
1
 10
117.000000
 20
283.617369
 30
0.0
 10
116.633303
 20
283.617368
 30
0.0
 10
116.281626
 20
283.763038
 30
0.0
 10
116.022332
 20
284.022332
 30
0.0
  0
SPLINE
  5
14d
100
AcDbEntity
  8
Layer_1
 62
7
100
AcDbSpline
 70
8
 71
3
 72
8
 73
4
 74
0
 40
0
 40
0
 40
0
 40
0
 40
1
 40
1
 40
1
 40
1
 10
116.022332
 20
284.022332
 30
0.0
 10
115.763038
 20
284.281626
 30
0.0
 10
115.617368
 20
284.633303
 30
0.0
 10
115.617368
 20
285.000000
 30
0.0
  0
SPLINE
  5
14e
100
AcDbEntity
  8
Layer_1
 62
7
100
AcDbSpline
 70
8
 71
3
 72
8
 73
4
 74
0
 40
0
 40
0
 40
0
 40
0
 40
1
 40
1
 40
1
 40
1
 10
115.617368
 20
285.000000
 30
0.0
 10
115.617368
 20
285.366697
 30
0.0
 10
115.763038
 20
285.718375
 30
0.0
 10
116.022332
 20
285.977669
 30
0.0
  0
SPLINE
  5
14f
100
AcDbEntity
  8
Layer_1
 62
7
100
AcDbSpline
 70
8
 71
3
 72
8
 73
4
 74
0
 40
0
 40
0
 40
0
 40
0
 40
1
 40
1
 40
1
 40
1
 10
116.022332
 20
285.977669
 30
0.0
 10
116.281626
 20
286.236962
 30
0.0
 10
116.633303
 20
286.382632
 30
0.0
 10
117.000000
 20
286.382632
 30
0.0
  0
SPLINE
  5
150
100
AcDbEntity
  8
Layer_1
 62
7
100
AcDbSpline
 70
8
 71
3
 72
8
 73
4
 74
0
 40
0
 40
0
 40
0
 40
0
 40
1
 40
1
 40
1
 40
1
 10
117.000000
 20
286.382632
 30
0.0
 10
117.763606
 20
286.382631
 30
0.0
 10
118.382629
 20
285.763606
 30
0.0
 10
118.382629
 20
285.000000
 30
0.0
  0
LINE
  5
151
100
AcDbEntity
  8
Layer_1
 62
7
100
AcDbLine
 10
118.382629
 20
285.000000
 30
0.0
 11
118.382629
 21
285.000000
 31
0.0
  0
SPLINE
  5
152
100
AcDbEntity
  8
Layer_1
 62
7
100
AcDbSpline
 70
8
 71
3
 72
8
 73
4
 74
0
 40
0
 40
0
 40
0
 40
0
 40
1
 40
1
 40
1
 40
1
 10
168.382637
 20
285.000000
 30
0.0
 10
168.382637
 20
284.633303
 30
0.0
 10
168.236967
 20
284.281626
 30
0.0
 10
167.977673
 20
284.022332
 30
0.0
  0
SPLINE
  5
153
100
AcDbEntity
  8
Layer_1
 62
7
100
AcDbSpline
 70
8
 71
3
 72
8
 73
4
 74
0
 40
0
 40
0
 40
0
 40
0
 40
1
 40
1
 40
1
 40
1
 10
167.977673
 20
284.022332
 30
0.0
 10
167.718379
 20
283.763038
 30
0.0
 10
167.366701
 20
283.617368
 30
0.0
 10
167.000005
 20
283.617369
 30
0.0
  0
SPLINE
  5
154
100
AcDbEntity
  8
Layer_1
 62
7
100
AcDbSpline
 70
8
 71
3
 72
8
 73
4
 74
0
 40
0
 40
0
 40
0
 40
0
 40
1
 40
1
 40
1
 40
1
 10
167.000005
 20
283.617369
 30
0.0
 10
166.633308
 20
283.617368
 30
0.0
 10
166.281630
 20
283.763038
 30
0.0
 10
166.022336
 20
284.022332
 30
0.0
  0
SPLINE
  5
155
100
AcDbEntity
  8
Layer_1
 62
7
100
AcDbSpline
 70
8
 71
3
 72
8
 73
4
 74
0
 40
0
 40
0
 40
0
 40
0
 40
1
 40
1
 40
1
 40
1
 10
166.022336
 20
284.022332
 30
0.0
 10
165.763042
 20
284.281626
 30
0.0
 10
165.617373
 20
284.633303
 30
0.0
 10
165.617373
 20
285.000000
 30
0.0
  0
SPLINE
  5
156
100
AcDbEntity
  8
Layer_1
 62
7
100
AcDbSpline
 70
8
 71
3
 72
8
 73
4
 74
0
 40
0
 40
0
 40
0
 40
0
 40
1
 40
1
 40
1
 40
1
 10
165.617373
 20
285.000000
 30
0.0
 10
165.617373
 20
285.366697
 30
0.0
 10
165.763042
 20
285.718375
 30
0.0
 10
166.022336
 20
285.977669
 30
0.0
  0
SPLINE
  5
157
100
AcDbEntity
  8
Layer_1
 62
7
100
AcDbSpline
 70
8
 71
3
 72
8
 73
4
 74
0
 40
0
 40
0
 40
0
 40
0
 40
1
 40
1
 40
1
 40
1
 10
166.022336
 20
285.977669
 30
0.0
 10
166.281630
 20
286.236962
 30
0.0
 10
166.633308
 20
286.382632
 30
0.0
 10
167.000005
 20
286.382632
 30
0.0
  0
SPLINE
  5
158
100
AcDbEntity
  8
Layer_1
 62
7
100
AcDbSpline
 70
8
 71
3
 72
8
 73
4
 74
0
 40
0
 40
0
 40
0
 40
0
 40
1
 40
1
 40
1
 40
1
 10
167.000005
 20
286.382632
 30
0.0
 10
167.366701
 20
286.382632
 30
0.0
 10
167.718379
 20
286.236962
 30
0.0
 10
167.977673
 20
285.977669
 30
0.0
  0
SPLINE
  5
159
100
AcDbEntity
  8
Layer_1
 62
7
100
AcDbSpline
 70
8
 71
3
 72
8
 73
4
 74
0
 40
0
 40
0
 40
0
 40
0
 40
1
 40
1
 40
1
 40
1
 10
167.977673
 20
285.977669
 30
0.0
 10
168.236967
 20
285.718375
 30
0.0
 10
168.382637
 20
285.366697
 30
0.0
 10
168.382637
 20
285.000000
 30
0.0
  0
LINE
  5
15a
100
AcDbEntity
  8
Layer_1
 62
7
100
AcDbLine
 10
168.382637
 20
285.000000
 30
0.0
 11
168.382637
 21
285.000000
 31
0.0
  0
SPLINE
  5
15b
100
AcDbEntity
  8
Layer_1
 62
7
100
AcDbSpline
 70
8
 71
3
 72
8
 73
4
 74
0
 40
0
 40
0
 40
0
 40
0
 40
1
 40
1
 40
1
 40
1
 10
168.382637
 20
278.500001
 30
0.0
 10
168.382637
 20
278.133304
 30
0.0
 10
168.236967
 20
277.781626
 30
0.0
 10
167.977673
 20
277.522332
 30
0.0
  0
SPLINE
  5
15c
100
AcDbEntity
  8
Layer_1
 62
7
100
AcDbSpline
 70
8
 71
3
 72
8
 73
4
 74
0
 40
0
 40
0
 40
0
 40
0
 40
1
 40
1
 40
1
 40
1
 10
167.977673
 20
277.522332
 30
0.0
 10
167.718379
 20
277.263039
 30
0.0
 10
167.366701
 20
277.117369
 30
0.0
 10
167.000005
 20
277.117369
 30
0.0
  0
SPLINE
  5
15d
100
AcDbEntity
  8
Layer_1
 62
7
100
AcDbSpline
 70
8
 71
3
 72
8
 73
4
 74
0
 40
0
 40
0
 40
0
 40
0
 40
1
 40
1
 40
1
 40
1
 10
167.000005
 20
277.117369
 30
0.0
 10
166.633308
 20
277.117369
 30
0.0
 10
166.281630
 20
277.263039
 30
0.0
 10
166.022336
 20
277.522332
 30
0.0
  0
SPLINE
  5
15e
100
AcDbEntity
  8
Layer_1
 62
7
100
AcDbSpline
 70
8
 71
3
 72
8
 73
4
 74
0
 40
0
 40
0
 40
0
 40
0
 40
1
 40
1
 40
1
 40
1
 10
166.022336
 20
277.522332
 30
0.0
 10
165.763042
 20
277.781626
 30
0.0
 10
165.617373
 20
278.133304
 30
0.0
 10
165.617373
 20
278.500001
 30
0.0
  0
SPLINE
  5
15f
100
AcDbEntity
  8
Layer_1
 62
7
100
AcDbSpline
 70
8
 71
3
 72
8
 73
4
 74
0
 40
0
 40
0
 40
0
 40
0
 40
1
 40
1
 40
1
 40
1
 10
165.617373
 20
278.500001
 30
0.0
 10
165.617373
 20
278.866698
 30
0.0
 10
165.763042
 20
279.218376
 30
0.0
 10
166.022336
 20
279.477669
 30
0.0
  0
SPLINE
  5
160
100
AcDbEntity
  8
Layer_1
 62
7
100
AcDbSpline
 70
8
 71
3
 72
8
 73
4
 74
0
 40
0
 40
0
 40
0
 40
0
 40
1
 40
1
 40
1
 40
1
 10
166.022336
 20
279.477669
 30
0.0
 10
166.281630
 20
279.736963
 30
0.0
 10
166.633308
 20
279.882633
 30
0.0
 10
167.000005
 20
279.882633
 30
0.0
  0
SPLINE
  5
161
100
AcDbEntity
  8
Layer_1
 62
7
100
AcDbSpline
 70
8
 71
3
 72
8
 73
4
 74
0
 40
0
 40
0
 40
0
 40
0
 40
1
 40
1
 40
1
 40
1
 10
167.000005
 20
279.882633
 30
0.0
 10
167.366701
 20
279.882633
 30
0.0
 10
167.718379
 20
279.736963
 30
0.0
 10
167.977673
 20
279.477669
 30
0.0
  0
SPLINE
  5
162
100
AcDbEntity
  8
Layer_1
 62
7
100
AcDbSpline
 70
8
 71
3
 72
8
 73
4
 74
0
 40
0
 40
0
 40
0
 40
0
 40
1
 40
1
 40
1
 40
1
 10
167.977673
 20
279.477669
 30
0.0
 10
168.236967
 20
279.218376
 30
0.0
 10
168.382637
 20
278.866698
 30
0.0
 10
168.382637
 20
278.500001
 30
0.0
  0
LINE
  5
163
100
AcDbEntity
  8
Layer_1
 62
7
100
AcDbLine
 10
168.382637
 20
278.500001
 30
0.0
 11
168.382637
 21
278.500001
 31
0.0
  0
SPLINE
  5
164
100
AcDbEntity
  8
Layer_1
 62
7
100
AcDbSpline
 70
8
 71
3
 72
8
 73
4
 74
0
 40
0
 40
0
 40
0
 40
0
 40
1
 40
1
 40
1
 40
1
 10
153.382639
 20
186.999997
 30
0.0
 10
153.382639
 20
186.633300
 30
0.0
 10
153.236969
 20
186.281622
 30
0.0
 10
152.977675
 20
186.022328
 30
0.0
  0
SPLINE
  5
165
100
AcDbEntity
  8
Layer_1
 62
7
100
AcDbSpline
 70
8
 71
3
 72
8
 73
4
 74
0
 40
0
 40
0
 40
0
 40
0
 40
1
 40
1
 40
1
 40
1
 10
152.977675
 20
186.022328
 30
0.0
 10
152.718381
 20
185.763035
 30
0.0
 10
152.366703
 20
185.617365
 30
0.0
 10
152.000006
 20
185.617365
 30
0.0
  0
SPLINE
  5
166
100
AcDbEntity
  8
Layer_1
 62
7
100
AcDbSpline
 70
8
 71
3
 72
8
 73
4
 74
0
 40
0
 40
0
 40
0
 40
0
 40
1
 40
1
 40
1
 40
1
 10
152.000006
 20
185.617365
 30
0.0
 10
151.633310
 20
185.617365
 30
0.0
 10
151.281632
 20
185.763035
 30
0.0
 10
151.022338
 20
186.022328
 30
0.0
  0
SPLINE
  5
167
100
AcDbEntity
  8
Layer_1
 62
7
100
AcDbSpline
 70
8
 71
3
 72
8
 73
4
 74
0
 40
0
 40
0
 40
0
 40
0
 40
1
 40
1
 40
1
 40
1
 10
151.022338
 20
186.022328
 30
0.0
 10
150.763044
 20
186.281622
 30
0.0
 10
150.617374
 20
186.633300
 30
0.0
 10
150.617374
 20
186.999997
 30
0.0
  0
SPLINE
  5
168
100
AcDbEntity
  8
Layer_1
 62
7
100
AcDbSpline
 70
8
 71
3
 72
8
 73
4
 74
0
 40
0
 40
0
 40
0
 40
0
 40
1
 40
1
 40
1
 40
1
 10
150.617374
 20
186.999997
 30
0.0
 10
150.617374
 20
187.366694
 30
0.0
 10
150.763044
 20
187.718372
 30
0.0
 10
151.022338
 20
187.977666
 30
0.0
  0
SPLINE
  5
169
100
AcDbEntity
  8
Layer_1
 62
7
100
AcDbSpline
 70
8
 71
3
 72
8
 73
4
 74
0
 40
0
 40
0
 40
0
 40
0
 40
1
 40
1
 40
1
 40
1
 10
151.022338
 20
187.977666
 30
0.0
 10
151.281632
 20
188.236959
 30
0.0
 10
151.633310
 20
188.382629
 30
0.0
 10
152.000006
 20
188.382629
 30
0.0
  0
SPLINE
  5
16a
100
AcDbEntity
  8
Layer_1
 62
7
100
AcDbSpline
 70
8
 71
3
 72
8
 73
4
 74
0
 40
0
 40
0
 40
0
 40
0
 40
1
 40
1
 40
1
 40
1
 10
152.000006
 20
188.382629
 30
0.0
 10
152.366703
 20
188.382629
 30
0.0
 10
152.718381
 20
188.236959
 30
0.0
 10
152.977675
 20
187.977666
 30
0.0
  0
SPLINE
  5
16b
100
AcDbEntity
  8
Layer_1
 62
7
100
AcDbSpline
 70
8
 71
3
 72
8
 73
4
 74
0
 40
0
 40
0
 40
0
 40
0
 40
1
 40
1
 40
1
 40
1
 10
152.977675
 20
187.977666
 30
0.0
 10
153.236969
 20
187.718372
 30
0.0
 10
153.382639
 20
187.366694
 30
0.0
 10
153.382639
 20
186.999997
 30
0.0
  0
LINE
  5
16c
100
AcDbEntity
  8
Layer_1
 62
7
100
AcDbLine
 10
153.382639
 20
186.999997
 30
0.0
 11
153.382639
 21
186.999997
 31
0.0
  0
SPLINE
  5
16d
100
AcDbEntity
  8
Layer_1
 62
7
100
AcDbSpline
 70
8
 71
3
 72
8
 73
4
 74
0
 40
0
 40
0
 40
0
 40
0
 40
1
 40
1
 40
1
 40
1
 10
123.382636
 20
136.000009
 30
0.0
 10
123.382636
 20
135.633312
 30
0.0
 10
123.236967
 20
135.281634
 30
0.0
 10
122.977673
 20
135.022340
 30
0.0
  0
SPLINE
  5
16e
100
AcDbEntity
  8
Layer_1
 62
7
100
AcDbSpline
 70
8
 71
3
 72
8
 73
4
 74
0
 40
0
 40
0
 40
0
 40
0
 40
1
 40
1
 40
1
 40
1
 10
122.977673
 20
135.022340
 30
0.0
 10
122.718379
 20
134.763046
 30
0.0
 10
122.366701
 20
134.617377
 30
0.0
 10
122.000004
 20
134.617377
 30
0.0
  0
SPLINE
  5
16f
100
AcDbEntity
  8
Layer_1
 62
7
100
AcDbSpline
 70
8
 71
3
 72
8
 73
4
 74
0
 40
0
 40
0
 40
0
 40
0
 40
1
 40
1
 40
1
 40
1
 10
122.000004
 20
134.617377
 30
0.0
 10
121.633308
 20
134.617377
 30
0.0
 10
121.281630
 20
134.763046
 30
0.0
 10
121.022336
 20
135.022340
 30
0.0
  0
SPLINE
  5
170
100
AcDbEntity
  8
Layer_1
 62
7
100
AcDbSpline
 70
8
 71
3
 72
8
 73
4
 74
0
 40
0
 40
0
 40
0
 40
0
 40
1
 40
1
 40
1
 40
1
 10
121.022336
 20
135.022340
 30
0.0
 10
120.763042
 20
135.281634
 30
0.0
 10
120.617372
 20
135.633312
 30
0.0
 10
120.617372
 20
136.000009
 30
0.0
  0
SPLINE
  5
171
100
AcDbEntity
  8
Layer_1
 62
7
100
AcDbSpline
 70
8
 71
3
 72
8
 73
4
 74
0
 40
0
 40
0
 40
0
 40
0
 40
1
 40
1
 40
1
 40
1
 10
120.617372
 20
136.000009
 30
0.0
 10
120.617372
 20
136.366706
 30
0.0
 10
120.763042
 20
136.718383
 30
0.0
 10
121.022336
 20
136.977677
 30
0.0
  0
SPLINE
  5
172
100
AcDbEntity
  8
Layer_1
 62
7
100
AcDbSpline
 70
8
 71
3
 72
8
 73
4
 74
0
 40
0
 40
0
 40
0
 40
0
 40
1
 40
1
 40
1
 40
1
 10
121.022336
 20
136.977677
 30
0.0
 10
121.281630
 20
137.236971
 30
0.0
 10
121.633308
 20
137.382641
 30
0.0
 10
122.000004
 20
137.382641
 30
0.0
  0
SPLINE
  5
173
100
AcDbEntity
  8
Layer_1
 62
7
100
AcDbSpline
 70
8
 71
3
 72
8
 73
4
 74
0
 40
0
 40
0
 40
0
 40
0
 40
1
 40
1
 40
1
 40
1
 10
122.000004
 20
137.382641
 30
0.0
 10
122.366701
 20
137.382641
 30
0.0
 10
122.718379
 20
137.236971
 30
0.0
 10
122.977673
 20
136.977677
 30
0.0
  0
SPLINE
  5
174
100
AcDbEntity
  8
Layer_1
 62
7
100
AcDbSpline
 70
8
 71
3
 72
8
 73
4
 74
0
 40
0
 40
0
 40
0
 40
0
 40
1
 40
1
 40
1
 40
1
 10
122.977673
 20
136.977677
 30
0.0
 10
123.236967
 20
136.718383
 30
0.0
 10
123.382636
 20
136.366706
 30
0.0
 10
123.382636
 20
136.000009
 30
0.0
  0
LINE
  5
175
100
AcDbEntity
  8
Layer_1
 62
7
100
AcDbLine
 10
123.382636
 20
136.000009
 30
0.0
 11
123.382636
 21
136.000009
 31
0.0
  0
SPLINE
  5
176
100
AcDbEntity
  8
Layer_1
 62
7
100
AcDbSpline
 70
8
 71
3
 72
8
 73
4
 74
0
 40
0
 40
0
 40
0
 40
0
 40
1
 40
1
 40
1
 40
1
 10
28.382632
 20
163.350001
 30
0.0
 10
28.382632
 20
162.983304
 30
0.0
 10
28.236962
 20
162.631626
 30
0.0
 10
27.977668
 20
162.372332
 30
0.0
  0
SPLINE
  5
177
100
AcDbEntity
  8
Layer_1
 62
7
100
AcDbSpline
 70
8
 71
3
 72
8
 73
4
 74
0
 40
0
 40
0
 40
0
 40
0
 40
1
 40
1
 40
1
 40
1
 10
27.977668
 20
162.372332
 30
0.0
 10
27.718374
 20
162.113038
 30
0.0
 10
27.366696
 20
161.967368
 30
0.0
 10
26.999999
 20
161.967369
 30
0.0
  0
SPLINE
  5
178
100
AcDbEntity
  8
Layer_1
 62
7
100
AcDbSpline
 70
8
 71
3
 72
8
 73
4
 74
0
 40
0
 40
0
 40
0
 40
0
 40
1
 40
1
 40
1
 40
1
 10
26.999999
 20
161.967369
 30
0.0
 10
26.633303
 20
161.967368
 30
0.0
 10
26.281625
 20
162.113038
 30
0.0
 10
26.022331
 20
162.372332
 30
0.0
  0
SPLINE
  5
179
100
AcDbEntity
  8
Layer_1
 62
7
100
AcDbSpline
 70
8
 71
3
 72
8
 73
4
 74
0
 40
0
 40
0
 40
0
 40
0
 40
1
 40
1
 40
1
 40
1
 10
26.022331
 20
162.372332
 30
0.0
 10
25.763037
 20
162.631626
 30
0.0
 10
25.617367
 20
162.983304
 30
0.0
 10
25.617367
 20
163.350001
 30
0.0
  0
SPLINE
  5
17a
100
AcDbEntity
  8
Layer_1
 62
7
100
AcDbSpline
 70
8
 71
3
 72
8
 73
4
 74
0
 40
0
 40
0
 40
0
 40
0
 40
1
 40
1
 40
1
 40
1
 10
25.617367
 20
163.350001
 30
0.0
 10
25.617367
 20
163.716697
 30
0.0
 10
25.763037
 20
164.068375
 30
0.0
 10
26.022331
 20
164.327669
 30
0.0
  0
SPLINE
  5
17b
100
AcDbEntity
  8
Layer_1
 62
7
100
AcDbSpline
 70
8
 71
3
 72
8
 73
4
 74
0
 40
0
 40
0
 40
0
 40
0
 40
1
 40
1
 40
1
 40
1
 10
26.022331
 20
164.327669
 30
0.0
 10
26.281625
 20
164.586963
 30
0.0
 10
26.633303
 20
164.732633
 30
0.0
 10
26.999999
 20
164.732633
 30
0.0
  0
SPLINE
  5
17c
100
AcDbEntity
  8
Layer_1
 62
7
100
AcDbSpline
 70
8
 71
3
 72
8
 73
4
 74
0
 40
0
 40
0
 40
0
 40
0
 40
1
 40
1
 40
1
 40
1
 10
26.999999
 20
164.732633
 30
0.0
 10
27.366696
 20
164.732633
 30
0.0
 10
27.718374
 20
164.586963
 30
0.0
 10
27.977668
 20
164.327669
 30
0.0
  0
SPLINE
  5
17d
100
AcDbEntity
  8
Layer_1
 62
7
100
AcDbSpline
 70
8
 71
3
 72
8
 73
4
 74
0
 40
0
 40
0
 40
0
 40
0
 40
1
 40
1
 40
1
 40
1
 10
27.977668
 20
164.327669
 30
0.0
 10
28.236962
 20
164.068375
 30
0.0
 10
28.382632
 20
163.716697
 30
0.0
 10
28.382632
 20
163.350001
 30
0.0
  0
LINE
  5
17e
100
AcDbEntity
  8
Layer_1
 62
7
100
AcDbLine
 10
28.382632
 20
163.350001
 30
0.0
 11
28.382632
 21
163.350001
 31
0.0
  0
SPLINE
  5
17f
100
AcDbEntity
  8
Layer_1
 62
7
100
AcDbSpline
 70
8
 71
3
 72
8
 73
4
 74
0
 40
0
 40
0
 40
0
 40
0
 40
1
 40
1
 40
1
 40
1
 10
52.682631
 20
163.350001
 30
0.0
 10
52.682631
 20
162.983304
 30
0.0
 10
52.536961
 20
162.631626
 30
0.0
 10
52.277668
 20
162.372332
 30
0.0
  0
SPLINE
  5
180
100
AcDbEntity
  8
Layer_1
 62
7
100
AcDbSpline
 70
8
 71
3
 72
8
 73
4
 74
0
 40
0
 40
0
 40
0
 40
0
 40
1
 40
1
 40
1
 40
1
 10
52.277668
 20
162.372332
 30
0.0
 10
52.018374
 20
162.113038
 30
0.0
 10
51.666696
 20
161.967368
 30
0.0
 10
51.299999
 20
161.967369
 30
0.0
  0
SPLINE
  5
181
100
AcDbEntity
  8
Layer_1
 62
7
100
AcDbSpline
 70
8
 71
3
 72
8
 73
4
 74
0
 40
0
 40
0
 40
0
 40
0
 40
1
 40
1
 40
1
 40
1
 10
51.299999
 20
161.967369
 30
0.0
 10
50.933302
 20
161.967368
 30
0.0
 10
50.581624
 20
162.113038
 30
0.0
 10
50.322330
 20
162.372332
 30
0.0
  0
SPLINE
  5
182
100
AcDbEntity
  8
Layer_1
 62
7
100
AcDbSpline
 70
8
 71
3
 72
8
 73
4
 74
0
 40
0
 40
0
 40
0
 40
0
 40
1
 40
1
 40
1
 40
1
 10
50.322330
 20
162.372332
 30
0.0
 10
50.063037
 20
162.631626
 30
0.0
 10
49.917367
 20
162.983304
 30
0.0
 10
49.917367
 20
163.350001
 30
0.0
  0
SPLINE
  5
183
100
AcDbEntity
  8
Layer_1
 62
7
100
AcDbSpline
 70
8
 71
3
 72
8
 73
4
 74
0
 40
0
 40
0
 40
0
 40
0
 40
1
 40
1
 40
1
 40
1
 10
49.917367
 20
163.350001
 30
0.0
 10
49.917367
 20
163.716697
 30
0.0
 10
50.063037
 20
164.068375
 30
0.0
 10
50.322330
 20
164.327669
 30
0.0
  0
SPLINE
  5
184
100
AcDbEntity
  8
Layer_1
 62
7
100
AcDbSpline
 70
8
 71
3
 72
8
 73
4
 74
0
 40
0
 40
0
 40
0
 40
0
 40
1
 40
1
 40
1
 40
1
 10
50.322330
 20
164.327669
 30
0.0
 10
50.581624
 20
164.586963
 30
0.0
 10
50.933302
 20
164.732633
 30
0.0
 10
51.299999
 20
164.732633
 30
0.0
  0
SPLINE
  5
185
100
AcDbEntity
  8
Layer_1
 62
7
100
AcDbSpline
 70
8
 71
3
 72
8
 73
4
 74
0
 40
0
 40
0
 40
0
 40
0
 40
1
 40
1
 40
1
 40
1
 10
51.299999
 20
164.732633
 30
0.0
 10
51.666696
 20
164.732633
 30
0.0
 10
52.018374
 20
164.586963
 30
0.0
 10
52.277668
 20
164.327669
 30
0.0
  0
SPLINE
  5
186
100
AcDbEntity
  8
Layer_1
 62
7
100
AcDbSpline
 70
8
 71
3
 72
8
 73
4
 74
0
 40
0
 40
0
 40
0
 40
0
 40
1
 40
1
 40
1
 40
1
 10
52.277668
 20
164.327669
 30
0.0
 10
52.536961
 20
164.068375
 30
0.0
 10
52.682631
 20
163.716697
 30
0.0
 10
52.682631
 20
163.350001
 30
0.0
  0
LINE
  5
187
100
AcDbEntity
  8
Layer_1
 62
7
100
AcDbLine
 10
52.682631
 20
163.350001
 30
0.0
 11
52.682631
 21
163.350001
 31
0.0
  0
SPLINE
  5
188
100
AcDbEntity
  8
Layer_1
 62
7
100
AcDbSpline
 70
8
 71
3
 72
8
 73
4
 74
0
 40
0
 40
0
 40
0
 40
0
 40
1
 40
1
 40
1
 40
1
 10
28.382632
 20
239.650000
 30
0.0
 10
28.382632
 20
239.283304
 30
0.0
 10
28.236962
 20
238.931626
 30
0.0
 10
27.977668
 20
238.672332
 30
0.0
  0
SPLINE
  5
189
100
AcDbEntity
  8
Layer_1
 62
7
100
AcDbSpline
 70
8
 71
3
 72
8
 73
4
 74
0
 40
0
 40
0
 40
0
 40
0
 40
1
 40
1
 40
1
 40
1
 10
27.977668
 20
238.672332
 30
0.0
 10
27.718374
 20
238.413038
 30
0.0
 10
27.366696
 20
238.267368
 30
0.0
 10
26.999999
 20
238.267368
 30
0.0
  0
SPLINE
  5
18a
100
AcDbEntity
  8
Layer_1
 62
7
100
AcDbSpline
 70
8
 71
3
 72
8
 73
4
 74
0
 40
0
 40
0
 40
0
 40
0
 40
1
 40
1
 40
1
 40
1
 10
26.999999
 20
238.267368
 30
0.0
 10
26.633303
 20
238.267368
 30
0.0
 10
26.281625
 20
238.413038
 30
0.0
 10
26.022331
 20
238.672332
 30
0.0
  0
SPLINE
  5
18b
100
AcDbEntity
  8
Layer_1
 62
7
100
AcDbSpline
 70
8
 71
3
 72
8
 73
4
 74
0
 40
0
 40
0
 40
0
 40
0
 40
1
 40
1
 40
1
 40
1
 10
26.022331
 20
238.672332
 30
0.0
 10
25.763037
 20
238.931626
 30
0.0
 10
25.617367
 20
239.283304
 30
0.0
 10
25.617367
 20
239.650000
 30
0.0
  0
SPLINE
  5
18c
100
AcDbEntity
  8
Layer_1
 62
7
100
AcDbSpline
 70
8
 71
3
 72
8
 73
4
 74
0
 40
0
 40
0
 40
0
 40
0
 40
1
 40
1
 40
1
 40
1
 10
25.617367
 20
239.650000
 30
0.0
 10
25.617367
 20
240.016697
 30
0.0
 10
25.763037
 20
240.368375
 30
0.0
 10
26.022331
 20
240.627669
 30
0.0
  0
SPLINE
  5
18d
100
AcDbEntity
  8
Layer_1
 62
7
100
AcDbSpline
 70
8
 71
3
 72
8
 73
4
 74
0
 40
0
 40
0
 40
0
 40
0
 40
1
 40
1
 40
1
 40
1
 10
26.022331
 20
240.627669
 30
0.0
 10
26.281625
 20
240.886963
 30
0.0
 10
26.633303
 20
241.032633
 30
0.0
 10
26.999999
 20
241.032632
 30
0.0
  0
SPLINE
  5
18e
100
AcDbEntity
  8
Layer_1
 62
7
100
AcDbSpline
 70
8
 71
3
 72
8
 73
4
 74
0
 40
0
 40
0
 40
0
 40
0
 40
1
 40
1
 40
1
 40
1
 10
26.999999
 20
241.032632
 30
0.0
 10
27.366696
 20
241.032633
 30
0.0
 10
27.718374
 20
240.886963
 30
0.0
 10
27.977668
 20
240.627669
 30
0.0
  0
SPLINE
  5
18f
100
AcDbEntity
  8
Layer_1
 62
7
100
AcDbSpline
 70
8
 71
3
 72
8
 73
4
 74
0
 40
0
 40
0
 40
0
 40
0
 40
1
 40
1
 40
1
 40
1
 10
27.977668
 20
240.627669
 30
0.0
 10
28.236962
 20
240.368375
 30
0.0
 10
28.382632
 20
240.016697
 30
0.0
 10
28.382632
 20
239.650000
 30
0.0
  0
LINE
  5
190
100
AcDbEntity
  8
Layer_1
 62
7
100
AcDbLine
 10
28.382632
 20
239.650000
 30
0.0
 11
28.382632
 21
239.650000
 31
0.0
  0
SPLINE
  5
191
100
AcDbEntity
  8
Layer_1
 62
7
100
AcDbSpline
 70
8
 71
3
 72
8
 73
4
 74
0
 40
0
 40
0
 40
0
 40
0
 40
1
 40
1
 40
1
 40
1
 10
52.682631
 20
239.650000
 30
0.0
 10
52.682631
 20
239.283304
 30
0.0
 10
52.536961
 20
238.931626
 30
0.0
 10
52.277668
 20
238.672332
 30
0.0
  0
SPLINE
  5
192
100
AcDbEntity
  8
Layer_1
 62
7
100
AcDbSpline
 70
8
 71
3
 72
8
 73
4
 74
0
 40
0
 40
0
 40
0
 40
0
 40
1
 40
1
 40
1
 40
1
 10
52.277668
 20
238.672332
 30
0.0
 10
52.018374
 20
238.413038
 30
0.0
 10
51.666696
 20
238.267368
 30
0.0
 10
51.299999
 20
238.267368
 30
0.0
  0
SPLINE
  5
193
100
AcDbEntity
  8
Layer_1
 62
7
100
AcDbSpline
 70
8
 71
3
 72
8
 73
4
 74
0
 40
0
 40
0
 40
0
 40
0
 40
1
 40
1
 40
1
 40
1
 10
51.299999
 20
238.267368
 30
0.0
 10
50.933302
 20
238.267368
 30
0.0
 10
50.581624
 20
238.413038
 30
0.0
 10
50.322330
 20
238.672332
 30
0.0
  0
SPLINE
  5
194
100
AcDbEntity
  8
Layer_1
 62
7
100
AcDbSpline
 70
8
 71
3
 72
8
 73
4
 74
0
 40
0
 40
0
 40
0
 40
0
 40
1
 40
1
 40
1
 40
1
 10
50.322330
 20
238.672332
 30
0.0
 10
50.063037
 20
238.931626
 30
0.0
 10
49.917367
 20
239.283304
 30
0.0
 10
49.917367
 20
239.650000
 30
0.0
  0
SPLINE
  5
195
100
AcDbEntity
  8
Layer_1
 62
7
100
AcDbSpline
 70
8
 71
3
 72
8
 73
4
 74
0
 40
0
 40
0
 40
0
 40
0
 40
1
 40
1
 40
1
 40
1
 10
49.917367
 20
239.650000
 30
0.0
 10
49.917367
 20
240.016697
 30
0.0
 10
50.063037
 20
240.368375
 30
0.0
 10
50.322330
 20
240.627669
 30
0.0
  0
SPLINE
  5
196
100
AcDbEntity
  8
Layer_1
 62
7
100
AcDbSpline
 70
8
 71
3
 72
8
 73
4
 74
0
 40
0
 40
0
 40
0
 40
0
 40
1
 40
1
 40
1
 40
1
 10
50.322330
 20
240.627669
 30
0.0
 10
50.581624
 20
240.886963
 30
0.0
 10
50.933302
 20
241.032633
 30
0.0
 10
51.299999
 20
241.032632
 30
0.0
  0
SPLINE
  5
197
100
AcDbEntity
  8
Layer_1
 62
7
100
AcDbSpline
 70
8
 71
3
 72
8
 73
4
 74
0
 40
0
 40
0
 40
0
 40
0
 40
1
 40
1
 40
1
 40
1
 10
51.299999
 20
241.032632
 30
0.0
 10
51.666696
 20
241.032633
 30
0.0
 10
52.018374
 20
240.886963
 30
0.0
 10
52.277668
 20
240.627669
 30
0.0
  0
SPLINE
  5
198
100
AcDbEntity
  8
Layer_1
 62
7
100
AcDbSpline
 70
8
 71
3
 72
8
 73
4
 74
0
 40
0
 40
0
 40
0
 40
0
 40
1
 40
1
 40
1
 40
1
 10
52.277668
 20
240.627669
 30
0.0
 10
52.536961
 20
240.368375
 30
0.0
 10
52.682631
 20
240.016697
 30
0.0
 10
52.682631
 20
239.650000
 30
0.0
  0
LINE
  5
199
100
AcDbEntity
  8
Layer_1
 62
7
100
AcDbLine
 10
52.682631
 20
239.650000
 30
0.0
 11
52.682631
 21
239.650000
 31
0.0
  0
ENDSEC
  0
SECTION
  2
OBJECTS
  0
DICTIONARY
  5
C
330
0
100
AcDbDictionary
  3
ACAD_GROUP
350
D
  3
ACAD_MLINESTYLE
350
17
  0
DICTIONARY
  5
D
330
C
100
AcDbDictionary
  0
DICTIONARY
  5
1A
330
C
100
AcDbDictionary
  0
DICTIONARY
  5
17
330
C
100
AcDbDictionary
  3
STANDARD
350
18
  0
DICTIONARY
  5
19
330
C
100
AcDbDictionary
  0
ENDSEC
  0
EOF
