<?xml version="1.0" standalone="no"?>
<!DOCTYPE svg PUBLIC "-//W3C//DTD SVG 20010904//EN"
 "http://www.w3.org/TR/2001/REC-SVG-20010904/DTD/svg10.dtd">
<svg version="1.0" xmlns="http://www.w3.org/2000/svg"
 width="30.000000pt" height="30.000000pt" viewBox="0 0 30.000000 30.000000"
 preserveAspectRatio="xMidYMid meet">
<metadata>
Created by potrace 1.15, written by Peter Selinger 2001-2017
</metadata>
<g transform="translate(0.000000,30.000000) scale(0.100000,-0.100000)"
fill="#000000" stroke="none">
<path d="M38 283 c-2 -10 -2 -78 0 -150 l4 -133 37 0 c20 0 41 4 47 8 18 12
26 48 18 88 l-7 38 -28 -32 c-34 -38 -39 -32 -6 9 71 92 70 89 50 86 -10 -1
-24 -6 -30 -10 -7 -5 -17 -5 -23 -2 -5 3 -10 0 -10 -8 0 -8 -6 -19 -13 -25 -9
-8 -11 1 -8 41 3 29 7 42 9 30 4 -25 22 -32 22 -9 0 8 3 22 7 32 5 13 3 16
-10 11 -12 -5 -19 1 -23 18 -7 29 -30 33 -36 8z"/>
<path d="M177 281 c-3 -11 1 -28 9 -38 13 -16 13 -14 8 17 -6 42 -10 47 -17
21z"/>
<path d="M255 290 c4 -6 11 -8 16 -5 14 9 11 15 -7 15 -8 0 -12 -5 -9 -10z"/>
<path d="M267 267 c-15 -20 -25 -37 -22 -37 3 0 -2 -13 -11 -29 -10 -17 -21
-28 -26 -25 -8 5 -12 -17 -9 -43 1 -7 -3 -22 -9 -33 -8 -16 -6 -24 10 -40 l20
-20 0 23 c0 34 36 133 60 167 12 17 20 40 18 52 -3 20 -6 18 -31 -15z"/>
<path d="M7 253 c-4 -6 -7 -67 -6 -135 1 -87 4 -116 10 -99 11 29 7 251 -4
234z"/>
<path d="M210 234 c0 -8 5 -12 10 -9 6 3 10 10 10 16 0 5 -4 9 -10 9 -5 0 -10
-7 -10 -16z"/>
<path d="M150 150 c-13 -8 -12 -10 3 -10 9 0 17 5 17 10 0 12 -1 12 -20 0z"/>
<path d="M271 43 c-11 -21 -20 -32 -21 -25 0 6 -7 12 -16 12 -32 0 -6 -25 29
-28 l37 -3 0 40 c0 23 -2 41 -5 41 -2 0 -13 -17 -24 -37z"/>
</g>
</svg>
