<?xml version="1.0" standalone="no"?>
<!DOCTYPE svg PUBLIC "-//W3C//DTD SVG 20010904//EN"
 "http://www.w3.org/TR/2001/REC-SVG-20010904/DTD/svg10.dtd">
<svg version="1.0" xmlns="http://www.w3.org/2000/svg"
 width="512.000000pt" height="512.000000pt" viewBox="0 0 512.000000 512.000000"
 preserveAspectRatio="xMidYMid meet">
<metadata>
Created by potrace 1.15, written by Peter Selinger 2001-2017
</metadata>
<g transform="translate(0.000000,512.000000) scale(0.100000,-0.100000)"
fill="#000000" stroke="none">
<path d="M560 5103 c0 -17 4 -20 22 -15 16 4 18 7 8 10 -8 3 -18 10 -22 16 -5
6 -8 2 -8 -11z"/>
<path d="M628 5085 c-2 -19 -1 -38 3 -43 11 -12 21 -72 12 -72 -4 0 -7 -48 -6
-107 1 -60 -2 -123 -7 -141 -6 -21 -4 -50 4 -80 8 -34 10 -94 4 -217 -4 -106
-3 -184 3 -208 6 -21 7 -47 4 -58 -4 -11 -1 -26 5 -34 13 -16 6 -65 -10 -65
-6 0 -10 -7 -10 -15 0 -8 5 -15 10 -15 7 0 9 -38 8 -105 -2 -79 -6 -105 -16
-105 -10 0 -12 -9 -7 -32 4 -18 11 -35 16 -38 5 -3 5 -30 1 -60 -5 -30 -7 -93
-5 -140 5 -118 5 -142 4 -250 -1 -52 0 -225 3 -385 3 -159 8 -445 10 -635 3
-190 5 -353 5 -362 1 -19 31 -26 31 -8 0 6 -4 10 -10 10 -23 0 -7 28 26 43 34
16 34 18 20 39 -10 14 -16 44 -16 76 0 51 1 54 23 48 12 -3 25 -6 29 -6 3 0 9
-13 13 -29 l6 -30 32 20 c18 10 39 19 47 19 9 0 15 10 15 26 0 23 -3 25 -30
19 -36 -8 -95 -8 -103 -1 -3 3 0 17 7 30 16 28 68 55 127 63 24 3 44 8 44 10
0 2 -14 16 -30 30 -26 21 -30 32 -30 74 l0 49 39 -2 c27 -1 45 5 61 20 13 12
36 24 52 27 21 5 30 14 34 33 3 15 21 38 40 52 47 34 74 55 107 85 15 14 32
25 37 25 6 0 10 9 10 20 0 11 11 27 24 35 13 9 26 30 30 46 3 19 13 33 25 36
18 5 19 7 5 46 -9 23 -22 78 -30 121 -9 51 -23 94 -40 119 -46 71 -81 195 -98
357 -2 19 -2 -5 -1 -55 4 -101 31 -201 76 -282 34 -61 36 -73 11 -73 -18 0
-51 56 -81 135 -47 128 -58 355 -17 355 8 0 16 -6 18 -12 3 -7 8 25 11 72 8
105 49 321 78 409 32 100 88 211 106 211 12 0 14 -7 10 -30 -9 -42 -3 -37 23
18 12 26 36 63 54 82 17 19 40 45 50 57 17 21 17 21 -3 16 -25 -6 -26 3 -6 51
10 24 22 36 35 36 16 0 20 7 20 33 0 60 46 92 179 124 89 22 94 22 107 6 12
-17 15 -16 36 9 27 31 58 48 87 48 12 0 21 4 21 9 0 5 27 12 60 16 33 4 60 11
60 16 0 14 30 10 36 -5 4 -11 14 -10 55 5 117 45 377 -22 534 -136 45 -33 59
-40 51 -26 -4 6 -25 23 -47 37 -34 21 -53 54 -31 54 17 0 92 -41 92 -50 0 -6
8 -10 18 -10 31 0 72 -24 72 -42 0 -10 4 -18 9 -18 6 0 22 -11 36 -24 15 -14
40 -28 56 -31 21 -5 46 -28 90 -86 98 -130 101 -132 164 -133 40 0 55 -4 55
-14 0 -8 -9 -16 -20 -19 -11 -3 -20 -7 -20 -9 0 -12 25 -54 32 -54 4 0 8 -11
8 -25 0 -38 -23 -30 -54 20 -16 25 -35 45 -42 45 -8 0 -14 7 -14 15 0 8 -7 15
-15 15 -19 0 -55 31 -55 47 0 6 -6 16 -14 20 -18 10 -86 98 -86 111 0 5 -25
22 -56 38 -31 16 -73 45 -94 65 -21 20 -42 34 -48 30 -13 -8 110 -105 146
-115 12 -4 53 -49 91 -100 38 -51 87 -106 108 -121 49 -36 82 -81 139 -192 43
-85 73 -130 58 -88 -4 11 -11 26 -17 32 -15 20 -34 152 -31 218 4 101 16 190
28 198 8 6 7 10 -1 14 -14 5 -18 73 -5 73 4 0 4 53 1 117 -5 83 -3 120 5 125
8 5 7 11 -2 20 -6 6 -12 34 -12 60 0 26 -3 48 -7 48 -5 0 -8 38 -8 83 0 76 -3
87 -28 120 -15 20 -27 40 -27 46 0 6 -4 11 -10 11 -5 0 -10 18 -10 40 l0 40
-1294 0 -1294 0 -4 -35z m530 -2228 c4 -33 -13 -57 -39 -57 -19 0 -27 -25 -10
-32 4 -1 11 -20 15 -40 9 -48 -15 -53 -37 -8 -43 85 -23 174 38 168 25 -2 31
-8 33 -31z"/>
<path d="M4235 5099 c14 -42 220 -377 229 -372 5 3 6 1 2 -5 -4 -6 13 -46 37
-88 l44 -76 22 29 c37 47 362 373 422 423 l56 46 -16 32 -15 32 -393 0 -394 0
6 -21z"/>
<path d="M5061 5113 c0 -5 4 -17 9 -28 8 -18 9 -17 9 8 1 15 -3 27 -9 27 -5 0
-10 -3 -9 -7z"/>
<path d="M5112 5095 c0 -16 2 -22 5 -12 2 9 2 23 0 30 -3 6 -5 -1 -5 -18z"/>
<path d="M5078 5033 c-1 -5 -29 -30 -60 -56 -32 -27 -135 -127 -230 -224 -95
-97 -185 -187 -200 -201 -15 -13 -30 -37 -33 -52 -3 -14 -38 -63 -78 -108 -40
-44 -80 -95 -90 -111 l-18 -31 30 0 c38 0 46 -13 29 -50 -11 -26 -18 -30 -55
-30 -23 0 -43 5 -45 11 -5 15 -153 -213 -150 -231 1 -8 6 -37 11 -65 20 -110
-50 -415 -125 -543 -30 -51 -207 -228 -294 -294 -54 -41 -57 -46 -67 -103 -15
-90 18 -395 43 -395 10 0 12 10 7 45 -5 36 -3 45 9 45 9 0 18 -13 22 -31 9
-47 7 -89 -4 -89 -14 0 -12 -23 4 -54 17 -34 26 -16 26 55 0 37 4 49 15 49 9
0 15 -9 15 -22 1 -20 3 -19 14 8 8 17 11 43 9 58 -4 19 1 33 16 47 11 11 21
26 21 35 0 8 5 23 10 34 6 11 15 29 20 40 6 11 10 33 10 49 0 16 6 36 14 44 8
8 18 41 23 73 6 42 13 60 24 62 23 4 34 -88 13 -104 -8 -6 -14 -23 -14 -38 0
-16 -5 -26 -15 -26 -11 0 -15 -11 -15 -39 0 -22 -4 -43 -10 -46 -5 -3 -10 -15
-10 -26 0 -10 -4 -19 -10 -19 -5 0 -10 -8 -10 -17 0 -10 -7 -27 -15 -37 -8
-11 -15 -33 -15 -49 0 -42 -30 -127 -45 -127 -17 0 -37 -94 -39 -180 -1 -55
-4 -65 -20 -68 -15 -3 -18 1 -14 21 4 20 1 23 -14 19 -21 -5 -25 -47 -5 -59
14 -9 35 -111 37 -182 0 -24 5 -52 10 -61 5 -9 9 -25 9 -36 0 -10 3 -48 8 -84
l10 -65 7 40 c9 51 31 135 67 256 16 52 40 142 54 200 13 57 31 118 39 134 17
36 56 159 86 270 12 44 27 89 34 100 7 11 30 63 51 115 20 52 50 123 66 157
16 34 29 66 29 71 0 4 9 27 20 50 11 22 20 45 20 50 0 5 14 36 30 70 17 34 30
64 30 66 0 2 23 46 51 97 100 183 163 295 201 353 22 32 46 72 54 88 13 25
138 195 153 208 3 3 37 40 74 83 43 48 63 77 53 77 -9 0 -16 7 -16 16 0 27
-27 -2 -34 -36 -6 -34 -36 -42 -36 -9 0 18 -2 19 -15 5 -8 -8 -15 -22 -15 -30
0 -18 0 -18 -56 -7 l-42 8 -38 -54 c-22 -30 -47 -64 -58 -76 -10 -12 -25 -37
-32 -54 -8 -18 -18 -33 -22 -33 -5 0 -15 -11 -22 -25 -15 -28 -40 -34 -40 -9
0 8 5 25 11 37 9 18 9 20 -2 10 -20 -20 -42 -16 -36 6 3 14 0 17 -14 14 -23
-6 -26 19 -4 37 8 7 20 30 27 52 6 22 29 58 50 80 21 22 38 46 38 54 0 8 7 14
15 14 8 0 15 6 15 13 0 7 9 20 20 30 24 20 26 37 5 37 -30 0 -14 28 20 34 21
4 35 13 35 21 0 8 7 15 15 15 18 0 64 49 65 68 0 6 4 12 9 12 5 0 23 14 39 30
31 30 52 38 52 20 0 -5 5 -10 10 -10 6 0 10 5 10 11 0 16 31 38 53 39 22 0 22
-23 1 -45 -23 -23 -64 -84 -64 -95 0 -6 -6 -10 -12 -10 -17 -1 -62 -41 -71
-62 -5 -15 -2 -16 19 -8 36 14 44 12 44 -10 0 -11 -7 -20 -15 -20 -15 0 -95
-78 -95 -92 0 -16 20 -7 50 22 17 17 37 30 45 30 13 0 75 70 75 86 0 5 16 27
35 49 20 22 40 46 46 53 13 16 49 15 49 -2 0 -9 8 -12 25 -8 l25 4 0 284 c0
273 -1 284 -19 284 -11 0 -21 -3 -23 -7z m-438 -1130 c0 -30 -25 -87 -50 -113
-17 -18 -30 -39 -30 -47 0 -23 -35 -10 -38 15 -2 12 1 22 7 22 5 0 20 20 32
45 12 25 26 45 30 45 3 0 9 9 12 20 5 18 37 29 37 13z m-795 -1790 c12 -109
11 -117 -6 -121 -13 -2 -17 10 -22 70 -4 40 -9 83 -13 96 -5 18 -2 22 14 22
18 0 21 -9 27 -67z"/>
<path d="M583 5015 c-3 -9 -3 -18 -1 -21 3 -3 8 4 11 16 6 23 -1 27 -10 5z"/>
<path d="M2023 4623 c-18 -2 -33 -8 -33 -14 0 -5 -9 -9 -21 -9 -11 0 -17 -4
-14 -10 3 -6 -1 -7 -9 -4 -9 3 -16 1 -16 -6 0 -6 -4 -9 -9 -6 -10 7 -47 -32
-38 -40 8 -8 29 5 23 15 -3 3 4 7 14 7 10 0 17 -4 14 -8 -2 -4 4 -12 13 -18
17 -10 16 -10 -2 -8 -11 2 -23 8 -27 13 -5 6 -8 3 -8 -6 0 -12 -9 -15 -37 -14
-47 2 -95 -13 -86 -28 3 -6 1 -7 -5 -3 -16 10 -123 -16 -119 -29 2 -5 13 -10
24 -10 11 -1 28 -6 36 -13 9 -8 18 -9 21 -3 3 5 1 11 -5 13 -8 3 -7 7 2 15 11
9 14 6 14 -17 1 -16 -3 -26 -9 -23 -5 4 -7 -2 -3 -13 5 -12 -1 -8 -14 9 -20
26 -22 27 -36 10 -8 -10 -12 -13 -9 -7 3 7 -1 15 -10 18 -21 8 -21 8 -28 -10
-4 -11 -2 -15 8 -11 10 4 13 1 10 -7 -4 -10 -15 -12 -41 -6 -35 8 -35 8 -58
-43 -13 -29 -38 -72 -56 -97 -19 -25 -34 -48 -34 -52 0 -3 -4 -10 -9 -15 -6
-5 -6 -2 -1 7 8 13 7 13 -9 1 -13 -11 -14 -16 -4 -22 6 -4 17 -5 23 -2 5 4 6
2 2 -3 -4 -4 -18 -9 -30 -9 -16 0 -22 -6 -21 -22 0 -12 -3 -20 -7 -18 -13 9
-20 -27 -8 -42 10 -11 14 -11 20 -1 6 9 9 9 9 1 0 -6 -5 -15 -11 -19 -8 -4 -7
-9 2 -15 11 -7 11 -9 1 -9 -7 0 -10 -4 -7 -10 3 -5 1 -10 -5 -10 -6 0 -9 -4
-5 -9 3 -6 -2 -8 -12 -7 -10 2 -29 0 -42 -5 -20 -8 -22 -11 -10 -26 8 -10 9
-14 2 -10 -17 10 -27 -11 -13 -28 6 -8 10 -22 7 -32 -4 -14 -5 -13 -6 5 0 12
-6 22 -12 22 -6 0 -9 -21 -7 -52 2 -30 7 -52 13 -50 6 2 8 11 7 20 -2 9 -1 14
3 10 4 -3 8 -18 9 -32 3 -22 1 -24 -15 -15 -11 5 -20 7 -20 4 -1 -3 -2 -9 -3
-14 0 -5 -4 -13 -8 -17 -12 -11 -10 -26 2 -19 6 3 10 1 10 -4 0 -6 -7 -11 -16
-11 -8 0 -13 -4 -9 -9 3 -5 1 -12 -4 -15 -20 -13 2 -44 38 -55 47 -14 64 -14
56 -1 -3 5 -1 18 5 27 9 15 10 14 4 -6 -4 -17 -3 -21 6 -16 8 5 11 4 6 -3 -8
-14 8 -24 28 -16 9 3 13 11 9 18 -4 7 -1 7 9 -1 8 -7 19 -9 24 -5 4 4 3 -1 -5
-10 -7 -10 -19 -14 -28 -11 -10 4 -14 2 -10 -4 4 -6 4 -13 -1 -15 -4 -1 -2
-25 4 -53 12 -48 12 -48 13 -14 l1 36 49 -1 c36 -1 47 -4 40 -13 -7 -7 -6 -14
1 -18 5 -3 10 -2 10 4 0 5 3 16 6 25 5 12 -1 16 -24 16 -17 0 -33 6 -35 13 -4
8 -8 8 -14 2 -4 -5 -15 -11 -23 -13 -12 -3 -12 -1 -3 9 18 18 108 28 127 13 9
-6 16 -22 16 -35 0 -13 4 -19 8 -13 4 6 16 16 27 22 11 6 15 12 9 12 -18 0
-28 71 -12 81 10 7 10 9 -2 10 -8 0 -4 4 10 8 15 5 24 14 24 25 -1 12 2 14 10
7 22 -19 34 3 13 24 -11 11 -16 13 -12 5 5 -8 5 -12 0 -8 -4 4 -15 2 -24 -4
-13 -10 -14 -10 -3 2 18 20 15 35 -4 19 -23 -19 -48 -20 -70 -3 -18 14 -18 15
3 5 28 -14 28 -14 30 9 2 18 -8 25 -31 21 -5 -1 -4 5 4 13 14 17 3 21 -19 7
-7 -5 -10 -14 -7 -20 4 -6 0 -11 -9 -11 -9 0 -13 -4 -10 -10 3 -5 0 -7 -8 -4
-8 3 -20 -3 -28 -12 -12 -15 -12 -16 8 -10 12 4 24 3 27 -2 3 -5 -9 -8 -27 -7
-34 3 -87 -19 -87 -35 0 -6 -9 -10 -19 -10 -11 0 -22 -4 -26 -10 -3 -5 -12 -7
-20 -3 -8 3 -15 0 -15 -6 0 -6 -7 -11 -16 -11 -20 0 -15 42 6 46 8 1 29 7 45
14 27 10 29 13 13 24 -10 7 -18 19 -18 27 1 10 3 10 10 -3 12 -19 48 -13 68
11 11 13 12 13 6 1 -5 -11 -4 -12 5 -4 12 11 5 44 -9 44 -12 0 -3 41 11 54 8
8 8 5 0 -11 -8 -15 -8 -23 -1 -23 5 0 9 -3 9 -7 -7 -45 17 -42 69 7 40 39 67
55 43 26 -8 -10 -9 -15 -1 -18 6 -2 12 -13 13 -25 1 -18 22 -38 35 -33 1 0 15
-6 32 -15 18 -10 31 -11 35 -5 4 6 11 8 16 5 5 -4 9 1 9 9 0 8 8 21 18 28 10
7 22 20 27 28 5 9 0 8 -13 -4 -12 -11 -22 -15 -22 -11 0 4 -8 1 -17 -7 -26
-22 -61 -28 -67 -12 -3 8 -13 11 -23 8 -11 -4 -8 1 7 12 14 10 29 17 34 16 18
-6 58 22 67 46 6 17 15 22 32 20 12 -2 28 4 35 12 8 8 11 9 7 3 -8 -18 6 -16
33 3 25 17 29 34 7 34 -11 0 -14 10 -12 37 1 27 -2 37 -15 39 -10 1 -20 -7
-24 -19 -6 -18 -7 -18 -16 -4 -16 29 -14 31 28 32 39 1 42 -1 38 -22 -6 -31 7
-29 41 7 16 17 35 30 42 30 14 0 18 25 6 33 -5 2 -3 3 3 1 6 -1 17 3 23 9 14
14 43 19 35 5 -3 -5 -9 -7 -12 -4 -9 10 -32 -15 -32 -35 0 -17 11 -24 33 -20
4 0 6 -5 5 -11 -2 -7 3 -12 10 -10 8 1 11 -2 7 -8 -3 -6 -11 -8 -16 -4 -6 3
-9 -10 -8 -35 l3 -40 23 25 c26 28 48 66 45 77 -1 4 7 7 18 7 15 0 20 -7 20
-25 0 -14 -4 -25 -10 -25 -5 0 -10 -5 -10 -10 0 -7 6 -7 20 0 11 6 20 17 20
25 0 10 10 15 28 15 16 0 37 9 47 20 19 21 55 27 55 9 0 -6 -10 -20 -22 -30
-18 -16 -15 -15 14 3 35 21 35 23 16 36 -15 11 -18 21 -13 43 4 19 2 36 -7 46
-9 12 -9 15 -1 9 9 -5 11 -2 7 8 -8 21 -34 28 -51 15 -11 -10 -11 -15 3 -30
13 -15 13 -17 1 -15 -22 3 -48 27 -41 37 3 5 10 7 15 3 6 -3 5 4 -3 15 -11 18
-11 23 2 31 13 9 13 11 0 20 -23 15 -30 12 -30 -13 0 -13 -9 -32 -20 -42 -26
-24 -25 -31 8 -49 15 -8 22 -15 16 -16 -5 0 -19 7 -30 15 -21 16 -70 20 -78 6
-3 -5 -14 -11 -25 -14 -17 -4 -18 -2 -10 20 5 13 15 30 22 36 16 15 40 21 32
7 -14 -22 14 -8 29 14 17 26 24 105 12 125 -4 6 -4 11 1 10 21 -4 25 3 10 19
-8 9 -15 22 -14 27 1 6 -8 11 -20 13 -21 3 -28 17 -24 50 1 8 -7 22 -18 31
-11 10 -18 21 -14 25 3 3 -1 6 -9 6 -9 0 -18 9 -21 20 -3 11 -1 17 4 14 5 -3
12 2 15 10 4 10 18 16 39 16 26 0 34 -5 39 -23 3 -12 3 -33 -1 -45 -4 -16 -1
-22 10 -22 9 0 17 -6 20 -12 2 -7 3 -5 2 4 -2 14 0 15 16 5 23 -14 43 1 29 23
-8 12 -15 13 -42 3 -26 -10 -30 -10 -18 0 8 7 15 28 15 50 0 40 0 40 -82 30z
m-92 -126 c-11 -14 -45 -16 -57 -5 -3 4 6 5 20 4 15 -2 29 1 32 5 3 5 8 9 11
9 3 0 0 -6 -6 -13z m80 -2 c12 2 15 -3 11 -18 -4 -17 -7 -18 -11 -5 -3 8 -14
14 -23 13 -11 -2 -15 2 -11 12 3 8 9 10 12 5 3 -5 13 -8 22 -7z m-191 -5 c0
-5 -4 -10 -10 -10 -5 0 -10 5 -10 10 0 6 5 10 10 10 6 0 10 -4 10 -10z m34 2
c3 -5 -1 -9 -9 -9 -8 0 -12 4 -9 9 3 4 7 8 9 8 2 0 6 -4 9 -8z m-236 -106 c-2
-1 -11 -7 -20 -14 -14 -11 -16 -10 -11 7 3 12 11 17 19 14 8 -3 14 -6 12 -7z
m362 -76 c0 -5 -4 -10 -10 -10 -5 0 -10 5 -10 10 0 6 5 10 10 10 6 0 10 -4 10
-10z m95 -8 c-3 -3 -11 0 -18 7 -9 10 -8 11 6 5 10 -3 15 -9 12 -12z m-490 -2
c3 -6 -1 -7 -9 -4 -18 7 -21 14 -7 14 6 0 13 -4 16 -10z m435 -10 c-6 -11 -13
-20 -16 -20 -2 0 0 9 6 20 6 11 13 20 16 20 2 0 0 -9 -6 -20z m-425 -13 c4 5
3 -2 -4 -14 -10 -21 -32 -25 -48 -9 -4 4 -3 7 2 6 30 -6 35 1 14 21 l-24 20
26 -15 c14 -9 29 -13 34 -9z m472 -4 c0 -14 -1 -14 -12 1 -7 8 -16 12 -20 8
-5 -4 -5 -2 -1 5 9 16 33 6 33 -14z m-74 -50 c-3 -6 -11 -9 -19 -6 -20 7 -17
19 5 19 11 0 17 -6 14 -13z m-474 -34 c-13 -26 -17 -24 -15 10 0 22 4 27 13
19 9 -7 10 -16 2 -29z m431 0 c0 -5 -4 -9 -8 -9 -5 0 -9 7 -9 15 0 8 4 12 9 9
4 -3 8 -9 8 -15z m14 -25 c-20 -30 -29 -32 -12 -1 7 12 11 26 10 30 -1 5 2 6
8 2 6 -4 4 -15 -6 -31z m137 -17 c-4 -4 -18 -3 -32 2 -13 5 -18 10 -11 10 7 1
11 5 8 10 -4 5 5 4 18 -2 14 -7 21 -16 17 -20z m-321 3 c0 -5 -4 -10 -10 -10
-5 0 -10 5 -10 10 0 6 5 10 10 10 6 0 10 -4 10 -10z m429 -29 c0 -12 -2 -11
-9 4 -5 11 -9 16 -9 12 -1 -5 -6 -5 -11 -2 -6 4 -8 11 -4 16 8 14 34 -9 33
-30z m-349 9 c-6 -11 -13 -20 -16 -20 -2 0 0 9 6 20 6 11 13 20 16 20 2 0 0
-9 -6 -20z m45 -10 c-3 -5 2 -10 11 -10 10 0 15 -3 11 -6 -10 -10 -39 5 -32
16 3 5 8 10 11 10 3 0 2 -4 -1 -10z m89 -16 c3 -8 2 -12 -4 -9 -6 3 -10 10
-10 16 0 14 7 11 14 -7z m46 12 c0 -3 -4 -8 -10 -11 -5 -3 -10 -1 -10 4 0 6 5
11 10 11 6 0 10 -2 10 -4z m150 -10 c0 -2 -8 -10 -17 -17 -16 -13 -17 -12 -4
4 13 16 21 21 21 13z m-168 -78 c-7 -7 -12 -8 -12 -2 0 14 12 26 19 19 2 -3
-1 -11 -7 -17z m-242 -18 c-14 -9 -6 -15 15 -10 6 1 7 -1 3 -5 -3 -4 -10 -7
-15 -7 -4 0 -18 -4 -30 -9 -17 -6 -21 -5 -17 6 3 7 12 11 20 8 8 -3 14 -2 13
3 -3 17 1 24 14 24 8 0 7 -4 -3 -10z m-82 -35 c-3 -3 -9 2 -12 12 -6 14 -5 15
5 6 7 -7 10 -15 7 -18z m-15 -9 c4 -10 0 -12 -14 -9 -10 3 -16 9 -13 14 8 13
21 11 27 -5z m101 -8 c-2 -3 -13 -6 -24 -5 -24 2 -18 13 9 13 11 0 18 -4 15
-8z m-269 -56 c-3 -3 -11 0 -18 7 -9 10 -8 11 6 5 10 -3 15 -9 12 -12z m36 5
c-6 -8 -7 -18 -3 -22 4 -5 1 -5 -5 -1 -8 4 -13 2 -13 -5 0 -7 -3 -9 -7 -6 -3
4 2 16 12 27 20 22 34 28 16 7z m62 -2 c-3 -9 -8 -14 -10 -11 -3 3 -2 9 2 15
9 16 15 13 8 -4z m81 0 c3 -8 1 -15 -4 -15 -6 0 -10 7 -10 15 0 8 2 15 4 15 2
0 6 -7 10 -15z m-187 -30 c0 -8 -4 -12 -9 -9 -5 3 -6 10 -3 15 9 13 12 11 12
-6z m118 -5 c3 -5 1 -10 -4 -10 -6 0 -11 5 -11 10 0 6 2 10 4 10 3 0 8 -4 11
-10z m-190 -39 c-9 -8 -36 -10 -30 -2 2 4 11 8 20 8 8 0 13 -3 10 -6z m188
-88 c-3 -7 -6 -13 -8 -13 -2 0 -5 6 -8 13 -3 8 1 14 8 14 7 0 11 -6 8 -14z
m-109 -12 c3 -4 -1 -17 -10 -27 -14 -18 -14 -17 -3 5 10 21 9 23 -5 18 -10 -4
-15 -3 -11 3 8 12 22 13 29 1z m-79 -20 c-3 -6 -11 -11 -16 -11 -5 0 -4 6 3
14 14 16 24 13 13 -3z m30 -21 c3 -6 -1 -7 -9 -4 -18 7 -21 14 -7 14 6 0 13
-4 16 -10z m60 -28 c-3 -3 -11 0 -18 7 -9 10 -8 11 6 5 10 -3 15 -9 12 -12z
m36 -5 c-13 -13 -26 -3 -16 12 3 6 11 8 17 5 6 -4 6 -10 -1 -17z m44 -5 c-3
-3 -11 0 -18 7 -9 10 -8 11 6 5 10 -3 15 -9 12 -12z"/>
<path d="M244 4579 c-7 -12 12 -29 32 -29 6 0 17 6 23 14 9 11 7 15 -11 20
-32 8 -36 8 -44 -5z"/>
<path d="M1720 4530 c-8 -5 -27 -10 -42 -10 -16 0 -28 -4 -28 -10 0 -15 29
-11 80 10 26 11 37 19 25 19 -11 1 -27 -4 -35 -9z"/>
<path d="M217 4471 c-6 -27 -25 -61 -121 -211 -19 -30 -42 -72 -52 -92 -10
-21 -24 -38 -31 -38 -11 0 -13 -264 -13 -1479 l0 -1478 46 -18 c40 -15 76 -45
123 -100 17 -21 30 -4 23 32 -4 20 -1 24 14 21 16 -3 19 -13 19 -53 0 -28 6
-60 12 -72 8 -12 15 -76 18 -155 6 -151 24 -419 30 -427 2 -4 6 -62 10 -131 3
-69 10 -143 15 -165 5 -22 10 -55 10 -72 0 -21 5 -33 13 -33 10 0 13 21 10 91
-1 49 -6 95 -9 101 -4 6 -11 106 -16 222 -5 116 -10 243 -12 281 -2 39 -7 148
-10 243 -4 95 -11 185 -17 199 -5 15 -7 33 -4 41 3 8 -2 40 -11 72 -12 44 -13
63 -5 78 15 28 15 208 1 262 -9 34 -9 45 2 51 10 7 10 9 1 9 -9 0 -13 21 -13
70 0 39 4 70 10 70 5 0 8 26 8 58 -1 31 -1 194 0 361 1 166 -1 307 -4 312 -3
5 0 25 5 45 6 21 7 42 3 48 -5 9 -15 309 -15 474 0 28 -4 52 -9 52 -4 0 -8 7
-8 15 0 8 7 15 16 15 8 0 12 5 8 11 -11 19 -15 199 -4 199 7 0 7 6 0 20 -6 11
-20 20 -30 20 -25 0 -26 30 -1 37 28 7 44 91 37 193 -3 47 -8 162 -11 255 -3
94 -8 205 -10 247 -3 42 -1 79 3 82 5 3 3 29 -4 58 -17 62 -18 107 -4 144 11
27 5 64 -9 64 -5 0 -11 -13 -14 -29z m18 -2132 c4 -11 4 -37 0 -57 -9 -44 -12
-152 -5 -152 3 0 5 -34 5 -75 0 -41 -3 -75 -7 -75 -12 0 -9 -38 2 -42 6 -2 12
-16 13 -33 1 -21 -3 -30 -15 -33 -10 -2 -18 2 -18 8 0 6 -13 25 -30 42 -37 36
-37 42 -4 90 26 38 27 39 15 126 -8 63 -8 97 0 122 6 19 10 50 10 68 0 37 24
45 34 11z m-7 -745 c26 -7 31 -44 6 -44 -14 0 -16 -8 -11 -46 3 -30 0 -56 -11
-76 -13 -28 -13 -41 1 -137 14 -90 14 -108 2 -121 -7 -8 -18 -27 -24 -43 -6
-15 -18 -27 -27 -27 -12 0 -14 6 -9 33 4 17 14 40 22 49 12 14 14 28 8 60 -14
71 -3 358 14 358 3 0 16 -3 29 -6z"/>
<path d="M4860 4486 c0 -7 -9 -16 -20 -19 -11 -3 -20 -10 -20 -15 0 -17 48 11
54 30 2 10 0 18 -5 18 -5 0 -9 -6 -9 -14z"/>
<path d="M2192 4464 c10 -10 20 -15 24 -12 3 4 -5 12 -18 18 -22 12 -22 12 -6
-6z"/>
<path d="M2311 4468 c-1 -11 -9 -18 -21 -18 -29 0 -25 -28 5 -36 33 -8 35 -6
25 36 -4 19 -8 27 -9 18z"/>
<path d="M2080 4452 c0 -4 5 -13 12 -20 7 -7 8 -12 3 -12 -4 0 0 -9 9 -19 11
-12 14 -21 7 -26 -17 -10 -13 -35 7 -35 14 0 17 10 19 50 1 44 -1 50 -18 50
-11 0 -17 5 -14 10 3 6 -1 10 -9 10 -9 0 -16 -4 -16 -8z"/>
<path d="M5058 4386 c-27 -30 -48 -60 -48 -67 0 -16 37 18 58 54 11 18 23 26
34 23 14 -3 18 2 18 20 0 13 -3 24 -7 24 -5 0 -29 -25 -55 -54z"/>
<path d="M2169 4404 c-6 -38 -1 -54 16 -54 7 0 16 -6 18 -12 3 -7 6 -3 6 9 1
12 -5 28 -13 35 -8 8 -16 23 -18 34 -3 14 -6 10 -9 -12z"/>
<path d="M2830 4388 c0 -9 -18 -20 -42 -28 -24 -7 -38 -15 -32 -17 6 -2 32 5
58 15 41 16 45 20 32 31 -13 11 -16 11 -16 -1z"/>
<path d="M4770 4385 c-7 -9 -10 -18 -7 -21 3 -3 10 4 17 15 13 25 8 27 -10 6z"/>
<path d="M2237 4332 c-7 -67 -1 -102 19 -102 10 0 14 -14 14 -52 0 -51 0 -51
20 -33 14 12 17 21 9 25 -8 5 -7 19 2 50 11 37 11 43 -4 52 -26 14 -22 73 6
93 l22 16 -26 -6 c-15 -4 -30 -2 -33 4 -15 23 -23 9 -29 -47z"/>
<path d="M3670 4348 c0 -19 2 -20 10 -8 13 19 13 30 0 30 -5 0 -10 -10 -10
-22z"/>
<path d="M4961 4334 c-12 -19 -16 -32 -11 -29 11 7 43 65 36 65 -2 0 -13 -16
-25 -36z"/>
<path d="M4725 4352 c-5 -4 -18 -23 -27 -42 -10 -19 -25 -46 -34 -60 -15 -23
-15 -23 0 -5 9 11 29 34 44 50 41 43 52 83 17 57z"/>
<path d="M2680 4320 c-8 -5 -10 -10 -5 -10 6 0 17 5 25 10 8 5 11 10 5 10 -5
0 -17 -5 -25 -10z"/>
<path d="M3690 4301 c0 -12 6 -21 15 -21 8 0 15 4 15 9 0 5 -7 14 -15 21 -13
10 -15 9 -15 -9z"/>
<path d="M4975 4280 c-3 -5 -2 -10 4 -10 5 0 13 5 16 10 3 6 2 10 -4 10 -5 0
-13 -4 -16 -10z"/>
<path d="M2544 4265 c-17 -13 -16 -14 14 -4 33 11 41 19 19 19 -7 0 -22 -7
-33 -15z"/>
<path d="M3686 4242 c10 -59 12 -326 2 -367 -5 -22 -19 -48 -31 -57 -12 -10
-17 -18 -12 -18 6 0 53 33 106 73 148 112 166 127 148 127 -24 0 -126 143
-154 214 -13 34 -24 55 -24 49 -1 -7 -7 -13 -15 -13 -8 0 -17 6 -20 13 -3 6
-3 -3 0 -21z"/>
<path d="M4727 4263 c-4 -3 -7 -11 -7 -17 0 -6 5 -5 12 2 6 6 9 14 7 17 -3 3
-9 2 -12 -2z"/>
<path d="M4342 4219 c-11 -17 -9 -19 13 -19 28 0 31 6 12 25 -11 11 -16 10
-25 -6z"/>
<path d="M2465 4220 c-3 -6 1 -7 9 -4 18 7 21 14 7 14 -6 0 -13 -4 -16 -10z"/>
<path d="M4599 4173 c-40 -42 -84 -124 -59 -108 6 4 10 11 10 16 0 5 23 39 51
74 28 36 49 65 47 65 -2 0 -24 -21 -49 -47z"/>
<path d="M2150 4206 c0 -2 8 -10 18 -17 15 -13 16 -12 3 4 -13 16 -21 21 -21
13z"/>
<path d="M1378 4067 c-25 -38 -29 -57 -12 -57 9 0 12 5 8 13 -6 9 -4 9 8 -1
14 -11 18 -10 27 7 8 13 8 22 1 26 -6 4 -8 10 -5 15 3 5 1 11 -4 14 -5 3 -15
-4 -23 -17z"/>
<path d="M1912 4027 c-13 -13 -22 -36 -22 -53 l1 -29 17 28 c9 15 22 27 29 27
15 0 17 19 5 38 -6 9 -14 6 -30 -11z"/>
<path d="M1306 4015 c-3 -9 -6 -22 -5 -28 0 -7 5 -1 10 12 5 13 8 26 5 28 -2
2 -6 -3 -10 -12z"/>
<path d="M2140 4014 c0 -8 5 -12 10 -9 6 4 8 11 5 16 -9 14 -15 11 -15 -7z"/>
<path d="M2099 3973 c-13 -16 -12 -17 4 -4 16 13 21 21 13 21 -2 0 -10 -8 -17
-17z"/>
<path d="M3944 3964 c-18 -14 -18 -14 6 -3 31 14 36 19 24 19 -6 0 -19 -7 -30
-16z"/>
<path d="M1924 3935 c-20 -22 -28 -39 -22 -47 6 -10 8 -8 8 5 0 10 8 17 20 17
11 0 20 7 20 15 0 8 5 15 10 15 6 0 10 7 10 15 0 23 -12 17 -46 -20z"/>
<path d="M1996 3925 c-9 -13 -16 -27 -16 -31 0 -4 -12 -17 -27 -30 -16 -13
-24 -24 -20 -24 14 0 116 94 111 102 -10 15 -32 8 -48 -17z"/>
<path d="M2263 3939 c-13 -5 -23 -13 -23 -19 0 -13 17 -13 25 0 9 15 35 12 35
-5 0 -9 6 -12 15 -9 21 9 19 19 -7 31 -14 6 -32 7 -45 2z"/>
<path d="M3894 3928 l-19 -23 23 19 c21 18 27 26 19 26 -2 0 -12 -10 -23 -22z"/>
<path d="M2735 3920 c-3 -5 -2 -10 4 -10 5 0 13 5 16 10 3 6 2 10 -4 10 -5 0
-13 -4 -16 -10z"/>
<path d="M2700 3900 c-9 -6 -10 -10 -3 -10 6 0 15 5 18 10 8 12 4 12 -15 0z"/>
<path d="M3849 3893 c-13 -16 -12 -17 4 -4 16 13 21 21 13 21 -2 0 -10 -8 -17
-17z"/>
<path d="M2133 3852 c-29 -20 -52 -40 -53 -43 0 -3 11 -11 24 -17 18 -8 28 -7
43 3 10 9 13 14 6 15 -18 0 -16 29 2 36 8 4 21 1 28 -4 17 -15 40 1 35 24 -5
30 -29 26 -85 -14z"/>
<path d="M1874 3855 c-23 -18 -54 -19 -54 -3 0 14 -69 -52 -70 -67 0 -5 5 -4
12 3 7 7 26 12 43 12 22 0 41 10 65 35 36 37 37 45 4 20z"/>
<path d="M3774 3837 c-22 -18 -51 -40 -65 -50 -23 -17 -23 -17 7 -1 30 16 114
83 104 83 -3 0 -23 -14 -46 -32z"/>
<path d="M2257 3826 c-16 -12 -17 -17 -5 -38 7 -12 14 -25 15 -26 1 -2 10 1
20 7 17 10 17 10 1 11 -22 0 -24 28 -3 36 8 4 12 10 9 15 -7 12 -16 11 -37 -5z"/>
<path d="M3396 3808 c10 -14 21 -24 23 -22 3 3 -6 15 -18 27 l-24 22 19 -27z"/>
<path d="M1621 3801 c-8 -6 -9 -11 -3 -15 6 -3 14 -1 17 5 9 14 2 20 -14 10z"/>
<path d="M2612 3801 c-10 -6 -10 -10 3 -21 13 -11 15 -9 15 9 0 24 0 24 -18
12z"/>
<path d="M3815 3769 c-61 -46 -65 -54 -13 -23 26 16 50 34 53 41 6 16 7 17
-40 -18z"/>
<path d="M2170 3764 c-24 -23 -24 -24 -6 -41 13 -13 20 -15 23 -5 3 6 11 12
18 12 21 0 25 27 7 43 -15 13 -20 12 -42 -9z"/>
<path d="M1854 3769 c-3 -6 -15 -8 -26 -6 -10 3 -37 -4 -58 -15 -31 -17 -37
-23 -25 -32 7 -6 15 -18 17 -26 2 -10 20 1 58 38 30 28 51 52 48 52 -4 0 -10
-5 -14 -11z"/>
<path d="M2013 3761 c-31 -26 -29 -32 7 -24 20 3 30 1 30 -6 0 -8 5 -7 15 3
19 19 19 32 -1 40 -22 9 -26 8 -51 -13z"/>
<path d="M3567 3764 c-16 -9 -27 -18 -24 -20 3 -3 20 4 38 15 39 24 28 28 -14
5z"/>
<path d="M2342 3761 c-10 -6 -9 -13 5 -30 16 -20 21 -21 31 -9 9 12 8 18 -6
31 -10 9 -23 13 -30 8z"/>
<path d="M2253 3714 c-33 -17 -35 -19 -37 -64 -1 -14 -10 -29 -23 -35 -15 -8
-19 -15 -13 -25 6 -10 19 -4 57 27 26 21 58 46 70 54 21 14 21 17 7 37 -18 26
-20 26 -61 6z"/>
<path d="M2030 3652 c-121 -108 -334 -327 -415 -426 -22 -27 -48 -58 -57 -68
-10 -10 -18 -21 -18 -24 0 -3 -9 -19 -21 -35 l-20 -29 24 0 c16 0 33 13 54 43
44 61 313 327 331 327 3 0 19 12 34 27 25 24 31 26 49 15 26 -17 33 -10 35 32
0 28 -2 32 -18 28 -30 -8 -21 23 18 58 46 40 87 39 92 -2 2 -16 7 -28 12 -28
4 0 11 -18 15 -41 4 -22 9 -38 12 -36 2 3 -2 33 -9 67 -12 60 -12 63 9 77 23
15 21 43 -3 43 -7 0 -18 9 -24 20 -6 11 -14 20 -18 19 -4 0 -41 -30 -82 -67z"/>
<path d="M1940 3700 c0 -5 4 -10 9 -10 6 0 13 5 16 10 3 6 -1 10 -9 10 -9 0
-16 -4 -16 -10z"/>
<path d="M3400 3701 c0 -5 5 -13 10 -16 6 -3 10 -2 10 4 0 5 -4 13 -10 16 -5
3 -10 2 -10 -4z"/>
<path d="M2820 3691 c0 -4 11 -6 25 -3 14 2 25 6 25 8 0 2 -11 4 -25 4 -14 0
-25 -4 -25 -9z"/>
<path d="M2360 3669 c0 -5 5 -7 10 -4 6 3 10 8 10 11 0 2 -4 4 -10 4 -5 0 -10
-5 -10 -11z"/>
<path d="M3580 3670 c-8 -5 -10 -10 -5 -10 6 0 17 5 25 10 8 5 11 10 5 10 -5
0 -17 -5 -25 -10z"/>
<path d="M3663 3670 c-13 -5 -23 -12 -23 -15 0 -9 16 -5 36 10 22 16 19 18
-13 5z"/>
<path d="M3420 3654 c0 -15 26 -19 34 -5 3 5 -3 11 -14 14 -13 3 -20 0 -20 -9z"/>
<path d="M2758 3639 c-20 -11 -24 -39 -7 -39 6 0 13 9 16 19 3 11 12 22 22 24
12 4 13 5 1 6 -8 0 -23 -4 -32 -10z"/>
<path d="M1312 3615 c0 -16 2 -22 5 -12 2 9 2 23 0 30 -3 6 -5 -1 -5 -18z"/>
<path d="M3582 3620 c-18 -11 -36 -20 -41 -20 -4 0 -45 -21 -92 -46 -46 -26
-105 -58 -131 -72 -26 -14 -46 -27 -45 -29 6 -5 137 54 155 70 10 9 22 17 25
17 19 0 156 73 161 86 7 18 7 18 -32 -6z"/>
<path d="M3435 3600 c-3 -6 1 -7 9 -4 18 7 21 14 7 14 -6 0 -13 -4 -16 -10z"/>
<path d="M1265 3579 c-4 -6 -5 -12 -2 -15 2 -3 7 2 10 11 7 17 1 20 -8 4z"/>
<path d="M3940 3570 c-10 -19 -10 -20 10 -8 17 11 22 11 31 -2 9 -12 10 -12 5
3 -3 10 -6 21 -6 23 0 13 -31 1 -40 -16z"/>
<path d="M1361 3545 c-2 -31 30 -105 45 -105 18 0 17 -20 -1 -44 -19 -25 -19
-36 0 -36 9 0 18 -7 21 -15 4 -8 10 -15 15 -15 12 0 11 57 -1 65 -5 3 -10 18
-10 33 0 52 -20 102 -40 102 -10 0 -21 8 -23 18 -4 14 -5 14 -6 -3z"/>
<path d="M3204 3492 c-64 -38 -110 -72 -107 -79 5 -12 80 23 113 51 8 8 39 26
68 41 28 14 52 33 52 41 0 7 -3 14 -7 14 -5 0 -58 -31 -119 -68z"/>
<path d="M1480 3535 c0 -8 -7 -15 -15 -15 -9 0 -12 -6 -9 -15 8 -20 23 -19 31
3 4 9 11 20 16 23 5 3 2 9 -7 12 -10 4 -16 1 -16 -8z"/>
<path d="M2075 3540 c-19 -8 -19 -9 3 -9 12 -1 22 4 22 9 0 6 -1 10 -2 9 -2 0
-12 -4 -23 -9z"/>
<path d="M2185 3540 c4 -6 11 -8 16 -5 14 9 11 15 -7 15 -8 0 -12 -5 -9 -10z"/>
<path d="M1250 3502 c0 -22 4 -43 9 -46 5 -4 7 12 4 36 -8 57 -13 61 -13 10z"/>
<path d="M1292 3515 c0 -16 2 -22 5 -12 2 9 2 23 0 30 -3 6 -5 -1 -5 -18z"/>
<path d="M2673 3525 c-18 -8 -33 -16 -33 -18 0 -10 50 6 61 19 14 17 13 17
-28 -1z"/>
<path d="M1541 3497 c-5 -7 -6 -18 -2 -25 6 -9 12 -8 25 7 14 16 15 19 2 24
-8 3 -19 0 -25 -6z"/>
<path d="M1322 3471 c-10 -6 -10 -10 3 -21 13 -11 15 -9 15 9 0 24 0 24 -18
12z"/>
<path d="M4015 3470 c-4 -7 -18 -10 -31 -7 -14 2 -27 0 -30 -4 -8 -14 -74 -11
-74 3 0 7 -12 -5 -26 -25 -30 -44 -26 -57 10 -33 37 24 116 48 138 43 11 -3
22 0 25 9 7 19 -3 29 -12 14z"/>
<path d="M1720 3413 l-55 -58 58 55 c31 30 57 56 57 57 0 8 -10 -1 -60 -54z"/>
<path d="M1460 3447 c0 -17 28 -43 37 -33 3 3 1 6 -5 6 -7 0 -12 6 -12 14 0 8
-4 18 -10 21 -5 3 -10 0 -10 -8z"/>
<path d="M3239 3433 c-13 -16 -12 -17 4 -4 16 13 21 21 13 21 -2 0 -10 -8 -17
-17z"/>
<path d="M2408 3432 c-10 -2 -18 -10 -18 -18 0 -8 -8 -14 -17 -15 -15 0 -15
-2 2 -8 12 -5 22 -4 24 3 2 6 11 16 20 23 19 13 13 21 -11 15z"/>
<path d="M1317 3413 c-13 -12 -7 -39 13 -56 19 -16 20 -16 20 12 0 29 -21 57
-33 44z"/>
<path d="M3909 3382 c-41 -20 -95 -46 -119 -56 -151 -64 -178 -79 -173 -92 10
-26 45 -26 117 1 113 43 153 66 208 122 29 29 50 55 47 57 -2 3 -38 -12 -80
-32z"/>
<path d="M1915 3400 c-3 -6 1 -7 9 -4 18 7 21 14 7 14 -6 0 -13 -4 -16 -10z"/>
<path d="M2210 3400 c-12 -8 -9 -10 13 -10 15 0 27 5 27 10 0 13 -20 13 -40 0z"/>
<path d="M2290 3384 c0 -8 9 -14 20 -14 11 0 20 4 20 9 0 5 -9 11 -20 14 -13
3 -20 0 -20 -9z"/>
<path d="M2920 3380 c0 -6 7 -10 15 -10 8 0 15 2 15 4 0 2 -7 6 -15 10 -8 3
-15 1 -15 -4z"/>
<path d="M4023 3375 c0 -8 4 -12 9 -9 4 3 8 9 8 15 0 5 -4 9 -8 9 -5 0 -9 -7
-9 -15z"/>
<path d="M2424 3374 c-7 -3 -10 -13 -7 -23 11 -41 153 -32 153 9 0 15 -7 20
-29 20 -24 0 -28 -3 -24 -20 4 -15 0 -20 -16 -20 -11 0 -26 9 -33 20 -13 20
-22 23 -44 14z"/>
<path d="M2880 3346 c0 -17 -6 -18 -65 -11 -62 6 -64 6 -70 -18 -4 -13 -5 -42
-3 -65 l3 -41 52 44 c29 24 64 51 78 62 18 13 22 22 15 33 -8 13 -10 12 -10
-4z"/>
<path d="M1883 3309 c-40 -30 -53 -46 -53 -66 0 -14 1 -24 3 -22 2 2 29 32 62
67 32 34 54 62 49 61 -5 0 -33 -18 -61 -40z"/>
<path d="M2616 3343 c-3 -3 -6 -17 -6 -29 0 -17 4 -22 15 -18 8 4 15 14 15 24
0 20 -13 33 -24 23z"/>
<path d="M3990 3335 c-24 -14 -24 -14 -4 -15 12 0 24 7 28 15 6 18 7 18 -24 0z"/>
<path d="M1594 3280 c-27 -33 -54 -60 -60 -60 -7 0 -14 -9 -17 -20 -7 -28 7
-25 28 6 9 14 24 33 34 43 22 22 75 91 69 91 -2 0 -26 -27 -54 -60z"/>
<path d="M2230 3320 c-13 -8 -12 -10 3 -10 9 0 17 5 17 10 0 12 -1 12 -20 0z"/>
<path d="M1391 3303 c-1 -13 -7 -23 -16 -23 -8 0 -15 -9 -15 -20 0 -23 28 -70
41 -70 5 0 2 11 -7 25 -14 22 -15 30 -4 49 6 13 10 32 7 42 -4 16 -5 15 -6 -3z"/>
<path d="M2670 3310 c0 -5 5 -10 10 -10 6 0 10 -27 10 -60 0 -33 4 -60 10 -60
6 0 10 30 10 70 0 63 -2 70 -20 70 -11 0 -20 -4 -20 -10z"/>
<path d="M2368 3303 c6 -2 18 -2 25 0 6 3 1 5 -13 5 -14 0 -19 -2 -12 -5z"/>
<path d="M2907 3290 c-25 -25 -5 -34 23 -12 18 14 20 20 9 24 -8 3 -22 -3 -32
-12z"/>
<path d="M3921 3280 c-13 -11 -18 -20 -12 -20 6 0 3 -9 -6 -20 -13 -14 -19
-16 -25 -7 -6 9 -8 9 -8 0 0 -24 18 -21 45 7 16 17 30 37 31 45 3 18 4 19 -25
-5z"/>
<path d="M2174 3265 c-7 -18 -44 -20 -44 -3 0 7 -13 -3 -29 -22 -35 -42 -32
-49 7 -21 17 12 36 21 44 21 7 1 24 7 37 14 20 11 21 14 7 19 -10 4 -19 1 -22
-8z"/>
<path d="M2335 3258 c-11 -6 -26 -14 -34 -18 -15 -6 -23 -60 -9 -60 15 0 8
-34 -17 -76 -18 -30 -21 -42 -11 -38 8 3 20 21 26 39 6 19 14 35 18 37 9 3 82
113 82 122 0 10 -33 6 -55 -6z"/>
<path d="M2450 3255 c0 -8 -9 -20 -21 -29 -11 -8 -28 -25 -37 -38 l-16 -23 26
17 c26 17 78 65 78 72 0 2 -7 6 -15 10 -9 3 -15 0 -15 -9z"/>
<path d="M2577 3263 c-13 -12 -7 -23 13 -23 13 0 18 5 14 15 -7 16 -17 19 -27
8z"/>
<path d="M2646 3261 c-4 -7 -5 -15 -2 -18 9 -9 19 4 14 18 -4 11 -6 11 -12 0z"/>
<path d="M1436 3244 c-12 -8 -15 -14 -7 -14 10 0 12 -12 9 -45 -3 -24 -2 -42
3 -40 13 8 38 65 29 65 -5 0 -10 11 -12 24 -3 23 -5 23 -22 10z"/>
<path d="M2794 3195 c-48 -41 -69 -67 -64 -75 5 -9 26 4 71 45 35 32 67 61 71
64 4 3 4 11 0 18 -5 7 -32 -11 -78 -52z"/>
<path d="M2213 3228 c-13 -6 -23 -17 -23 -25 0 -8 6 -12 13 -9 6 3 20 9 30 12
9 4 17 13 17 20 0 16 -7 17 -37 2z"/>
<path d="M2914 3209 c-17 -18 -22 -28 -12 -24 14 6 55 55 45 55 -2 0 -16 -14
-33 -31z"/>
<path d="M3840 3230 c-9 -6 -10 -10 -3 -10 6 0 15 5 18 10 8 12 4 12 -15 0z"/>
<path d="M2024 3217 c-2 -7 0 -24 5 -38 9 -22 10 -21 10 14 1 37 -5 48 -15 24z"/>
<path d="M3793 3201 c0 -11 5 -17 9 -15 5 3 6 9 3 14 -3 4 1 11 7 13 8 4 7 6
-4 6 -11 1 -16 -6 -15 -18z"/>
<path d="M1758 3191 c-24 -24 -23 -31 6 -31 31 0 43 18 25 35 -12 11 -17 10
-31 -4z"/>
<path d="M2448 3165 c-33 -30 -48 -52 -48 -70 0 -22 4 -25 38 -24 32 1 33 2
12 8 -25 7 -39 38 -23 50 14 11 77 81 72 81 -2 0 -25 -20 -51 -45z"/>
<path d="M3505 3189 c-27 -17 -28 -19 -8 -19 12 0 25 -4 28 -10 3 -5 14 -10
23 -10 14 0 13 2 -3 14 -11 8 -16 19 -12 30 4 9 5 16 4 15 -1 0 -15 -9 -32
-20z"/>
<path d="M3756 3201 c-4 -5 -2 -12 3 -15 5 -4 12 -2 15 3 4 5 2 12 -3 15 -5 4
-12 2 -15 -3z"/>
<path d="M3580 3190 c0 -6 7 -10 15 -10 8 0 15 2 15 4 0 2 -7 6 -15 10 -8 3
-15 1 -15 -4z"/>
<path d="M3736 3175 c4 -8 11 -15 16 -15 6 0 5 6 -2 15 -7 8 -14 15 -16 15 -2
0 -1 -7 2 -15z"/>
<path d="M2236 3165 c-19 -15 -19 -15 1 -15 11 0 23 7 27 15 7 19 -3 19 -28 0z"/>
<path d="M2640 3149 c0 -16 4 -28 9 -25 8 5 3 56 -5 56 -2 0 -4 -14 -4 -31z"/>
<path d="M3704 3171 c3 -5 -1 -11 -9 -15 -8 -3 -14 -13 -14 -23 1 -17 2 -17 6
0 3 12 10 16 24 12 23 -8 27 20 3 29 -8 3 -13 2 -10 -3z"/>
<path d="M1497 3163 c-4 -3 -7 -11 -7 -17 0 -6 5 -5 12 2 6 6 9 14 7 17 -3 3
-9 2 -12 -2z"/>
<path d="M3632 3158 c-7 -7 -12 -19 -12 -27 1 -11 5 -8 13 7 7 12 16 19 20 16
11 -11 8 -26 -3 -19 -5 3 -10 0 -10 -8 0 -20 26 -17 27 4 2 25 -20 42 -35 27z"/>
<path d="M1367 3132 c-3 -15 -2 -31 3 -35 4 -5 10 6 12 23 6 39 -8 50 -15 12z"/>
<path d="M2365 3149 c-4 -6 -5 -12 -2 -15 2 -3 7 2 10 11 7 17 1 20 -8 4z"/>
<path d="M2500 3145 c-11 -13 -8 -15 15 -15 23 0 26 2 15 15 -7 8 -14 15 -15
15 -1 0 -8 -7 -15 -15z"/>
<path d="M1698 3123 c-14 -16 -44 -55 -68 -88 -42 -59 -43 -60 -9 -30 54 48
76 57 122 50 41 -6 42 -6 42 22 1 26 -10 42 -27 43 -5 0 -8 -11 -8 -25 0 -16
-6 -25 -16 -25 -13 0 -15 8 -12 40 2 22 3 40 3 40 -1 0 -13 -12 -27 -27z"/>
<path d="M1928 3143 c7 -3 16 -2 19 1 4 3 -2 6 -13 5 -11 0 -14 -3 -6 -6z"/>
<path d="M3760 3104 c-25 -20 -57 -42 -72 -50 -16 -8 -28 -21 -28 -30 0 -8 -7
-17 -15 -20 -8 -4 -15 -12 -15 -20 0 -8 -7 -14 -15 -14 -8 0 -15 -9 -15 -20 0
-11 5 -20 10 -20 6 0 10 5 10 10 0 17 28 11 39 -7 9 -15 11 -13 12 12 1 17 1
41 0 55 -1 20 12 35 69 78 61 47 78 62 68 62 -2 0 -23 -16 -48 -36z"/>
<path d="M2026 3123 c-3 -4 -25 -10 -49 -13 l-42 -6 39 -17 c40 -18 66 -10 66
18 0 8 6 16 13 18 8 4 6 6 -4 6 -9 1 -19 -2 -23 -6z"/>
<path d="M2147 3088 c-25 -25 -32 -38 -22 -38 8 0 15 -8 15 -17 0 -10 3 -13 8
-7 10 10 44 96 40 98 -2 1 -20 -15 -41 -36z"/>
<path d="M3568 3125 c-8 -8 23 -74 35 -75 4 0 1 12 -6 28 -8 15 -16 33 -18 40
-3 7 -7 10 -11 7z"/>
<path d="M1281 3105 c0 -5 8 -21 18 -34 10 -14 17 -31 14 -38 -3 -7 0 -13 7
-13 6 0 8 5 5 10 -3 6 1 13 9 16 12 5 13 10 4 24 -7 10 -18 16 -26 12 -11 -4
-13 -1 -7 8 5 8 4 11 -3 6 -5 -3 -13 0 -15 6 -3 7 -6 9 -6 3z"/>
<path d="M1412 3090 c0 -14 2 -19 5 -12 2 6 2 18 0 25 -3 6 -5 1 -5 -13z"/>
<path d="M3371 3104 c-1 -6 5 -27 13 -46 30 -71 85 -323 86 -390 0 -22 5 -28
23 -28 28 -1 57 -22 57 -44 0 -9 7 -16 16 -16 12 0 15 -6 10 -22 -3 -13 -6
-26 -6 -30 0 -5 -6 -8 -12 -8 -7 0 -21 -14 -30 -30 -18 -31 -48 -41 -48 -15 0
8 9 29 20 47 19 31 30 80 12 51 -4 -7 -61 -23 -126 -35 -100 -20 -124 -28
-154 -54 -34 -29 -35 -31 -14 -36 15 -4 22 -2 22 8 0 8 10 14 25 14 15 0 25 6
25 14 0 15 30 26 76 26 39 0 54 -27 52 -93 -1 -41 -5 -51 -24 -59 -13 -6 -21
-15 -18 -19 9 -14 18 -11 52 21 55 50 61 43 60 -67 0 -184 -27 -336 -73 -407
-7 -11 -39 -77 -70 -146 -32 -69 -76 -156 -98 -193 -31 -53 -37 -71 -27 -77
10 -6 11 -24 7 -67 -8 -74 -15 -93 -34 -93 -12 0 -14 7 -9 33 17 81 19 120 7
113 -23 -14 -65 -120 -65 -165 l-1 -44 96 -42 c257 -113 366 -245 436 -530 14
-55 26 -101 27 -102 1 -1 0 41 -2 93 -3 60 0 110 8 133 6 20 10 52 8 71 l-4
35 -12 -28 c-15 -35 -47 -38 -38 -2 6 23 4 24 -23 19 -29 -6 -30 -5 -33 37 -3
40 -6 44 -31 47 -23 3 -28 8 -24 23 4 13 0 19 -13 19 -10 0 -23 13 -30 30 -8
19 -20 30 -32 30 -16 0 -19 5 -14 23 3 12 6 34 6 50 0 15 6 27 13 27 10 0 13
33 13 152 0 84 -2 131 -4 103 -2 -27 -7 -54 -13 -59 -5 -6 -9 -23 -9 -38 0
-18 -5 -28 -15 -28 -10 0 -15 10 -15 30 0 17 -9 39 -21 51 -11 11 -18 27 -15
36 3 8 3 20 -1 26 -5 7 -10 -2 -13 -23 -3 -24 -11 -36 -24 -38 -16 -4 -18 0
-12 28 3 18 6 61 6 96 0 50 3 64 15 64 9 0 15 -9 15 -24 0 -15 7 -26 19 -29
14 -3 21 -18 26 -56 4 -28 10 -51 15 -51 4 0 10 24 13 53 3 38 1 57 -10 69
-16 17 -10 72 8 83 5 4 9 26 9 49 0 87 11 136 31 136 11 0 19 -5 19 -12 0 -6
2 -9 5 -6 3 3 14 63 25 134 11 71 24 146 29 167 9 36 -4 87 -21 87 -11 0 -10
34 1 45 5 6 11 29 13 53 4 42 3 43 -24 37 -26 -6 -28 -4 -28 24 0 29 24 45 32
21 2 -5 13 -7 25 -4 19 5 22 15 28 94 10 124 -3 272 -30 350 -39 113 -74 180
-96 180 -10 0 -19 7 -19 15 0 8 -5 24 -12 34 -9 15 -8 22 5 35 8 9 23 16 31
16 9 0 16 7 16 15 0 22 -38 18 -52 -5 -17 -26 -36 -25 -48 3 -5 12 -9 17 -9
11z"/>
<path d="M2517 3093 c-4 -3 -7 -25 -6 -47 l1 -41 9 44 c9 45 8 56 -4 44z"/>
<path d="M1891 3080 c-1 -9 -16 -21 -35 -28 -34 -12 -50 -40 -36 -61 4 -8 13
-3 26 15 10 14 27 35 38 44 10 10 16 24 13 32 -4 9 -6 9 -6 -2z"/>
<path d="M1593 3068 c-15 -18 -35 -58 -29 -58 2 0 13 16 25 35 20 35 22 46 4
23z"/>
<path d="M2206 3065 c-9 -26 -7 -32 5 -12 6 10 9 21 6 23 -2 3 -7 -2 -11 -11z"/>
<path d="M2590 3066 c0 -9 5 -16 10 -16 6 0 10 4 10 9 0 6 -4 13 -10 16 -5 3
-10 -1 -10 -9z"/>
<path d="M2660 3054 c0 -8 5 -12 10 -9 6 4 8 11 5 16 -9 14 -15 11 -15 -7z"/>
<path d="M1446 3051 c-4 -5 -3 -17 1 -27 6 -16 7 -16 20 2 7 10 13 21 13 26 0
11 -27 10 -34 -1z"/>
<path d="M2360 3050 c0 -5 5 -10 11 -10 5 0 7 5 4 10 -3 6 -8 10 -11 10 -2 0
-4 -4 -4 -10z"/>
<path d="M2040 3030 c-6 -11 -8 -20 -6 -20 3 0 10 9 16 20 6 11 8 20 6 20 -3
0 -10 -9 -16 -20z"/>
<path d="M1384 3031 c4 -5 0 -12 -6 -14 -8 -3 -5 -6 6 -6 14 -1 17 -6 12 -26
-4 -14 -2 -25 2 -25 8 0 9 24 4 68 -1 6 -7 12 -13 12 -5 0 -8 -4 -5 -9z"/>
<path d="M2086 3024 c-3 -8 1 -14 8 -14 8 0 16 -6 19 -12 2 -7 8 -10 11 -6 4
3 -1 15 -12 26 -17 17 -22 18 -26 6z"/>
<path d="M2420 3030 c19 -13 30 -13 30 0 0 6 -10 10 -22 10 -19 0 -20 -2 -8
-10z"/>
<path d="M1917 3022 c-24 -5 -49 -57 -52 -106 l-2 -40 19 44 c11 25 28 55 40
67 23 25 21 40 -5 35z"/>
<path d="M2327 3010 c-3 -11 -15 -24 -27 -28 -17 -6 -19 -10 -8 -19 7 -5 25
-13 41 -17 23 -5 27 -11 27 -41 0 -28 -4 -35 -20 -35 -12 0 -20 -7 -20 -17 0
-19 17 -50 22 -43 2 3 36 42 76 86 77 87 77 94 6 94 -21 0 -42 8 -54 20 -25
25 -36 25 -43 0z"/>
<path d="M2640 3019 c0 -5 5 -7 10 -4 6 3 10 8 10 11 0 2 -4 4 -10 4 -5 0 -10
-5 -10 -11z"/>
<path d="M3587 3000 c3 -11 7 -20 9 -20 2 0 4 9 4 20 0 11 -4 20 -9 20 -5 0
-7 -9 -4 -20z"/>
<path d="M2850 2976 c0 -15 -15 -38 -43 -63 -32 -30 -43 -47 -45 -76 -4 -42 5
-42 67 0 29 20 31 23 12 23 -31 0 -26 19 15 54 25 22 34 36 29 48 -4 10 -12
15 -19 11 -6 -4 -5 1 3 10 12 15 11 17 -3 17 -10 0 -16 -9 -16 -24z"/>
<path d="M3525 2973 c27 -51 55 -122 56 -140 1 -12 3 -10 8 7 8 28 3 60 -10
60 -4 0 -11 17 -15 38 -7 42 -20 62 -40 62 -11 0 -10 -5 1 -27z"/>
<path d="M1473 2982 c-25 -4 -32 -22 -8 -22 8 0 15 -4 15 -8 0 -5 11 -14 25
-20 21 -10 25 -9 25 3 0 8 -4 15 -10 15 -5 0 -10 6 -10 14 0 19 -9 23 -37 18z"/>
<path d="M1705 2968 c-60 -44 -94 -77 -85 -83 6 -3 10 -1 10 4 0 6 15 11 34
11 28 0 35 4 38 23 2 14 11 23 27 25 20 3 23 0 19 -16 -4 -15 -2 -19 9 -15 8
3 12 12 9 20 -3 8 -6 23 -6 34 0 25 -18 24 -55 -3z"/>
<path d="M2169 2985 c-3 -6 -2 -26 2 -45 4 -22 7 -27 8 -12 0 12 7 22 14 22 8
0 9 3 1 8 -6 4 -13 14 -16 22 -2 7 -7 10 -9 5z"/>
<path d="M1955 2964 c-8 -9 -27 -39 -42 -68 l-25 -51 25 28 c26 27 42 32 70
21 24 -9 11 -141 -19 -181 -30 -40 -29 -56 5 -118 19 -34 40 -56 67 -70 21
-11 41 -23 42 -27 10 -21 44 -4 67 32 28 44 30 50 15 50 -5 0 -10 -7 -10 -15
0 -31 -56 -17 -99 24 -46 44 -44 39 -30 101 25 113 29 120 54 120 32 0 32 14
1 28 -30 13 -72 68 -81 105 -9 35 -20 41 -40 21z"/>
<path d="M2060 2970 c0 -5 -7 -10 -15 -10 -21 0 -19 -8 11 -47 22 -30 27 -32
40 -18 10 10 13 23 8 37 -10 34 -44 63 -44 38z"/>
<path d="M1339 2963 c-5 -30 -2 -59 6 -65 18 -14 35 -9 28 9 -4 11 -3 14 5 9
7 -4 12 -2 12 3 0 10 -13 15 -31 13 -4 -1 -5 8 -2 18 3 11 0 20 -6 20 -6 0
-12 -3 -12 -7z"/>
<path d="M1377 2949 c7 -7 15 -10 18 -7 3 3 -2 9 -12 12 -14 6 -15 5 -6 -5z"/>
<path d="M1422 2908 c-17 -37 -20 -53 -12 -73 6 -15 10 -40 10 -56 0 -24 -4
-29 -25 -29 -38 0 -30 -15 9 -17 29 -1 35 2 40 25 3 15 23 47 45 72 22 24 38
47 35 49 -3 3 -19 10 -37 16 -21 7 -33 18 -37 35 -5 22 -7 21 -28 -22z"/>
<path d="M2515 2940 c-3 -5 1 -10 10 -10 9 0 13 5 10 10 -3 6 -8 10 -10 10 -2
0 -7 -4 -10 -10z"/>
<path d="M2990 2935 c-8 -9 -8 -15 -2 -15 12 0 26 19 19 26 -2 2 -10 -2 -17
-11z"/>
<path d="M1811 2918 c-12 -12 -17 -24 -11 -26 5 -2 10 -11 10 -20 1 -9 7 1 15
23 17 48 14 53 -14 23z"/>
<path d="M2254 2925 c4 -11 12 -42 18 -70 6 -27 17 -61 25 -75 9 -16 12 -18 8
-5 -4 11 -12 47 -17 80 -6 33 -18 67 -26 75 -13 13 -14 13 -8 -5z"/>
<path d="M2596 2932 c-4 -6 -2 -21 4 -33 7 -12 10 -37 8 -55 -3 -22 0 -34 8
-34 9 0 11 11 7 38 -10 68 -19 97 -27 84z"/>
<path d="M2434 2852 c-60 -68 -90 -112 -77 -112 9 0 120 120 136 147 4 6 4 14
-1 17 -5 3 -31 -21 -58 -52z"/>
<path d="M2657 2869 c3 -58 13 -62 13 -6 0 26 -4 47 -8 47 -4 0 -7 -19 -5 -41z"/>
<path d="M2960 2895 c-8 -9 -8 -15 -2 -15 12 0 26 19 19 26 -2 2 -10 -2 -17
-11z"/>
<path d="M1357 2845 c9 -19 18 -34 19 -32 7 7 -13 62 -23 64 -9 2 -8 -7 4 -32z"/>
<path d="M1555 2841 c-42 -38 -75 -87 -75 -109 0 -11 -10 -26 -22 -34 -22 -15
-21 -15 25 -22 57 -9 72 0 99 61 10 23 25 49 33 57 14 13 13 17 -3 33 -11 10
-21 23 -23 30 -3 7 -16 1 -34 -16z"/>
<path d="M1690 2854 c0 -8 5 -12 10 -9 6 3 10 10 10 16 0 5 -4 9 -10 9 -5 0
-10 -7 -10 -16z"/>
<path d="M1847 2849 c-3 -12 0 -34 8 -48 14 -25 15 -24 8 19 -7 54 -9 57 -16
29z"/>
<path d="M2130 2856 c0 -8 -5 -16 -12 -18 -7 -3 -6 -7 5 -11 13 -5 17 -1 17
18 0 14 -2 25 -5 25 -3 0 -5 -6 -5 -14z"/>
<path d="M2436 2754 c-73 -83 -192 -242 -203 -270 -3 -8 2 -14 11 -14 9 0 16
4 16 9 0 5 7 11 16 13 9 2 21 19 28 38 20 59 89 159 114 166 24 7 52 -10 52
-32 0 -7 -9 -30 -20 -51 l-21 -38 26 30 c39 46 50 82 36 109 -15 26 1 101 22
109 6 2 9 7 6 11 -4 4 -41 -32 -83 -80z"/>
<path d="M2180 2820 c0 -5 7 -7 15 -4 8 4 15 8 15 10 0 2 -7 4 -15 4 -8 0 -15
-4 -15 -10z"/>
<path d="M1773 2775 c0 -46 12 -59 24 -27 4 9 11 20 16 23 15 10 -3 49 -22 49
-14 0 -18 -9 -18 -45z"/>
<path d="M1911 2801 c-7 -5 -9 -11 -4 -14 4 -3 17 1 28 9 21 16 0 20 -24 5z"/>
<path d="M2228 2803 c7 -3 16 -2 19 1 4 3 -2 6 -13 5 -11 0 -14 -3 -6 -6z"/>
<path d="M1674 2783 c-17 -8 -35 -23 -41 -33 -11 -16 -9 -16 13 -6 13 6 24 14
24 19 0 4 6 7 14 7 8 0 16 7 20 15 3 8 4 15 3 14 -1 0 -16 -7 -33 -16z"/>
<path d="M2627 2787 c-11 -29 -9 -43 4 -30 6 6 9 19 7 29 -3 18 -4 18 -11 1z"/>
<path d="M2208 2777 c-12 -29 -10 -63 3 -50 6 6 9 23 7 39 -2 24 -4 26 -10 11z"/>
<path d="M2528 2783 c0 -5 -1 -39 -2 -78 -1 -57 -6 -77 -25 -105 l-25 -35 25
20 c13 11 42 36 64 55 22 19 54 45 70 58 l30 22 -35 -3 c-30 -2 -35 1 -38 22
-2 13 -10 30 -17 38 -15 14 -44 18 -47 6z"/>
<path d="M2150 2760 c6 -11 13 -20 16 -20 2 0 0 9 -6 20 -6 11 -13 20 -16 20
-2 0 0 -9 6 -20z"/>
<path d="M1731 2754 c0 -11 3 -14 6 -6 3 7 2 16 -1 19 -3 4 -6 -2 -5 -13z"/>
<path d="M2248 2739 c-3 -19 -8 -43 -12 -54 -6 -16 -4 -15 13 5 22 27 26 47
12 69 -6 9 -10 3 -13 -20z"/>
<path d="M1830 2736 c0 -9 5 -16 10 -16 6 0 10 4 10 9 0 6 -4 13 -10 16 -5 3
-10 -1 -10 -9z"/>
<path d="M2065 2729 c-4 -6 -5 -12 -2 -15 2 -3 7 2 10 11 7 17 1 20 -8 4z"/>
<path d="M2272 2651 c-23 -36 -62 -96 -86 -132 -71 -109 -184 -311 -242 -435
-47 -99 -53 -119 -41 -131 14 -14 17 -11 52 72 32 75 181 383 200 412 67 105
119 184 150 224 24 32 31 48 23 51 -8 3 -31 -23 -56 -61z"/>
<path d="M1646 2695 c-9 -26 -7 -32 5 -12 6 10 9 21 6 23 -2 3 -7 -2 -11 -11z"/>
<path d="M1728 2676 c-2 -20 -1 -36 3 -36 10 0 19 54 9 63 -4 5 -10 -7 -12
-27z"/>
<path d="M3612 2680 c0 -19 2 -27 5 -17 2 9 2 25 0 35 -3 9 -5 1 -5 -18z"/>
<path d="M1691 2693 c-1 -6 -4 -20 -7 -30 -5 -17 -5 -17 6 0 6 10 9 23 6 30
-3 9 -5 9 -5 0z"/>
<path d="M1778 2678 c-2 -13 -1 -36 2 -53 6 -25 7 -22 11 23 4 51 -5 73 -13
30z"/>
<path d="M2671 2672 c-11 -4 109 -46 224 -79 l20 -5 -20 14 c-37 28 -200 78
-224 70z"/>
<path d="M1850 2658 c0 -4 14 -8 30 -8 17 0 30 2 30 4 0 2 -13 6 -30 8 -16 3
-30 1 -30 -4z"/>
<path d="M1345 2647 c-28 -21 -13 -51 23 -42 35 9 38 13 26 32 -14 23 -27 26
-49 10z"/>
<path d="M1575 2651 c-3 -5 -18 -12 -34 -16 -30 -6 -64 -35 -42 -35 6 0 11 5
11 10 0 6 7 10 15 10 8 0 15 -9 15 -20 0 -15 -9 -22 -30 -26 -16 -4 -34 -12
-40 -18 -16 -20 46 -7 63 13 18 19 59 91 52 91 -2 0 -6 -4 -10 -9z"/>
<path d="M1440 2640 c0 -5 5 -10 10 -10 6 0 10 5 10 10 0 6 -4 10 -10 10 -5 0
-10 -4 -10 -10z"/>
<path d="M2377 2582 c-21 -31 -42 -75 -48 -97 -11 -40 -49 -86 -81 -98 -10 -3
-20 -22 -24 -43 -4 -20 -14 -45 -23 -55 -9 -11 -24 -28 -33 -38 -9 -11 -21
-29 -28 -40 -13 -25 -40 -28 -40 -5 0 21 14 45 52 88 32 36 63 122 47 131 -8
6 -199 -377 -199 -400 0 -8 -4 -17 -10 -20 -5 -3 -10 -17 -10 -30 0 -13 -5
-25 -12 -27 -6 -2 -8 -10 -4 -16 11 -18 26 -4 26 23 0 13 11 36 23 52 13 15
48 64 77 108 84 126 138 193 238 296 69 72 89 98 77 102 -20 8 -20 66 1 95 9
13 14 25 12 27 -2 3 -21 -21 -41 -53z"/>
<path d="M3430 2633 c-90 -32 -156 -73 -117 -73 49 1 87 14 87 31 0 11 7 19
15 19 8 0 15 -7 15 -15 0 -8 5 -15 10 -15 6 0 10 14 10 30 0 17 -1 30 -2 29
-2 0 -10 -3 -18 -6z"/>
<path d="M3617 2463 c-5 -100 -12 -226 -16 -280 -8 -103 -4 -173 9 -173 4 0 7
52 6 115 -2 100 0 115 13 113 14 -3 16 -28 19 -167 2 -134 5 -166 18 -175 21
-16 30 -117 14 -157 -8 -19 -10 -33 -3 -37 12 -9 33 -150 33 -224 0 -32 4 -58
10 -58 6 0 10 -15 10 -32 0 -18 5 -40 11 -48 22 -32 -25 450 -61 625 -6 28
-13 100 -15 160 -11 289 -18 385 -26 385 -4 0 -9 30 -11 68 -2 37 -7 -13 -11
-115z"/>
<path d="M2180 2608 c0 -19 2 -20 10 -8 13 19 13 30 0 30 -5 0 -10 -10 -10
-22z"/>
<path d="M2535 2555 c-65 -61 -75 -74 -52 -69 22 5 27 3 27 -14 0 -11 -4 -22
-9 -24 -5 -1 2 -11 15 -21 l24 -18 0 36 c0 34 2 36 33 35 17 0 51 3 75 6 34 5
42 3 42 -10 0 -19 -36 -40 -57 -32 -19 8 -12 -14 10 -28 23 -15 67 28 67 65 0
41 32 47 82 14 41 -27 60 -26 42 3 -37 58 -171 73 -261 29 -13 -5 -26 -7 -30
-3 -12 12 13 41 38 45 13 1 26 7 29 11 3 5 31 10 63 12 57 3 71 10 41 22 -25
9 -64 7 -64 -4 0 -16 -28 -12 -32 5 -2 10 -30 -11 -83 -60z"/>
<path d="M1291 2578 c5 -18 9 -36 9 -40 0 -16 -26 -7 -53 17 -34 29 -55 17
-49 -27 7 -48 -5 -76 -36 -81 -22 -3 -20 -4 11 -6 20 0 37 -6 37 -11 0 -6 6
-7 18 -1 9 5 29 14 45 20 29 11 37 31 12 31 -9 0 -18 -7 -21 -15 -8 -21 -34
-19 -34 3 0 24 19 42 46 42 12 0 24 7 28 15 3 9 18 15 37 15 27 0 30 2 19 15
-7 8 -21 15 -32 15 -11 0 -22 9 -25 20 -3 11 -9 20 -13 20 -5 0 -4 -15 1 -32z"/>
<path d="M1821 2553 c0 -32 7 -74 15 -93 l14 -35 -5 40 c-3 22 -5 64 -5 93 0
28 -4 52 -10 52 -6 0 -10 -25 -9 -57z"/>
<path d="M1671 2568 c-5 -13 -13 -41 -17 -63 -7 -30 -14 -40 -29 -40 -11 0
-23 -9 -27 -20 -10 -31 -9 -88 2 -105 7 -11 8 -2 4 28 -4 28 -3 42 5 42 6 0
11 9 11 20 0 11 7 20 15 20 10 0 15 -10 15 -30 0 -16 4 -30 9 -30 5 0 7 8 5
18 -2 9 2 54 9 100 14 84 13 99 -2 60z"/>
<path d="M2790 2580 c0 -4 12 -13 28 -18 15 -5 44 -26 66 -46 21 -20 47 -36
58 -36 18 0 19 5 13 43 -4 23 -8 43 -10 45 -1 1 -14 -2 -27 -9 -19 -8 -31 -8
-48 1 -34 18 -80 30 -80 20z"/>
<path d="M1876 2520 c3 -30 7 -71 8 -90 1 -34 0 -35 -36 -35 -30 0 -38 -4 -43
-22 -4 -18 -13 -23 -36 -23 -28 0 -31 2 -25 25 4 15 2 25 -5 25 -5 0 -9 10 -7
23 2 17 11 23 35 25 23 2 30 7 26 18 -6 16 -33 19 -33 4 0 -5 -11 -10 -24 -10
-18 0 -26 7 -29 23 -3 14 -5 7 -7 -18 -4 -60 0 -75 22 -97 14 -14 18 -28 14
-46 -3 -15 -3 -21 0 -14 8 17 44 15 44 -3 0 -8 -8 -15 -17 -15 -13 0 -18 -9
-20 -35 -1 -25 3 -35 13 -35 8 0 14 -10 14 -24 0 -14 16 -45 35 -70 35 -46 41
-69 29 -113 -8 -30 -21 -29 -50 3 l-24 25 0 -35 c0 -48 -15 -83 -39 -91 -25
-7 -28 -40 -6 -61 11 -11 19 -12 34 -4 22 11 71 71 71 87 0 5 13 27 30 49 16
21 30 43 30 47 0 15 119 253 168 337 27 47 47 87 45 90 -3 3 -8 -1 -10 -7 -12
-33 -128 7 -161 54 -9 13 -25 34 -35 46 -18 22 -18 21 -11 -33z"/>
<path d="M1615 2546 c-23 -24 -26 -36 -11 -36 8 0 18 9 21 21 8 25 4 31 -10
15z"/>
<path d="M2440 2540 c-8 -5 -12 -12 -9 -15 4 -3 12 1 19 10 14 17 11 19 -10 5z"/>
<path d="M1155 2530 c-3 -5 -1 -10 4 -10 6 0 11 5 11 10 0 6 -2 10 -4 10 -3 0
-8 -4 -11 -10z"/>
<path d="M1411 2519 c-18 -11 -40 -18 -48 -15 -23 9 -34 -3 -21 -24 16 -24
-11 -56 -55 -66 -25 -5 -27 -8 -14 -16 24 -13 55 7 122 80 31 34 56 62 54 61
-2 0 -19 -9 -38 -20z"/>
<path d="M1510 2505 c7 -8 17 -12 22 -9 6 4 5 10 -3 15 -22 14 -33 10 -19 -6z"/>
<path d="M3729 2485 c-4 -22 -1 -68 5 -101 10 -58 12 -61 34 -53 15 6 22 17
22 34 0 14 -4 25 -9 25 -11 0 -33 53 -41 100 l-5 35 -6 -40z"/>
<path d="M1097 2486 c-4 -10 -1 -13 9 -9 7 3 14 9 14 14 0 14 -17 10 -23 -5z"/>
<path d="M2740 2452 c0 -16 -7 -35 -15 -42 -8 -7 -12 -16 -9 -21 10 -17 43 -9
49 11 3 11 13 20 21 20 20 0 1 35 -26 50 -18 10 -20 7 -20 -18z"/>
<path d="M3297 2439 c-10 -6 -25 -8 -33 -5 -12 4 -12 2 -4 -14 13 -23 19 -24
44 -5 24 18 18 38 -7 24z"/>
<path d="M2384 2407 l-29 -32 30 25 c17 14 32 26 34 28 2 1 2 4 -1 7 -2 3 -18
-10 -34 -28z"/>
<path d="M2570 2407 c0 -26 6 -39 25 -51 30 -20 35 -20 35 -2 0 8 6 17 13 20
6 3 -3 3 -20 0 -31 -5 -33 -4 -33 25 0 16 -4 33 -10 36 -6 4 -10 -8 -10 -28z"/>
<path d="M3360 2427 c0 -8 -9 -22 -20 -32 -26 -23 -20 -29 14 -14 17 8 26 20
26 36 0 12 -4 23 -10 23 -5 0 -10 -6 -10 -13z"/>
<path d="M1390 2410 c-6 -11 -24 -27 -40 -35 -34 -18 -39 -35 -10 -35 11 0 20
6 20 13 0 7 8 17 19 24 10 6 21 21 24 32 7 26 1 27 -13 1z"/>
<path d="M3177 2416 c-3 -8 1 -22 8 -33 9 -10 14 -13 15 -5 0 6 7 12 16 12 18
0 10 16 -16 30 -13 7 -19 6 -23 -4z"/>
<path d="M1023 2409 c-25 -9 -30 -19 -10 -19 15 0 43 17 37 23 -3 3 -15 1 -27
-4z"/>
<path d="M1760 2410 c0 -5 5 -10 11 -10 5 0 7 5 4 10 -3 6 -8 10 -11 10 -2 0
-4 -4 -4 -10z"/>
<path d="M1167 2403 c-4 -3 -7 -11 -7 -17 0 -6 5 -5 12 2 6 6 9 14 7 17 -3 3
-9 2 -12 -2z"/>
<path d="M1536 2391 c-4 -6 -2 -11 3 -11 6 0 12 -10 12 -22 1 -17 3 -18 6 -6
6 23 -12 55 -21 39z"/>
<path d="M1080 2383 c1 -22 19 -35 40 -28 12 4 18 11 14 15 -14 12 -54 22 -54
13z"/>
<path d="M1225 2380 c-3 -5 1 -10 9 -10 9 0 16 5 16 10 0 6 -4 10 -9 10 -6 0
-13 -4 -16 -10z"/>
<path d="M2795 2370 c-7 -11 18 -24 35 -18 6 2 1 9 -9 15 -13 8 -22 9 -26 3z"/>
<path d="M3235 2362 c-7 -20 -4 -21 23 -7 22 12 22 13 3 18 -12 3 -22 -1 -26
-11z"/>
<path d="M945 2360 c-3 -5 -2 -10 4 -10 5 0 13 5 16 10 3 6 2 10 -4 10 -5 0
-13 -4 -16 -10z"/>
<path d="M1002 2337 c-71 -44 -66 -80 6 -43 27 14 60 61 51 71 -3 2 -28 -10
-57 -28z"/>
<path d="M1492 2345 c0 -16 2 -22 5 -12 2 9 2 23 0 30 -3 6 -5 -1 -5 -18z"/>
<path d="M890 2348 c0 -7 5 -20 10 -28 8 -12 10 -9 10 13 0 15 -4 27 -10 27
-5 0 -10 -6 -10 -12z"/>
<path d="M1174 2339 c-16 -10 -23 -19 -16 -19 24 0 12 -38 -26 -81 -41 -47
-59 -89 -38 -89 20 0 55 43 69 85 12 35 18 40 48 43 49 5 52 14 20 49 l-28 31
-29 -19z"/>
<path d="M1413 2349 c-7 -9 -9 -20 -3 -29 12 -19 22 -7 18 21 -2 19 -5 20 -15
8z"/>
<path d="M1645 2350 c-9 -15 4 -50 19 -50 8 0 11 10 8 30 -4 30 -16 39 -27 20z"/>
<path d="M2690 2344 c0 -3 6 -11 13 -18 10 -11 15 -11 25 0 18 19 15 24 -13
24 -14 0 -25 -3 -25 -6z"/>
<path d="M3176 2326 c4 -10 16 -16 33 -15 20 1 22 2 6 6 -11 3 -26 10 -33 15
-9 8 -11 7 -6 -6z"/>
<path d="M3284 2325 c-18 -14 -18 -14 4 -8 12 3 22 9 22 14 0 12 -3 11 -26 -6z"/>
<path d="M1083 2313 c-21 -8 -15 -20 12 -25 28 -6 27 -6 19 16 -6 17 -11 18
-31 9z"/>
<path d="M1406 2245 c-14 -30 -33 -58 -41 -62 -11 -6 -12 -16 -7 -38 l8 -30
19 23 c26 29 49 29 42 -1 -5 -19 0 -25 38 -41 31 -12 45 -24 45 -37 0 -21 -25
-26 -36 -8 -4 8 -9 7 -15 -2 -14 -22 -11 -24 31 -25 l40 -1 0 66 c0 63 -1 67
-35 94 -24 19 -35 36 -35 55 0 15 -7 35 -14 44 -12 16 -16 12 -40 -37z"/>
<path d="M1590 2296 c0 -2 7 -7 16 -10 8 -3 12 -2 9 4 -6 10 -25 14 -25 6z"/>
<path d="M2239 2253 c-13 -16 -12 -17 4 -4 9 7 17 15 17 17 0 8 -8 3 -21 -13z"/>
<path d="M1027 2233 c-9 -2 -15 -8 -12 -13 6 -10 45 -1 45 11 0 9 -4 10 -33 2z"/>
<path d="M1193 2207 c-5 -17 -8 -38 -6 -44 7 -20 51 38 45 59 -7 29 -28 21
-39 -15z"/>
<path d="M2176 2168 c-24 -35 -42 -65 -39 -68 2 -3 10 3 17 13 24 31 39 21 32
-22 -4 -28 -2 -40 8 -44 11 -4 13 3 9 31 -3 20 2 63 10 95 8 31 14 57 12 57
-2 0 -24 -28 -49 -62z"/>
<path d="M1525 2210 c3 -5 10 -10 16 -10 5 0 9 5 9 10 0 6 -7 10 -16 10 -8 0
-12 -4 -9 -10z"/>
<path d="M1580 2213 c0 -5 5 -15 11 -23 8 -11 12 -12 16 -2 2 6 12 12 21 13
14 0 13 2 -3 9 -26 11 -45 12 -45 3z"/>
<path d="M855 2195 c-28 -13 -27 -13 30 -8 76 7 107 22 45 22 -25 0 -58 -6
-75 -14z"/>
<path d="M1722 2178 c-18 -18 -14 -35 8 -41 17 -4 19 -2 14 21 -9 34 -8 34
-22 20z"/>
<path d="M985 2170 c-3 -5 -1 -10 4 -10 6 0 11 5 11 10 0 6 -2 10 -4 10 -3 0
-8 -4 -11 -10z"/>
<path d="M1248 2156 c-13 -10 -16 -22 -11 -49 3 -21 11 -37 19 -37 10 0 11 7
2 31 -8 24 -8 37 1 50 13 22 12 23 -11 5z"/>
<path d="M1648 2135 c3 -26 0 -35 -11 -35 -16 0 -27 -20 -27 -51 0 -23 9 -24
36 -1 28 24 40 122 15 122 -13 0 -16 -7 -13 -35z"/>
<path d="M1321 2134 c0 -11 3 -14 6 -6 3 7 2 16 -1 19 -3 4 -6 -2 -5 -13z"/>
<path d="M1700 2110 c0 -11 4 -20 9 -20 5 0 7 9 4 20 -3 11 -7 20 -9 20 -2 0
-4 -9 -4 -20z"/>
<path d="M1047 2107 c-5 -16 3 -47 13 -47 20 0 26 26 9 42 -12 12 -19 13 -22
5z"/>
<path d="M1175 2110 c-3 -5 -1 -10 4 -10 6 0 11 -7 11 -15 0 -8 4 -15 9 -15 4
0 6 11 3 25 -5 26 -16 32 -27 15z"/>
<path d="M1330 2079 c0 -5 5 -7 10 -4 6 3 10 8 10 11 0 2 -4 4 -10 4 -5 0 -10
-5 -10 -11z"/>
<path d="M2077 2025 c-26 -36 -47 -76 -47 -88 0 -13 -14 -36 -31 -53 -17 -16
-80 -100 -140 -186 -60 -86 -141 -194 -179 -240 -38 -46 -70 -88 -70 -94 0 -7
-7 -14 -15 -18 -33 -12 -16 -52 46 -107 34 -30 73 -72 88 -94 l26 -40 5 50 c3
28 2 52 -2 53 -5 2 -8 19 -8 38 0 24 5 34 15 34 10 0 15 11 15 35 0 24 5 35
15 35 9 0 15 9 15 25 0 16 6 25 15 25 10 0 15 -11 15 -35 0 -19 4 -35 9 -35 5
0 12 -12 14 -27 4 -29 11 91 7 140 -1 23 2 28 17 25 15 -3 18 -13 16 -58 -1
-46 1 -52 12 -37 29 40 32 16 27 -188 l-5 -204 29 2 c29 2 29 1 28 -48 -1 -27
-3 -85 -4 -127 -1 -58 -5 -78 -15 -78 -7 0 -16 6 -18 13 -3 7 -6 5 -6 -5 -1
-10 5 -18 13 -18 7 0 16 -8 19 -17 4 -10 16 -30 28 -44 40 -50 -3 -92 -57 -55
-11 8 -40 17 -65 21 -43 6 -47 5 -52 -17 -4 -12 -7 -38 -7 -55 0 -23 -5 -33
-15 -33 -8 0 -15 5 -15 12 0 19 -29 -25 -30 -45 0 -23 -26 -50 -42 -45 -6 2
-19 -3 -27 -11 -20 -20 -21 -193 -2 -199 17 -6 14 -62 -3 -62 -8 0 -17 6 -19
13 -3 6 -6 -4 -6 -25 -1 -20 -7 -39 -13 -41 -8 -4 -7 -6 3 -6 9 -1 31 -15 48
-33 l31 -32 30 18 c17 9 42 28 57 42 14 13 30 24 34 24 5 0 9 7 9 15 0 18 38
37 109 54 62 16 161 70 224 122 112 95 191 333 188 569 -1 94 -9 130 -27 130
-17 0 -19 47 -2 52 10 4 10 13 1 44 -7 21 -14 51 -18 66 -3 15 -12 33 -20 42
-19 19 -38 96 -39 161 0 28 -4 53 -8 56 -4 3 -10 36 -13 73 -3 37 -15 116 -26
174 -17 83 -20 129 -16 205 4 82 3 97 -10 97 -13 0 -14 -18 -8 -140 6 -125 6
-140 -9 -140 -13 0 -16 11 -17 53 0 28 -5 75 -9 102 -7 42 -8 34 -6 -46 1 -54
7 -103 13 -110 6 -8 13 -49 15 -91 4 -61 2 -78 -9 -78 -7 0 -13 -7 -13 -15 0
-8 6 -15 14 -15 13 0 46 -76 46 -107 0 -18 -29 -17 -36 2 -4 8 -13 15 -20 15
-8 0 -17 14 -21 31 -5 25 -8 28 -15 15 -19 -34 -34 -17 -36 42 -2 77 -12 132
-24 132 -5 0 -6 -9 -1 -22 4 -13 8 -48 8 -78 0 -42 -4 -55 -16 -58 -12 -2 -16
8 -17 55 -1 42 -6 61 -19 71 -10 7 -18 27 -19 50 -3 65 -17 142 -25 142 -4 0
-11 -4 -14 -10 -9 -14 -35 -12 -35 3 0 20 66 77 89 77 11 0 32 -11 46 -25 26
-27 32 -45 14 -45 -14 0 -3 -71 17 -108 8 -15 14 -38 15 -52 1 -17 4 -12 9 15
4 22 4 101 0 175 -5 74 -8 163 -7 198 1 34 2 62 2 62 0 0 -22 -29 -48 -65z
m-117 -290 c0 -8 -6 -15 -14 -15 -18 0 -12 -50 15 -131 23 -68 23 -69 -1 -69
-11 0 -20 5 -20 11 0 6 -7 3 -16 -5 -28 -28 -42 -19 -42 27 0 23 -5 55 -11 70
-15 38 -14 63 2 79 7 7 16 21 20 31 8 22 67 24 67 2z m-310 -379 c0 -35 -10
-56 -26 -56 -16 0 -17 5 -8 49 8 37 34 42 34 7z m548 -140 c12 -35 22 -72 23
-82 0 -11 3 -14 6 -6 2 6 18 12 34 12 22 0 29 5 29 20 0 11 6 20 14 20 11 0
16 -18 19 -67 6 -74 23 -182 37 -225 10 -35 -5 -213 -25 -293 -33 -129 -120
-265 -200 -315 -96 -59 -226 -88 -239 -54 -8 20 2 54 15 54 5 0 9 7 9 15 0 8
3 15 8 15 4 0 15 18 25 40 9 22 24 40 32 40 10 0 17 14 21 40 4 22 10 40 15
40 5 0 9 7 9 15 0 9 9 15 21 15 18 0 20 -4 15 -26 -9 -35 9 -22 22 16 7 18 7
30 1 30 -16 0 -10 71 10 98 10 15 22 37 25 50 7 22 36 32 36 11 0 -27 19 6 25
44 4 23 14 51 21 62 8 11 14 29 14 40 0 11 9 44 20 73 21 54 27 122 11 122 -5
0 -12 10 -14 23 -3 16 -5 14 -6 -10 0 -17 -7 -34 -13 -36 -10 -4 -10 -8 -1
-14 6 -4 15 -21 18 -36 6 -24 4 -27 -18 -27 -27 0 -30 6 -42 73 -5 29 -3 37
10 37 24 0 20 51 -5 57 -14 4 -20 14 -20 34 0 16 4 29 9 29 5 0 3 21 -5 47
-17 58 -18 83 -1 83 7 0 23 -29 35 -64z m-108 -71 c0 -9 11 -20 24 -24 20 -8
24 -18 30 -76 4 -37 4 -100 0 -141 -7 -71 -6 -75 15 -81 11 -3 21 -12 21 -19
0 -15 -1 -16 -40 -20 -14 -1 -35 -6 -46 -9 -27 -8 -34 14 -34 113 0 41 -4 72
-10 72 -5 0 -10 9 -10 20 0 15 -7 20 -25 20 -19 0 -25 5 -25 21 0 16 5 20 19
16 16 -4 19 3 24 41 3 26 10 48 16 50 6 2 11 10 11 18 0 8 7 14 15 14 8 0 15
-7 15 -15z m-70 -435 c0 -11 -7 -20 -15 -20 -8 0 -15 9 -15 20 0 11 7 20 15
20 8 0 15 -9 15 -20z"/>
<path d="M1896 1655 c4 -8 8 -15 10 -15 2 0 4 7 4 15 0 8 -4 15 -10 15 -5 0
-7 -7 -4 -15z"/>
<path d="M2270 1075 c0 -14 5 -25 10 -25 6 0 10 11 10 25 0 14 -4 25 -10 25
-5 0 -10 -11 -10 -25z"/>
<path d="M2297 994 c-4 -4 -7 -20 -7 -35 0 -16 -9 -53 -21 -84 -23 -62 -20
-78 11 -50 10 9 26 15 34 12 13 -5 15 3 9 56 -8 77 -16 110 -26 101z"/>
<path d="M2305 790 c-3 -5 -17 -10 -29 -10 -29 0 -53 -35 -62 -89 -4 -23 -10
-41 -15 -41 -5 0 -9 -13 -9 -30 0 -16 -4 -30 -10 -30 -5 0 -10 -6 -10 -14 0
-8 -9 -18 -20 -21 -11 -3 -20 -13 -20 -21 0 -39 -36 -133 -52 -138 -11 -2 -18
-14 -18 -28 0 -38 -12 -68 -26 -68 -7 0 -18 -9 -25 -21 -10 -19 -8 -20 10 -14
93 29 181 117 241 239 38 77 70 198 70 267 0 29 -13 38 -25 19z"/>
<path d="M2126 593 c-6 -14 -5 -15 5 -6 7 7 10 15 7 18 -3 3 -9 -2 -12 -12z"/>
<path d="M2002 354 c-12 -8 -22 -22 -22 -30 0 -22 36 0 43 26 6 24 7 24 -21 4z"/>
<path d="M1940 255 c-10 -12 -9 -15 6 -15 11 0 25 4 32 9 11 7 10 10 -3 15
-22 8 -21 8 -35 -9z"/>
<path d="M2065 1080 c-8 -26 1 -40 26 -40 25 0 25 36 0 50 -16 8 -21 6 -26
-10z"/>
<path d="M2096 954 c-3 -26 -6 -65 -5 -88 1 -59 14 -18 22 67 7 75 -7 93 -17
21z"/>
<path d="M741 2054 c0 -11 3 -14 6 -6 3 7 2 16 -1 19 -3 4 -6 -2 -5 -13z"/>
<path d="M850 2054 l-25 -15 25 7 c28 7 35 12 29 18 -2 2 -15 -2 -29 -10z"/>
<path d="M1370 2046 c0 -8 -5 -16 -11 -18 -7 -2 -7 -12 0 -31 10 -24 13 -26
36 -15 28 12 33 28 10 28 -9 0 -15 9 -15 25 0 14 -4 25 -10 25 -5 0 -10 -6
-10 -14z"/>
<path d="M2150 2035 c0 -8 2 -15 4 -15 2 0 6 7 10 15 3 8 1 15 -4 15 -6 0 -10
-7 -10 -15z"/>
<path d="M760 2020 c0 -5 5 -10 11 -10 5 0 7 5 4 10 -3 6 -8 10 -11 10 -2 0
-4 -4 -4 -10z"/>
<path d="M914 1993 c-9 -47 -11 -94 -3 -85 7 8 21 122 15 122 -2 0 -7 -17 -12
-37z"/>
<path d="M1560 2019 c0 -5 5 -7 10 -4 6 3 10 8 10 11 0 2 -4 4 -10 4 -5 0 -10
-5 -10 -11z"/>
<path d="M2921 2014 c0 -11 3 -14 6 -6 3 7 2 16 -1 19 -3 4 -6 -2 -5 -13z"/>
<path d="M868 1997 c-3 -19 -2 -25 4 -19 6 6 8 18 6 28 -3 14 -5 12 -10 -9z"/>
<path d="M1014 2005 c-16 -12 -17 -14 -3 -15 9 0 19 7 23 15 7 19 5 19 -20 0z"/>
<path d="M1151 2003 c-1 -6 -4 -20 -7 -30 -5 -17 -5 -17 6 0 6 10 9 23 6 30
-3 9 -5 9 -5 0z"/>
<path d="M2161 1994 c0 -11 3 -14 6 -6 3 7 2 16 -1 19 -3 4 -6 -2 -5 -13z"/>
<path d="M808 1983 c7 -3 16 -2 19 1 4 3 -2 6 -13 5 -11 0 -14 -3 -6 -6z"/>
<path d="M1056 1974 c-9 -24 -7 -29 6 -16 7 7 20 12 30 12 10 0 18 5 18 10 0
16 -47 11 -54 -6z"/>
<path d="M1480 1969 c0 -11 7 -27 15 -35 8 -9 15 -28 15 -44 0 -16 5 -32 11
-36 17 -10 0 -113 -24 -146 -11 -15 -17 -31 -13 -35 5 -5 15 2 23 15 9 12 19
22 24 22 4 0 24 15 43 33 l36 32 -30 1 c-42 2 -47 11 -28 44 14 25 14 31 2 41
-8 6 -14 18 -14 25 0 8 -5 14 -10 14 -6 0 -15 20 -22 45 -13 47 -28 60 -28 24z"/>
<path d="M1687 1976 c-6 -15 1 -26 15 -26 11 0 10 27 -1 34 -5 3 -11 0 -14 -8z"/>
<path d="M3561 1910 c-7 -45 -18 -110 -26 -147 -12 -58 -12 -67 1 -81 11 -11
15 -30 12 -64 -1 -26 0 -48 4 -48 3 0 5 -66 5 -147 -1 -82 2 -207 7 -280 l9
-131 30 -6 c65 -13 67 -11 67 53 0 57 -1 58 -25 53 l-25 -4 -2 128 c-2 106 -3
114 -5 42 -3 -71 -7 -88 -19 -88 -13 0 -14 27 -9 217 3 119 8 220 11 224 10
16 5 194 -5 197 -12 4 -15 73 -5 110 4 12 13 22 21 22 12 0 12 2 -1 15 -26 27
-33 16 -45 -65z"/>
<path d="M2870 1961 c-13 -25 -13 -72 1 -91 8 -11 9 -7 4 17 -4 20 -1 43 10
62 8 17 11 31 6 31 -6 0 -15 -9 -21 -19z"/>
<path d="M770 1959 c0 -5 5 -7 10 -4 6 3 10 8 10 11 0 2 -4 4 -10 4 -5 0 -10
-5 -10 -11z"/>
<path d="M1215 1870 c0 -49 3 -90 7 -90 3 0 15 -3 25 -6 17 -5 17 -5 1 9 -22
18 -23 37 -2 37 13 0 15 6 10 28 -4 15 -9 46 -13 70 -3 23 -11 42 -17 42 -8 0
-12 -28 -11 -90z"/>
<path d="M2150 1944 c0 -8 5 -12 10 -9 6 4 8 11 5 16 -9 14 -15 11 -15 -7z"/>
<path d="M2927 1942 c-10 -10 -17 -33 -17 -50 0 -18 -5 -32 -11 -32 -20 0 10
-27 37 -34 14 -4 29 -17 34 -29 6 -15 9 -17 9 -6 1 10 13 20 28 24 l28 7 -25
13 c-14 8 -37 14 -52 15 -21 0 -29 6 -34 27 -9 33 19 57 56 48 24 -6 24 -6 6
14 -23 26 -38 26 -59 3z"/>
<path d="M1127 1931 c-4 -17 -3 -21 5 -13 5 5 8 16 6 23 -3 8 -7 3 -11 -10z"/>
<path d="M850 1926 c0 -9 5 -16 10 -16 6 0 10 4 10 9 0 6 -4 13 -10 16 -5 3
-10 -1 -10 -9z"/>
<path d="M988 1923 c-12 -15 -13 -22 -3 -40 l12 -23 12 26 c6 14 8 32 3 40 -7
13 -10 12 -24 -3z"/>
<path d="M1849 1911 c-7 -14 -15 -29 -17 -32 -1 -4 9 -9 23 -11 14 -3 25 -1
25 3 0 5 7 9 15 9 8 0 15 -7 15 -15 0 -8 -7 -15 -15 -15 -9 0 -15 -9 -15 -22
0 -24 2 -22 45 36 16 22 24 36 18 33 -6 -4 -26 4 -46 17 l-35 24 -13 -27z"/>
<path d="M1171 1914 c0 -11 3 -14 6 -6 3 7 2 16 -1 19 -3 4 -6 -2 -5 -13z"/>
<path d="M750 1895 c-25 -14 -52 -25 -62 -25 -12 0 -19 -10 -22 -32 -9 -54
-12 -228 -4 -228 4 0 36 39 72 87 52 71 62 91 54 106 -7 13 -5 30 6 58 27 68
24 70 -44 34z"/>
<path d="M1380 1909 c0 -5 5 -7 10 -4 6 3 10 8 10 11 0 2 -4 4 -10 4 -5 0 -10
-5 -10 -11z"/>
<path d="M1587 1903 c-9 -2 -15 -9 -12 -14 9 -14 22 -11 29 6 3 8 4 14 3 14
-1 -1 -10 -3 -20 -6z"/>
<path d="M1330 1889 c-13 -8 -12 -11 3 -23 13 -10 17 -21 12 -36 -12 -39 30
-168 50 -149 2 3 1 19 -4 35 -5 16 -14 45 -20 65 -6 19 -11 49 -11 65 0 39
-12 56 -30 43z"/>
<path d="M1047 1883 c-4 -3 -7 -11 -7 -17 0 -6 5 -5 12 2 6 6 9 14 7 17 -3 3
-9 2 -12 -2z"/>
<path d="M928 1872 c-22 -4 -24 -32 -3 -32 11 0 15 -11 15 -42 0 -32 3 -39 11
-31 16 16 19 74 6 93 -7 9 -20 14 -29 12z"/>
<path d="M827 1846 c-9 -33 -4 -41 20 -32 11 5 14 10 6 14 -6 4 -13 16 -15 27
-3 17 -5 15 -11 -9z"/>
<path d="M1136 1855 c-9 -23 -8 -25 9 -25 17 0 19 9 6 28 -7 11 -10 10 -15 -3z"/>
<path d="M3641 1854 c0 -11 3 -14 6 -6 3 7 2 16 -1 19 -3 4 -6 -2 -5 -13z"/>
<path d="M1396 1826 c9 -30 18 -38 37 -30 29 11 20 41 -13 46 -27 4 -30 2 -24
-16z"/>
<path d="M1670 1835 c0 -8 2 -15 4 -15 2 0 6 7 10 15 3 8 1 15 -4 15 -6 0 -10
-7 -10 -15z"/>
<path d="M1801 1841 c-9 -6 -10 -11 -2 -15 6 -4 11 -13 11 -21 0 -15 -70 -116
-126 -182 -20 -24 -32 -43 -26 -43 16 0 37 24 86 98 25 37 59 86 75 109 28 39
29 43 13 52 -10 5 -24 6 -31 2z"/>
<path d="M1000 1819 c0 -5 5 -7 10 -4 6 3 10 8 10 11 0 2 -4 4 -10 4 -5 0 -10
-5 -10 -11z"/>
<path d="M1480 1820 c0 -5 5 -10 11 -10 5 0 7 5 4 10 -3 6 -8 10 -11 10 -2 0
-4 -4 -4 -10z"/>
<path d="M1734 1782 c-25 -30 -50 -82 -39 -82 5 0 76 112 73 115 -2 2 -17 -13
-34 -33z"/>
<path d="M897 1781 c-10 -45 -9 -101 2 -101 4 0 6 11 3 25 -3 19 0 25 14 25
12 0 15 3 7 8 -6 4 -13 23 -15 42 l-3 35 -8 -34z"/>
<path d="M837 1764 c-20 -27 -14 -32 10 -9 8 8 13 19 11 24 -2 5 -11 -2 -21
-15z"/>
<path d="M1080 1775 c-8 -9 -8 -15 -2 -15 12 0 26 19 19 26 -2 2 -10 -2 -17
-11z"/>
<path d="M3634 1774 c3 -9 6 -19 6 -22 0 -9 20 21 20 31 0 4 -7 7 -16 7 -11 0
-14 -5 -10 -16z"/>
<path d="M1460 1770 c0 -6 7 -10 15 -10 8 0 15 2 15 4 0 2 -7 6 -15 10 -8 3
-15 1 -15 -4z"/>
<path d="M3050 1755 c0 -14 4 -25 9 -25 4 0 6 11 3 25 -2 14 -6 25 -8 25 -2 0
-4 -11 -4 -25z"/>
<path d="M3486 1739 c-4 -23 -5 -44 -2 -46 2 -2 7 14 11 37 4 23 5 43 2 46 -2
3 -7 -14 -11 -37z"/>
<path d="M1155 1743 c3 -16 11 -30 16 -31 5 -2 16 -10 23 -18 23 -22 36 -16
36 16 0 23 -5 31 -25 36 -14 3 -25 10 -25 15 0 5 -7 9 -16 9 -13 0 -15 -6 -9
-27z"/>
<path d="M1655 1762 c-6 -4 -16 -15 -24 -24 -12 -16 -11 -18 7 -18 12 0 23 9
27 21 8 23 4 31 -10 21z"/>
<path d="M1410 1749 c0 -5 5 -7 10 -4 6 3 10 8 10 11 0 2 -4 4 -10 4 -5 0 -10
-5 -10 -11z"/>
<path d="M1260 1740 c0 -8 5 -22 10 -30 9 -13 10 -13 10 0 0 8 -5 22 -10 30
-9 13 -10 13 -10 0z"/>
<path d="M2045 1709 c9 -51 12 -56 26 -42 8 8 8 13 0 17 -6 4 -11 18 -11 31 0
13 -5 27 -11 31 -8 5 -9 -6 -4 -37z"/>
<path d="M844 1714 c-8 -3 -10 -20 -7 -45 4 -30 1 -47 -14 -67 -35 -48 -37
-58 -4 -23 17 19 31 39 32 45 1 15 5 96 5 95 -1 0 -6 -3 -12 -5z"/>
<path d="M1100 1701 c0 -11 9 -21 22 -24 30 -8 33 -3 11 22 -22 26 -33 27 -33
2z"/>
<path d="M1003 1695 c-3 -9 -3 -18 -1 -21 3 -3 8 4 11 16 6 23 -1 27 -10 5z"/>
<path d="M1595 1700 c3 -5 8 -10 11 -10 2 0 4 5 4 10 0 6 -5 10 -11 10 -5 0
-7 -4 -4 -10z"/>
<path d="M3807 1690 c3 -11 7 -20 9 -20 2 0 4 9 4 20 0 11 -4 20 -9 20 -5 0
-7 -9 -4 -20z"/>
<path d="M951 1684 c0 -11 3 -14 6 -6 3 7 2 16 -1 19 -3 4 -6 -2 -5 -13z"/>
<path d="M1423 1676 c-10 -11 -9 -15 2 -20 10 -4 15 1 15 14 0 23 -1 24 -17 6z"/>
<path d="M1656 1675 c-11 -8 -15 -15 -9 -15 6 0 16 7 23 15 16 19 11 19 -14 0z"/>
<path d="M1528 1649 c-31 -31 -37 -59 -13 -59 9 0 20 -10 26 -22 9 -22 9 -22
5 2 -3 14 -1 43 4 65 5 22 8 40 7 41 -1 1 -14 -11 -29 -27z"/>
<path d="M1040 1655 c0 -8 2 -15 4 -15 2 0 6 7 10 15 3 8 1 15 -4 15 -6 0 -10
-7 -10 -15z"/>
<path d="M1592 1648 c-17 -17 -15 -68 1 -68 17 0 35 39 29 63 -4 20 -13 22
-30 5z"/>
<path d="M3630 1640 c0 -11 7 -20 15 -20 8 0 15 9 15 20 0 11 -7 20 -15 20 -8
0 -15 -9 -15 -20z"/>
<path d="M2978 1640 c-5 -17 -191 -32 -245 -20 -48 11 -86 1 -43 -11 37 -10
380 -10 380 0 0 23 -85 52 -92 31z"/>
<path d="M3143 1642 c-33 -2 -43 -7 -42 -20 0 -11 2 -12 6 -4 3 8 16 11 38 6
20 -3 35 -1 40 6 9 15 7 16 -42 12z"/>
<path d="M1461 1627 c-1 -10 -8 -20 -16 -23 -17 -7 -21 -24 -5 -24 13 0 32 38
26 53 -2 7 -5 4 -5 -6z"/>
<path d="M1045 1608 c-4 -15 -4 -31 -1 -37 3 -5 -3 -47 -14 -93 -11 -45 -20
-102 -20 -126 0 -50 -14 -82 -37 -82 -10 0 -14 6 -10 20 3 11 1 20 -4 20 -5 0
-9 8 -9 18 0 10 -3 22 -7 26 -10 10 -31 -101 -25 -133 l6 -26 6 25 c4 16 13
25 25 25 41 0 63 39 70 122 4 43 14 96 21 118 8 22 14 48 14 58 0 35 50 14 51
-22 l1 -26 8 25 c11 34 12 98 2 104 -5 3 -8 -5 -8 -17 1 -33 -30 -33 -48 0
l-14 28 -7 -27z"/>
<path d="M1210 1621 c0 -5 8 -12 18 -15 9 -3 22 -16 27 -28 6 -13 18 -24 28
-26 18 -4 18 -3 1 23 -18 27 -74 62 -74 46z"/>
<path d="M877 1600 c-4 -14 -7 -44 -7 -67 0 -23 -4 -53 -10 -67 -5 -14 -6 -26
-1 -26 5 0 14 29 21 65 8 43 17 65 26 65 8 0 14 5 14 10 0 6 -6 10 -14 10 -8
0 -16 8 -18 18 -3 13 -5 11 -11 -8z"/>
<path d="M3220 1605 c-7 -8 -21 -15 -31 -15 -10 0 -20 -4 -23 -9 -3 -5 -15 -7
-27 -4 -12 4 -25 0 -30 -8 -14 -22 -10 -36 5 -16 7 9 18 17 25 17 14 0 15 -47
0 -55 -6 -4 -8 -13 -5 -21 3 -7 0 -16 -6 -20 -7 -4 -8 -3 -4 4 12 19 -12 14
-33 -7 -26 -26 -55 -41 -81 -41 -16 0 -20 -4 -16 -16 3 -9 6 -18 6 -20 0 -3
11 -9 24 -14 16 -6 25 -19 28 -39 3 -17 1 -31 -3 -31 -4 0 -5 -9 -2 -19 3 -12
-1 -20 -10 -23 -13 -3 -13 -5 -1 -16 12 -11 14 -10 14 3 0 8 9 15 20 15 16 0
20 7 21 35 2 43 1 41 22 89 9 21 17 42 17 46 0 4 14 24 30 45 17 21 28 45 25
52 -2 8 -1 12 4 9 9 -6 26 22 23 37 -1 4 2 7 7 7 5 0 11 7 15 15 3 8 4 15 2
15 -2 0 -9 -7 -16 -15z"/>
<path d="M1323 1586 c7 -14 13 -23 15 -21 7 6 -9 45 -18 45 -4 0 -3 -11 3 -24z"/>
<path d="M3466 1595 c-3 -9 0 -15 9 -15 8 0 15 7 15 15 0 8 -4 15 -9 15 -5 0
-11 -7 -15 -15z"/>
<path d="M3623 1530 c0 -47 2 -66 4 -42 2 23 2 61 0 85 -2 23 -4 4 -4 -43z"/>
<path d="M707 1537 c-53 -54 -57 -62 -48 -86 15 -39 9 -184 -9 -207 -8 -10 3
-3 24 16 l38 35 -6 87 c-6 85 -5 88 29 152 19 37 34 65 32 65 -1 -1 -28 -28
-60 -62z"/>
<path d="M3661 1503 c-1 -63 3 -103 9 -103 12 0 12 130 0 175 -5 20 -8 -4 -9
-72z"/>
<path d="M964 1572 c4 -13 2 -54 -5 -92 -10 -58 -10 -71 3 -83 12 -13 16 -4
31 70 10 47 17 86 15 87 -2 1 -14 10 -27 21 l-24 20 7 -23z"/>
<path d="M1158 1525 c-26 -97 -30 -117 -19 -110 6 3 13 22 16 43 4 20 11 46
17 58 5 12 8 32 6 45 -2 17 -8 7 -20 -36z"/>
<path d="M2920 1561 c0 -10 60 -17 108 -13 60 6 32 22 -38 22 -38 0 -70 -4
-70 -9z"/>
<path d="M640 1544 c0 -14 3 -14 15 -4 8 7 15 14 15 16 0 2 -7 4 -15 4 -8 0
-15 -7 -15 -16z"/>
<path d="M1474 1554 c-12 -5 -6 -64 6 -64 8 0 20 34 20 58 0 12 -7 14 -26 6z"/>
<path d="M3517 1531 c-4 -18 -6 -59 -6 -90 2 -53 2 -52 10 24 9 85 7 122 -4
66z"/>
<path d="M1210 1540 c0 -5 5 -10 11 -10 5 0 7 5 4 10 -3 6 -8 10 -11 10 -2 0
-4 -4 -4 -10z"/>
<path d="M2131 1534 c0 -11 3 -14 6 -6 3 7 2 16 -1 19 -3 4 -6 -2 -5 -13z"/>
<path d="M911 1490 c-12 -54 -14 -86 -6 -79 9 10 33 129 25 129 -5 0 -13 -23
-19 -50z"/>
<path d="M823 1519 c-26 -33 -41 -76 -32 -90 7 -11 9 -11 9 4 0 10 10 31 21
46 22 30 24 67 2 40z"/>
<path d="M1568 1510 c-12 -38 -10 -66 3 -53 6 6 9 26 7 44 -3 32 -3 33 -10 9z"/>
<path d="M1337 1509 c7 -7 15 -10 18 -7 3 3 -2 9 -12 12 -14 6 -15 5 -6 -5z"/>
<path d="M1380 1478 c1 -13 7 -34 15 -48 l14 -25 1 25 c0 35 -11 70 -21 70 -5
0 -9 -10 -9 -22z"/>
<path d="M1522 1480 c0 -14 2 -19 5 -12 2 6 2 18 0 25 -3 6 -5 1 -5 -13z"/>
<path d="M1639 1483 c-13 -16 -12 -17 4 -4 9 7 17 15 17 17 0 8 -8 3 -21 -13z"/>
<path d="M740 1465 c-10 -27 5 -85 22 -85 6 0 7 7 2 18 -4 9 -8 34 -8 55 0 43
-3 46 -16 12z"/>
<path d="M1197 1483 c-10 -9 -8 -33 2 -33 5 0 11 9 14 20 5 20 -3 26 -16 13z"/>
<path d="M1066 1433 c-2 -16 -8 -55 -11 -88 -3 -33 -9 -75 -12 -92 -4 -25 -2
-33 10 -33 9 0 19 -17 27 -44 11 -41 13 -43 29 -27 13 12 15 22 9 39 -4 13 -8
38 -8 55 0 47 -10 77 -26 77 -8 0 -14 10 -14 25 0 15 6 25 14 25 9 0 15 15 18
45 2 37 0 45 -14 45 -10 0 -18 -10 -22 -27z"/>
<path d="M1251 1438 c0 -16 2 -18 6 -8 3 8 11 18 17 22 7 5 4 8 -6 8 -12 0
-18 -7 -17 -22z"/>
<path d="M1600 1445 c0 -8 2 -15 4 -15 2 0 6 7 10 15 3 8 1 15 -4 15 -6 0 -10
-7 -10 -15z"/>
<path d="M1501 1423 c0 -25 1 -26 9 -8 12 27 12 35 0 35 -5 0 -10 -12 -9 -27z"/>
<path d="M1318 1433 c-19 -5 -24 -18 -10 -27 5 -3 16 4 25 15 17 19 16 20 -15
12z"/>
<path d="M1551 1430 c0 -8 4 -23 7 -32 7 -17 8 -16 20 2 10 16 10 20 -2 20 -8
0 -17 6 -19 13 -4 8 -5 7 -6 -3z"/>
<path d="M2915 1410 c-3 -5 -12 -7 -20 -3 -11 4 -15 -2 -15 -20 0 -18 -7 -27
-26 -31 -15 -4 -32 -2 -40 5 -25 20 -15 -7 11 -31 24 -23 105 -38 105 -21 0 4
15 5 34 3 28 -3 37 0 46 19 10 18 10 21 -3 16 -8 -3 -20 0 -27 6 -10 9 -11 9
-5 -3 5 -9 4 -12 -1 -7 -10 9 -11 14 -13 52 -1 18 -7 25 -20 25 -11 0 -22 -4
-26 -10z"/>
<path d="M3622 1400 c0 -14 2 -19 5 -12 2 6 2 18 0 25 -3 6 -5 1 -5 -13z"/>
<path d="M1208 1394 c17 -8 32 -19 32 -24 0 -6 7 -10 15 -10 9 0 18 -7 21 -15
6 -16 31 -19 58 -9 24 9 9 24 -24 24 -19 0 -31 6 -35 19 -4 12 -12 17 -24 14
-10 -3 -22 0 -25 6 -4 6 -17 11 -29 10 -18 0 -16 -3 11 -15z"/>
<path d="M2310 1386 c0 -23 2 -25 20 -14 10 7 18 13 17 13 -1 0 -10 7 -19 14
-16 12 -18 11 -18 -13z"/>
<path d="M1360 1390 c0 -5 5 -10 11 -10 5 0 7 5 4 10 -3 6 -8 10 -11 10 -2 0
-4 -4 -4 -10z"/>
<path d="M1410 1374 c0 -8 7 -14 15 -14 8 0 15 -7 15 -15 0 -8 6 -15 14 -15 8
0 17 -8 19 -17 4 -14 5 -12 6 5 0 12 -3 22 -8 22 -5 0 -12 9 -16 19 -7 23 -45
36 -45 15z"/>
<path d="M876 1318 c-8 -73 -8 -126 2 -132 5 -3 8 21 8 52 0 31 4 74 8 95 6
23 5 37 -1 37 -6 0 -13 -24 -17 -52z"/>
<path d="M1510 1341 c0 -16 8 -35 17 -42 15 -13 16 -11 10 20 -4 18 -7 37 -7
42 0 5 -4 9 -10 9 -5 0 -10 -13 -10 -29z"/>
<path d="M2360 1354 c0 -9 52 -78 62 -82 4 -2 8 -9 8 -16 0 -9 13 -11 53 -5
28 4 76 8 105 8 29 1 52 6 52 12 0 5 -3 8 -8 5 -4 -2 -46 0 -92 5 -69 8 -91
15 -120 37 -45 36 -60 45 -60 36z"/>
<path d="M3509 1344 c-3 -41 3 -240 7 -256 3 -10 10 -18 16 -18 7 0 8 19 4 58
-4 31 -10 95 -13 142 -5 82 -12 114 -14 74z"/>
<path d="M742 1328 c4 -31 25 -33 30 -3 4 20 1 25 -14 25 -14 0 -19 -6 -16
-22z"/>
<path d="M816 1324 c-18 -17 -21 -44 -6 -44 6 0 10 -20 10 -45 0 -33 -10 -65
-36 -115 -21 -39 -38 -83 -39 -100 -1 -16 -2 -55 -3 -85 -2 -41 -6 -55 -17
-55 -11 0 -13 -8 -9 -30 4 -20 1 -34 -10 -45 -9 -9 -16 -23 -16 -31 0 -11 9
-8 34 11 36 28 50 46 91 120 21 36 23 45 10 45 -8 0 -15 7 -15 15 0 8 7 15 15
15 27 0 16 29 -12 32 -17 2 -29 10 -31 21 -3 13 4 17 32 17 19 0 37 -4 41 -10
3 -5 12 -7 20 -3 17 6 20 58 5 68 -32 20 -56 158 -37 213 10 26 -4 29 -27 6z"/>
<path d="M1904 1328 c-8 -13 -23 -538 -16 -548 9 -12 29 32 24 55 -2 14 2 32
9 41 11 14 11 18 -2 28 -13 9 -14 41 -9 221 3 116 4 211 4 213 -1 2 -6 -3 -10
-10z"/>
<path d="M1200 1320 c-13 -8 -13 -11 3 -27 16 -16 17 -16 17 10 0 30 0 30 -20
17z"/>
<path d="M1140 1280 c0 -16 4 -30 10 -30 5 0 9 -10 8 -23 -1 -13 9 -39 22 -58
23 -32 25 -33 28 -11 2 12 8 22 13 22 6 0 7 5 4 10 -3 6 -17 7 -31 4 -26 -7
-34 12 -12 34 9 9 8 16 -5 30 -9 10 -17 26 -17 35 0 9 -4 17 -10 17 -5 0 -10
-13 -10 -30z"/>
<path d="M1251 1284 c0 -11 3 -14 6 -6 3 7 2 16 -1 19 -3 4 -6 -2 -5 -13z"/>
<path d="M1302 1280 c8 -13 15 -16 19 -8 10 15 2 28 -17 28 -12 0 -12 -4 -2
-20z"/>
<path d="M1810 1290 c0 -5 5 -10 10 -10 6 0 10 5 10 10 0 6 -4 10 -10 10 -5 0
-10 -4 -10 -10z"/>
<path d="M2340 1286 c0 -9 4 -16 8 -16 7 0 18 -34 38 -115 6 -24 8 -26 11 -10
2 11 7 27 10 35 10 28 9 60 -3 60 -7 0 -24 14 -38 31 -17 20 -26 25 -26 15z"/>
<path d="M3820 1279 c0 -11 5 -17 10 -14 6 3 10 13 10 21 0 8 -4 14 -10 14 -5
0 -10 -9 -10 -21z"/>
<path d="M5033 1260 c-46 -21 -90 -56 -167 -132 l-105 -103 -100 -199 c-56
-110 -101 -206 -101 -215 0 -9 -11 -52 -25 -95 -14 -43 -29 -95 -35 -116 -11
-41 -78 -123 -119 -145 -14 -7 -44 -30 -66 -49 -39 -35 -65 -45 -65 -27 0 5
-10 11 -22 13 -26 4 -35 31 -40 120 -3 62 -4 64 -45 91 -24 15 -54 27 -68 27
-14 0 -25 5 -25 10 0 6 -11 10 -24 10 -14 0 -28 5 -31 10 -3 6 -15 10 -26 10
-10 0 -19 5 -19 10 0 6 -28 10 -65 10 -53 0 -65 3 -65 16 0 12 -7 14 -32 9
-18 -4 -34 -11 -36 -16 -2 -5 -10 -9 -18 -9 -21 0 -18 -19 30 -189 25 -86 50
-175 56 -198 6 -23 16 -45 22 -49 8 -5 9 0 4 17 -4 13 -14 51 -21 84 -8 33
-30 111 -50 174 -19 62 -35 120 -35 127 0 29 103 13 136 -21 9 -8 33 -15 54
-15 21 0 42 -4 45 -10 3 -5 13 -10 22 -10 9 0 26 -9 37 -19 31 -28 94 -61 117
-61 25 0 23 -27 -3 -44 -13 -8 -26 -3 -62 22 -24 18 -49 32 -54 32 -5 0 -15 6
-21 14 -7 8 -20 12 -31 9 -12 -3 -22 2 -29 16 -9 16 -21 21 -51 21 -48 0 -70
8 -70 26 0 22 -14 16 -26 -10 -8 -18 -8 -31 1 -53 7 -15 24 -75 39 -133 28
-108 35 -120 74 -120 13 0 22 -6 22 -15 0 -8 7 -15 15 -15 8 0 15 -7 15 -15 0
-10 -11 -15 -35 -15 -19 0 -35 -4 -35 -10 0 -5 -13 -10 -30 -10 -16 0 -30 -4
-30 -10 0 -6 89 -10 248 -10 l247 0 18 58 c20 64 22 92 7 92 -5 0 -10 -8 -10
-18 0 -24 -72 -111 -92 -112 -27 0 -21 28 10 55 15 13 37 42 48 64 11 24 28
42 42 46 13 3 22 13 22 25 0 14 7 20 21 20 18 0 129 104 129 121 0 3 14 22 30
40 17 19 33 44 36 57 3 12 12 22 20 22 8 0 14 7 14 15 0 14 -3 13 -25 -2 -13
-10 -25 -21 -25 -25 0 -5 -7 -8 -15 -8 -28 0 -15 32 28 74 26 25 49 58 57 84
14 44 40 57 40 20 0 -13 -11 -44 -24 -70 -13 -27 -20 -48 -15 -48 5 0 9 -11 9
-25 0 -14 3 -25 8 -25 7 0 81 110 129 191 12 21 25 55 29 76 4 21 15 43 24 50
9 7 25 32 34 57 10 26 22 46 27 46 5 0 9 7 9 15 0 8 9 19 20 25 11 6 20 17 20
26 0 8 7 17 15 20 8 4 15 17 15 30 0 35 26 29 34 -8 5 -24 2 -34 -14 -45 -11
-8 -20 -20 -20 -28 0 -8 -9 -19 -20 -25 -11 -6 -34 -39 -51 -73 -17 -34 -39
-71 -48 -81 -12 -14 -13 -20 -3 -23 18 -7 15 -19 -13 -49 -14 -15 -25 -31 -25
-35 0 -11 -106 -167 -133 -196 -27 -30 -51 -30 -44 -2 5 20 5 20 -14 3 -10 -9
-19 -21 -19 -26 0 -11 -79 -111 -131 -164 -21 -23 -39 -49 -39 -58 0 -10 -9
-16 -24 -16 -22 0 -24 -5 -29 -66 -2 -36 -10 -71 -16 -77 -17 -17 -13 -27 9
-27 11 0 20 5 20 11 0 11 25 39 35 39 13 0 71 47 114 94 25 26 57 58 70 70 12
11 34 31 47 43 13 12 24 26 24 31 0 6 16 33 35 61 19 28 35 53 35 56 0 3 12
24 26 48 23 39 23 40 2 16 -43 -49 -58 -69 -58 -78 0 -5 -7 -11 -15 -15 -8 -3
-15 -11 -15 -18 -1 -7 -33 -47 -72 -88 -39 -41 -78 -86 -87 -100 -8 -14 -24
-31 -33 -38 -10 -7 -18 -20 -18 -28 0 -8 -6 -14 -14 -14 -8 0 -16 -7 -20 -15
-3 -8 -12 -15 -21 -15 -22 0 -19 38 5 52 11 7 20 18 20 25 0 7 4 13 10 13 5 0
21 17 34 38 13 20 56 71 95 112 39 41 73 83 77 93 3 9 10 17 15 17 5 0 9 5 9
10 0 6 11 22 24 36 13 14 38 51 57 81 19 30 51 74 72 96 20 22 37 46 37 54 0
15 60 145 70 153 4 3 10 15 14 27 10 32 64 83 87 83 29 0 23 -23 -16 -56 -22
-18 -37 -41 -41 -61 -3 -18 -10 -33 -15 -33 -10 0 -63 -103 -72 -141 -4 -14
-21 -42 -39 -62 -18 -20 -42 -51 -52 -69 -19 -32 -19 -32 -1 -18 29 23 55 49
55 56 0 10 28 34 39 34 6 0 11 -11 11 -25 0 -14 -4 -25 -10 -25 -5 0 -10 -4
-10 -8 0 -5 -21 -30 -46 -56 -25 -26 -54 -67 -64 -89 -9 -23 -32 -59 -49 -81
-17 -21 -31 -47 -31 -57 0 -12 -10 -21 -25 -25 -14 -3 -25 -11 -25 -18 0 -6
-20 -30 -44 -53 -25 -23 -50 -51 -58 -60 -7 -10 -37 -36 -65 -57 -29 -21 -53
-40 -53 -42 0 -2 51 -3 113 -3 61 1 104 3 95 6 -22 5 -24 31 -3 39 18 7 72 91
80 126 4 15 13 32 21 39 8 6 14 20 14 30 0 12 7 19 20 19 11 0 20 3 20 8 0 4
14 22 30 41 17 18 30 38 30 44 0 6 6 18 13 26 8 9 20 37 27 64 16 58 64 137
85 137 8 0 15 -4 15 -10 0 -12 -23 -63 -31 -70 -14 -11 -39 -71 -39 -93 0 -13
-9 -36 -20 -50 -11 -14 -20 -29 -20 -34 0 -4 -13 -22 -29 -39 -16 -16 -31 -39
-35 -50 -3 -11 -19 -30 -36 -42 -18 -14 -33 -37 -40 -62 -6 -22 -15 -40 -20
-40 -6 0 -10 -6 -10 -14 0 -7 -7 -19 -15 -26 -8 -7 -15 -21 -15 -31 0 -16 8
-19 50 -19 43 0 50 3 50 20 0 10 10 25 23 31 12 7 26 18 30 25 4 8 15 14 22
14 9 0 15 10 15 24 0 14 7 31 15 40 8 8 15 19 15 25 0 20 25 56 75 111 17 19
9 61 -10 54 -7 -3 -16 -16 -19 -30 -4 -13 -10 -24 -15 -24 -5 0 -15 -16 -21
-35 -11 -33 -40 -49 -40 -22 0 30 22 86 35 91 8 3 15 12 15 19 0 7 11 19 24
27 25 13 106 161 106 193 0 20 26 23 33 5 3 -7 5 34 6 92 0 58 -3 98 -7 90
-16 -34 -45 -70 -58 -70 -16 0 -19 -16 -4 -25 15 -10 12 -45 -5 -45 -20 0 -35
32 -35 74 0 28 4 36 18 36 9 0 28 16 41 35 13 19 30 35 37 35 11 0 14 39 14
210 0 122 -4 210 -9 210 -5 0 -22 -10 -38 -23 -15 -13 -36 -26 -45 -30 -14 -5
-18 -18 -18 -55 0 -32 -5 -54 -15 -62 -8 -7 -15 -16 -15 -21 0 -10 -57 -97
-83 -126 -23 -26 -57 -31 -57 -9 0 8 4 16 9 18 12 4 101 135 101 148 0 6 5 10
11 10 6 0 8 9 4 20 -4 12 -1 28 6 36 10 13 8 13 -15 4 -55 -21 -131 -106 -181
-205 -46 -89 -75 -119 -75 -77 0 27 89 193 124 231 36 39 128 101 151 101 8 0
15 5 15 10 0 6 6 10 14 10 8 0 24 11 37 25 14 14 35 25 52 25 22 0 27 4 27 25
0 32 -11 31 -87 -5z m-233 -509 c0 -17 -4 -32 -9 -35 -4 -3 -11 -19 -14 -36
-4 -19 -13 -30 -23 -30 -13 0 -15 7 -9 38 3 20 11 41 16 47 5 5 9 17 9 27 0
10 7 18 15 18 10 0 15 -10 15 -29z m-140 -31 c0 -11 -7 -20 -15 -20 -8 0 -15
9 -15 20 0 11 7 20 15 20 8 0 15 -9 15 -20z m-600 -422 c0 -28 19 -42 52 -40
44 3 62 -10 53 -37 -8 -25 -35 -28 -36 -3 -1 16 -2 16 -6 0 -2 -10 -8 -18 -13
-18 -5 0 -10 -10 -12 -22 -2 -13 -11 -24 -21 -26 -16 -3 -17 1 -12 31 6 30 3
39 -24 65 -33 31 -39 47 -18 55 22 10 37 7 37 -5z m830 -158 c0 -11 -7 -20
-15 -20 -8 0 -15 9 -15 20 0 11 7 20 15 20 8 0 15 -9 15 -20z m-760 -91 c0
-16 -31 -38 -52 -39 -21 0 -24 20 -6 38 15 15 58 16 58 1z"/>
<path d="M3706 1258 c-9 -36 -7 -88 4 -88 13 0 13 -27 1 -32 -10 -3 -19 -204
-9 -213 2 -3 10 55 17 127 7 73 15 154 18 181 4 38 3 47 -10 47 -8 0 -17 -10
-21 -22z"/>
<path d="M1460 1257 c0 -15 29 -57 30 -42 0 6 -3 20 -6 33 -7 24 -24 31 -24 9z"/>
<path d="M2890 1252 c0 -21 25 -32 72 -32 14 0 29 -6 31 -12 3 -8 6 -6 6 4 1
13 -10 19 -40 24 -22 4 -47 13 -55 21 -12 13 -14 12 -14 -5z"/>
<path d="M760 1250 c0 -6 7 -10 15 -10 8 0 15 2 15 4 0 2 -7 6 -15 10 -8 3
-15 1 -15 -4z"/>
<path d="M3860 1241 c-16 -31 -12 -41 18 -41 15 0 39 -6 54 -14 15 -8 53 -20
85 -26 31 -7 64 -16 72 -20 9 -5 50 -18 91 -30 41 -12 90 -28 108 -36 19 -8
33 -10 33 -4 9 73 -2 86 -64 75 -27 -5 -39 -2 -53 12 -30 31 -136 65 -209 68
-44 1 -71 7 -83 18 -24 22 -39 21 -52 -2z"/>
<path d="M1262 1213 c30 -30 46 -26 28 6 -6 12 -21 21 -33 21 -21 0 -21 -1 5
-27z"/>
<path d="M1341 1223 c-7 -8 -11 -16 -8 -19 2 -2 10 2 17 11 17 20 9 27 -9 8z"/>
<path d="M1795 1179 c-7 -62 -1 -85 15 -59 12 19 13 120 1 120 -5 0 -12 -27
-16 -61z"/>
<path d="M1852 1179 c-4 -80 -23 -159 -39 -159 -11 0 -13 -5 -7 -17 4 -10 9
-58 11 -107 1 -49 6 -92 11 -95 5 -3 11 -13 14 -21 10 -29 19 137 16 290 -2
85 -5 134 -6 109z"/>
<path d="M1600 1206 c0 -2 7 -7 16 -10 8 -3 12 -2 9 4 -6 10 -25 14 -25 6z"/>
<path d="M3651 1173 c0 -31 2 -34 9 -18 12 28 12 55 0 55 -5 0 -10 -17 -9 -37z"/>
<path d="M1430 1196 c0 -4 7 -14 15 -22 8 -9 15 -11 15 -6 0 5 -7 15 -15 22
-8 7 -15 9 -15 6z"/>
<path d="M682 1157 c-34 -35 -39 -47 -19 -47 13 1 72 80 59 80 -5 0 -22 -15
-40 -33z"/>
<path d="M1034 1144 c3 -9 6 -30 6 -47 1 -27 2 -29 11 -14 12 20 3 77 -13 77
-6 0 -7 -7 -4 -16z"/>
<path d="M1330 1150 c0 -5 4 -10 9 -10 6 0 13 5 16 10 3 6 -1 10 -9 10 -9 0
-16 -4 -16 -10z"/>
<path d="M1597 1145 c-4 -8 -2 -17 3 -20 18 -11 10 -35 -10 -35 -11 0 -20 -5
-20 -11 0 -6 10 -9 23 -7 18 2 23 10 25 46 3 41 -10 57 -21 27z"/>
<path d="M3867 1153 c-12 -11 -8 -23 8 -23 8 0 15 4 15 9 0 5 8 12 18 14 11 3
8 5 -9 6 -14 0 -29 -2 -32 -6z"/>
<path d="M1497 1135 c-4 -8 -2 -17 3 -20 6 -4 10 -4 10 -1 0 2 3 11 6 20 3 9
2 16 -4 16 -5 0 -12 -7 -15 -15z"/>
<path d="M4365 1140 c-4 -6 6 -10 22 -10 22 0 25 2 13 10 -19 12 -27 12 -35 0z"/>
<path d="M990 1133 c0 -6 -3 -18 -6 -27 -4 -11 -1 -16 10 -16 9 0 16 6 16 13
0 16 -20 46 -20 30z"/>
<path d="M1160 1106 c0 -9 5 -16 10 -16 6 0 10 4 10 9 0 6 -4 13 -10 16 -5 3
-10 -1 -10 -9z"/>
<path d="M927 1081 c-4 -17 -3 -21 5 -13 5 5 8 16 6 23 -3 8 -7 3 -11 -10z"/>
<path d="M1090 1090 c0 -5 6 -10 14 -10 8 0 18 5 21 10 3 6 -3 10 -14 10 -12
0 -21 -4 -21 -10z"/>
<path d="M1371 1089 c-1 -19 26 -45 36 -35 3 3 1 6 -6 6 -6 0 -16 10 -21 23
-6 15 -9 17 -9 6z"/>
<path d="M1512 1050 c-5 -14 -8 -28 -6 -31 2 -3 8 -19 14 -34 l10 -27 21 26
c11 14 27 26 36 26 11 0 8 6 -10 20 -14 11 -30 20 -35 20 -6 0 -12 6 -15 13
-3 7 -9 2 -15 -13z"/>
<path d="M1780 1060 c0 -5 5 -10 10 -10 6 0 10 5 10 10 0 6 -4 10 -10 10 -5 0
-10 -4 -10 -10z"/>
<path d="M990 1051 c-28 -5 -31 -8 -17 -14 17 -6 57 7 57 18 0 3 -1 4 -2 4 -2
-1 -19 -4 -38 -8z"/>
<path d="M1080 1050 c0 -5 5 -10 11 -10 5 0 7 5 4 10 -3 6 -8 10 -11 10 -2 0
-4 -4 -4 -10z"/>
<path d="M1330 1040 c-12 -8 -10 -10 8 -10 13 0 20 4 17 10 -7 12 -6 12 -25 0z"/>
<path d="M1266 1025 c-9 -26 -7 -32 5 -12 6 10 9 21 6 23 -2 3 -7 -2 -11 -11z"/>
<path d="M1420 1021 c0 -24 9 -31 32 -22 14 5 13 9 -8 24 -23 17 -24 17 -24
-2z"/>
<path d="M1042 1015 c-12 -9 -22 -25 -22 -36 0 -14 -7 -19 -25 -19 -26 0 -35
24 -12 33 6 3 3 6 -8 6 -15 0 -28 -17 -53 -67 -48 -99 -62 -122 -73 -122 -5 0
-9 -6 -9 -13 0 -7 -22 -36 -49 -63 -40 -41 -48 -55 -44 -77 4 -20 1 -27 -11
-27 -19 0 -31 40 -22 75 5 18 2 25 -8 25 -8 0 -16 -7 -20 -15 -3 -8 -1 -15 4
-15 6 0 10 -9 10 -20 0 -11 -4 -20 -10 -20 -6 0 -10 -43 -10 -109 0 -99 -2
-110 -21 -122 -31 -21 -42 -132 -23 -223 11 -51 11 -72 3 -82 -9 -11 -7 -15 5
-20 17 -7 22 -30 7 -36 -5 -1 -11 -16 -13 -33 -3 -17 -3 -24 -1 -17 3 9 13 12
29 8 19 -5 24 -3 24 14 0 13 10 24 25 30 14 5 25 14 25 20 0 5 7 10 15 10 8 0
15 5 15 10 0 6 -4 10 -10 10 -5 0 -10 7 -10 15 0 8 5 15 10 15 6 0 10 7 10 15
0 8 7 15 15 15 8 0 15 -9 15 -20 0 -11 5 -20 10 -20 6 0 10 9 10 19 0 27 32
81 49 81 10 0 12 -8 7 -32 -4 -18 -11 -35 -16 -36 -6 -2 -10 -24 -10 -48 0
-29 -4 -44 -13 -44 -9 0 -11 -12 -9 -40 4 -39 5 -40 44 -40 38 0 40 1 34 25
-10 39 3 75 26 75 15 0 18 4 13 18 -3 9 -11 55 -16 102 -6 47 -14 98 -17 115
l-7 29 -25 -27 c-14 -14 -40 -29 -58 -33 -30 -6 -32 -5 -32 24 0 40 9 62 26
62 35 0 139 125 159 190 6 22 5 23 -6 9 -8 -9 -31 -28 -51 -43 -29 -22 -45
-27 -80 -24 -39 3 -43 6 -46 31 -2 15 0 27 5 27 4 0 32 14 61 30 47 28 51 32
37 46 -25 25 -18 42 44 100 59 55 81 101 81 168 0 45 21 78 47 73 13 -2 26 0
29 4 3 5 -1 9 -10 9 -8 0 -16 5 -18 10 -2 6 -12 4 -26 -5z m-288 -488 c0 -74
-4 -98 -21 -125 -24 -40 -38 -169 -23 -223 12 -43 -1 -89 -25 -89 -12 0 -13 9
-8 45 5 39 3 45 -12 45 -17 0 -17 11 0 53 5 12 2 17 -9 17 -9 0 -16 8 -16 20
0 13 7 20 19 20 16 0 19 9 23 60 2 33 11 67 19 77 17 20 24 133 8 133 -14 0
-11 18 8 40 32 36 38 24 37 -73z"/>
<path d="M602 995 c0 -16 2 -22 5 -12 2 9 2 23 0 30 -3 6 -5 -1 -5 -18z"/>
<path d="M687 1005 c-8 -20 -4 -29 11 -24 5 2 6 13 2 23 -6 19 -7 19 -13 1z"/>
<path d="M1216 1012 c-2 -4 -1 -14 5 -22 7 -12 9 -10 9 8 0 23 -5 28 -14 14z"/>
<path d="M1756 1007 c3 -10 9 -15 12 -12 3 3 0 11 -7 18 -10 9 -11 8 -5 -6z"/>
<path d="M639 975 c-6 -40 -4 -53 7 -43 3 3 4 23 2 44 l-3 39 -6 -40z"/>
<path d="M1368 988 c7 -7 12 -20 12 -30 0 -11 7 -18 20 -18 18 0 18 1 2 30 -9
16 -24 30 -31 30 -12 0 -12 -3 -3 -12z"/>
<path d="M1138 967 c6 -7 17 -42 23 -78 12 -63 14 -65 41 -61 23 4 28 1 28
-17 0 -25 15 -28 24 -5 8 22 8 24 -8 24 -20 0 -76 73 -87 115 -6 19 -15 35
-21 35 -7 0 -7 -4 0 -13z"/>
<path d="M1478 963 c-4 -14 0 -24 8 -27 15 -6 16 -1 5 28 -7 19 -8 19 -13 -1z"/>
<path d="M3638 963 c-25 -6 -23 -33 2 -33 13 0 20 7 20 20 0 11 -1 19 -2 19
-2 -1 -11 -3 -20 -6z"/>
<path d="M1091 915 c0 -22 3 -33 6 -25 3 8 11 18 17 22 7 5 5 13 -6 25 -17 16
-18 15 -17 -22z"/>
<path d="M1570 922 c0 -18 5 -32 10 -32 6 0 8 11 4 28 -10 39 -14 40 -14 4z"/>
<path d="M1770 894 c0 -34 4 -53 10 -49 6 3 10 28 10 56 0 27 -4 49 -10 49 -5
0 -10 -25 -10 -56z"/>
<path d="M0 660 c0 -154 2 -280 4 -280 2 0 17 7 32 15 36 18 64 19 64 2 0 -13
-65 -47 -88 -47 -7 0 -12 -12 -12 -27 0 -20 7 -31 25 -40 19 -8 25 -8 25 1 0
7 15 17 34 24 38 14 37 1 11 247 -8 72 -17 168 -21 215 -5 67 -12 94 -33 127
-14 23 -29 42 -33 43 -5 0 -8 -126 -8 -280z"/>
<path d="M1047 890 c-4 -30 -10 -67 -13 -82 -4 -17 -2 -28 4 -28 6 0 13 29 17
64 9 79 1 121 -8 46z"/>
<path d="M1627 885 c-9 -25 -12 -45 -6 -45 5 0 9 -7 9 -15 0 -8 4 -15 8 -15 4
0 8 27 9 60 1 33 0 60 -2 60 -2 0 -10 -20 -18 -45z"/>
<path d="M1680 880 c0 -35 5 -48 21 -59 21 -13 22 -12 16 29 -3 24 -13 50 -21
59 -15 14 -16 11 -16 -29z"/>
<path d="M1368 875 c2 -14 6 -25 8 -25 2 0 4 11 4 25 0 14 -4 25 -9 25 -4 0
-6 -11 -3 -25z"/>
<path d="M1410 880 c0 -5 5 -10 11 -10 5 0 7 5 4 10 -3 6 -8 10 -11 10 -2 0
-4 -4 -4 -10z"/>
<path d="M1480 870 c0 -5 6 -10 14 -10 21 0 30 -62 11 -76 -11 -9 -13 -14 -5
-19 15 -9 20 -3 30 39 5 25 4 41 -7 55 -15 22 -43 29 -43 11z"/>
<path d="M1127 840 c3 -11 7 -20 9 -20 2 0 4 9 4 20 0 11 -4 20 -9 20 -5 0 -7
-9 -4 -20z"/>
<path d="M1575 848 c-7 -19 -24 -102 -22 -104 1 -1 12 -4 23 -8 21 -6 21 -5
12 45 -5 28 -7 57 -4 65 3 8 3 14 0 14 -2 0 -7 -6 -9 -12z"/>
<path d="M1947 854 c-4 -4 -7 -14 -7 -23 0 -11 3 -12 11 -4 6 6 10 16 7 23 -2
6 -7 8 -11 4z"/>
<path d="M1420 831 c0 -14 31 -84 35 -79 10 10 -9 88 -21 88 -8 0 -14 -4 -14
-9z"/>
<path d="M1080 775 c0 -25 5 -45 10 -45 6 0 10 -11 10 -25 0 -14 -4 -25 -9
-25 -5 0 -12 -18 -16 -40 -7 -39 -28 -54 -38 -27 -3 6 -10 -1 -17 -18 -12 -30
-17 -171 -6 -182 3 -4 6 4 6 17 0 43 32 140 46 140 8 0 14 -4 14 -10 0 -5 12
2 27 16 16 15 35 23 45 20 16 -4 18 0 12 32 -8 47 -13 51 -28 29 -29 -39 -50
-3 -23 38 8 11 19 34 24 51 10 28 9 30 -11 30 -14 -1 -22 6 -24 22 -6 40 -22
23 -22 -23z"/>
<path d="M1290 800 c0 -13 5 -18 15 -14 12 5 13 10 4 20 -15 19 -19 18 -19 -6z"/>
<path d="M1751 794 c0 -18 -9 -42 -20 -55 -18 -23 -18 -23 13 -39 17 -9 60
-22 95 -29 34 -7 69 -15 77 -18 8 -3 14 -1 14 5 0 11 -84 32 -129 32 -40 0
-65 22 -57 48 4 13 16 22 27 22 10 0 19 7 19 15 0 8 -6 15 -14 15 -8 0 -17 8
-19 18 -3 9 -5 3 -6 -14z"/>
<path d="M623 753 c1 -44 6 -63 15 -63 9 0 11 10 6 35 -4 23 -2 35 5 35 6 0
11 7 11 15 0 8 -6 15 -14 15 -8 0 -17 6 -19 13 -3 6 -5 -16 -4 -50z"/>
<path d="M1660 775 c-10 -13 -9 -15 9 -15 11 0 21 4 21 9 0 18 -18 21 -30 6z"/>
<path d="M1230 746 c0 -8 -5 -16 -12 -18 -7 -3 -6 -7 5 -11 13 -5 17 -1 17 18
0 14 -2 25 -5 25 -3 0 -5 -6 -5 -14z"/>
<path d="M1346 745 c4 -8 8 -15 10 -15 2 0 4 7 4 15 0 8 -4 15 -10 15 -5 0 -7
-7 -4 -15z"/>
<path d="M1400 745 c0 -8 4 -15 10 -15 5 0 7 7 4 15 -4 8 -8 15 -10 15 -2 0
-4 -7 -4 -15z"/>
<path d="M1805 730 c-3 -5 3 -10 14 -10 12 0 21 5 21 10 0 6 -6 10 -14 10 -8
0 -18 -4 -21 -10z"/>
<path d="M1870 726 c0 -10 9 -16 25 -16 14 0 25 5 25 10 0 6 -4 10 -9 10 -5 0
-16 3 -25 6 -11 4 -16 1 -16 -10z"/>
<path d="M1027 710 c-3 -13 0 -20 9 -20 8 0 14 9 14 20 0 11 -4 20 -9 20 -5 0
-11 -9 -14 -20z"/>
<path d="M1311 683 c0 -28 -5 -55 -11 -58 -13 -8 -13 -35 0 -35 17 0 46 70 33
78 -6 4 -13 21 -16 37 -2 20 -5 12 -6 -22z"/>
<path d="M1526 715 c-18 -19 -20 -31 -6 -40 6 -3 10 3 10 14 0 10 6 21 13 24
6 2 9 7 6 11 -4 4 -14 0 -23 -9z"/>
<path d="M1424 680 c-2 -38 -2 -38 27 -28 27 9 40 28 19 28 -5 0 -17 9 -27 19
-18 19 -18 18 -19 -19z"/>
<path d="M1376 669 c-8 -42 0 -50 9 -9 4 17 5 34 2 36 -2 3 -7 -10 -11 -27z"/>
<path d="M971 677 c-7 -10 -23 -17 -34 -17 -11 0 -17 -3 -14 -7 4 -3 20 -6 37
-5 16 0 30 -4 30 -9 0 -6 5 -7 11 -3 7 4 8 9 1 13 -5 3 -11 15 -13 25 -4 18
-5 18 -18 3z"/>
<path d="M1252 671 c-9 -5 -11 -17 -6 -35 l6 -27 14 27 c22 41 16 55 -14 35z"/>
<path d="M611 618 c-1 -60 18 -148 31 -148 4 0 8 41 8 90 0 71 -3 90 -14 90
-8 0 -17 6 -19 13 -3 6 -6 -14 -6 -45z"/>
<path d="M1718 641 c-3 -19 0 -32 8 -35 10 -4 12 3 7 27 -8 42 -10 43 -15 8z"/>
<path d="M1769 614 c8 -47 31 -58 31 -15 0 17 1 34 3 39 1 4 -7 8 -19 10 -19
3 -20 -1 -15 -34z"/>
<path d="M1211 600 c15 -45 24 -54 15 -15 -4 17 -12 34 -17 40 -5 5 -4 -6 2
-25z"/>
<path d="M1470 620 c0 -5 5 -10 10 -10 6 0 10 5 10 10 0 6 -4 10 -10 10 -5 0
-10 -4 -10 -10z"/>
<path d="M1546 615 c-3 -9 0 -15 9 -15 8 0 15 7 15 15 0 8 -4 15 -9 15 -5 0
-11 -7 -15 -15z"/>
<path d="M1360 605 c0 -8 4 -15 10 -15 5 0 7 7 4 15 -4 8 -8 15 -10 15 -2 0
-4 -7 -4 -15z"/>
<path d="M1690 573 c0 -16 48 -45 55 -33 3 6 1 10 -6 10 -7 0 -21 7 -31 17
-10 9 -18 11 -18 6z"/>
<path d="M850 560 c-9 -6 -10 -10 -3 -10 6 0 15 5 18 10 8 12 4 12 -15 0z"/>
<path d="M1620 561 c0 -6 5 -13 11 -17 6 -3 8 -18 5 -33 l-6 -26 16 28 c12 22
13 31 3 43 -13 16 -29 19 -29 5z"/>
<path d="M1126 538 c-9 -13 -16 -43 -16 -70 0 -36 -4 -48 -15 -48 -10 0 -15
-10 -15 -29 0 -17 -5 -33 -10 -36 -6 -4 -8 -10 -5 -15 6 -10 65 20 65 33 0 4
6 7 14 7 16 0 29 -52 19 -77 -6 -17 -6 -17 10 -1 9 9 17 28 17 43 0 17 7 29
23 35 18 7 19 9 4 9 -11 1 -32 15 -48 33 -52 55 -61 85 -33 113 9 9 14 18 11
21 -3 3 -12 -5 -21 -18z"/>
<path d="M1271 534 c0 -11 3 -14 6 -6 3 7 2 16 -1 19 -3 4 -6 -2 -5 -13z"/>
<path d="M1372 538 c-16 -16 -15 -28 3 -28 8 0 15 9 15 20 0 23 -2 24 -18 8z"/>
<path d="M1487 517 c11 -23 18 -28 21 -17 3 8 9 17 13 20 5 3 -5 11 -21 17
l-30 11 17 -31z"/>
<path d="M1420 511 c0 -10 9 -21 19 -24 17 -4 18 -2 9 19 -13 29 -28 31 -28 5z"/>
<path d="M5086 468 c-16 -35 -35 -71 -43 -80 -13 -14 -12 -18 6 -28 29 -15 26
-40 -9 -80 -16 -19 -29 -39 -30 -45 0 -5 -12 -21 -25 -34 -14 -13 -25 -31 -25
-41 0 -10 -7 -23 -15 -30 -8 -7 -15 -22 -15 -34 0 -15 -16 -34 -45 -56 -25
-19 -45 -35 -45 -37 0 -2 38 -3 85 -3 77 0 85 2 85 19 0 11 8 22 18 25 10 3
26 19 35 36 10 17 27 30 38 30 16 0 19 7 18 53 0 28 -3 46 -6 40 -5 -15 -43
-18 -43 -4 0 23 14 41 31 41 18 0 19 9 19 145 0 80 -1 145 -3 145 -1 0 -15
-28 -31 -62z"/>
<path d="M1672 483 c-11 -36 -11 -36 9 -15 20 23 24 38 11 46 -5 3 -14 -11
-20 -31z"/>
<path d="M1160 494 c0 -3 13 -18 29 -34 21 -19 31 -23 35 -14 3 7 18 14 35 16
26 3 28 5 16 21 -11 15 -17 16 -39 6 -20 -9 -32 -9 -51 -1 -14 6 -25 9 -25 6z"/>
<path d="M1330 476 c0 -8 4 -17 9 -20 5 -4 7 3 4 14 -6 23 -13 26 -13 6z"/>
<path d="M1406 472 c-3 -5 4 -18 16 -28 21 -19 21 -19 8 6 -17 33 -17 33 -24
22z"/>
<path d="M1533 460 c6 -8 13 -17 14 -19 2 -2 11 3 20 11 10 9 29 18 43 21 14
2 0 4 -32 3 -48 -1 -54 -3 -45 -16z"/>
<path d="M1477 436 c3 -16 1 -26 -7 -26 -6 0 2 -12 19 -26 26 -21 33 -23 44
-12 11 11 7 19 -24 51 -34 36 -36 37 -32 13z"/>
<path d="M1635 429 c-4 -6 -5 -12 -2 -15 2 -3 7 2 10 11 7 17 1 20 -8 4z"/>
<path d="M4310 411 c0 -16 -3 -38 -6 -48 -5 -16 -4 -16 10 1 18 22 22 76 6 76
-5 0 -10 -13 -10 -29z"/>
<path d="M1581 410 c-1 -23 15 -45 23 -31 4 6 3 11 -3 11 -5 0 -12 8 -14 18
-3 12 -5 13 -6 2z"/>
<path d="M955 392 c-6 -9 -8 -44 -5 -77 4 -50 6 -55 13 -32 4 15 5 38 1 52 -4
15 -2 25 5 25 13 0 15 36 3 44 -4 2 -12 -3 -17 -12z"/>
<path d="M1390 404 c0 -3 11 -15 25 -26 15 -12 25 -30 26 -46 0 -16 3 -21 6
-12 3 8 10 18 15 21 4 3 -10 20 -32 38 -22 17 -40 29 -40 25z"/>
<path d="M1243 356 l-22 -22 23 -64 c27 -76 95 -214 102 -207 3 2 -7 39 -21
82 -15 42 -29 100 -32 127 l-6 51 31 -5 c18 -2 32 -1 32 4 0 8 -20 11 -57 8
-15 -1 -23 4 -23 14 0 9 5 16 11 16 5 0 7 5 4 10 -9 14 -17 11 -42 -14z"/>
<path d="M1640 371 c0 -5 5 -13 10 -16 6 -3 10 -2 10 4 0 5 -4 13 -10 16 -5 3
-10 2 -10 -4z"/>
<path d="M1545 340 c3 -5 11 -10 16 -10 6 0 7 5 4 10 -3 6 -11 10 -16 10 -6 0
-7 -4 -4 -10z"/>
<path d="M1385 330 c3 -5 8 -10 11 -10 2 0 4 5 4 10 0 6 -5 10 -11 10 -5 0 -7
-4 -4 -10z"/>
<path d="M1004 261 c8 -80 27 -143 44 -149 7 -2 12 7 12 22 0 14 -4 26 -10 26
-11 0 -14 78 -4 104 3 9 12 16 20 16 25 0 15 15 -18 30 -18 7 -37 16 -42 18
-5 3 -6 -26 -2 -67z"/>
<path d="M1485 311 c-6 -19 13 -61 27 -61 14 0 8 57 -6 69 -11 10 -16 8 -21
-8z"/>
<path d="M1110 305 c0 -8 5 -15 10 -15 6 0 10 7 10 15 0 8 -4 15 -10 15 -5 0
-10 -7 -10 -15z"/>
<path d="M98 272 c-10 -2 -18 -8 -18 -13 0 -5 -7 -9 -15 -9 -22 0 -19 -11 15
-50 31 -37 39 -70 17 -70 -15 0 -77 72 -77 89 0 6 -4 11 -10 11 -6 0 -10 -45
-10 -115 l0 -115 70 0 69 0 3 58 c2 45 -17 214 -25 218 -1 0 -10 -1 -19 -4z
m12 -47 c0 -8 -7 -15 -15 -15 -8 0 -15 7 -15 15 0 8 7 15 15 15 8 0 15 -7 15
-15z"/>
<path d="M1190 263 c0 -4 5 -15 10 -23 8 -13 10 -13 10 2 0 9 -4 20 -10 23 -5
3 -10 3 -10 -2z"/>
<path d="M1331 250 c0 -14 4 -32 9 -40 9 -13 10 -13 9 0 -1 8 -5 26 -9 40 l-8
25 -1 -25z"/>
<path d="M1630 250 c-13 -8 -13 -12 3 -27 17 -17 18 -17 11 1 -4 11 -2 21 7
27 8 5 10 9 4 9 -5 0 -17 -5 -25 -10z"/>
<path d="M960 210 c0 -23 26 -90 34 -90 3 0 1 12 -4 26 -6 14 -10 39 -10 55 0
16 -4 29 -10 29 -5 0 -10 -9 -10 -20z"/>
<path d="M1162 230 c-2 -3 -13 -56 -25 -117 l-23 -113 22 0 c20 0 23 6 29 73
6 60 3 174 -3 157z"/>
<path d="M1570 220 c0 -5 5 -10 11 -10 5 0 7 5 4 10 -3 6 -8 10 -11 10 -2 0
-4 -4 -4 -10z"/>
<path d="M1387 202 c3 -12 9 -25 14 -28 14 -8 11 10 -6 32 -13 18 -14 18 -8
-4z"/>
<path d="M1490 211 c0 -5 5 -13 10 -16 6 -3 10 -2 10 4 0 5 -4 13 -10 16 -5 3
-10 2 -10 -4z"/>
<path d="M1440 201 c0 -6 4 -13 10 -16 6 -3 7 1 4 9 -7 18 -14 21 -14 7z"/>
<path d="M1089 120 c-8 -44 -11 -80 -7 -80 4 0 10 17 13 38 4 20 11 53 16 72
11 43 11 50 1 50 -4 0 -15 -36 -23 -80z"/>
<path d="M1200 193 c0 -5 12 -16 25 -26 27 -19 32 -12 11 16 -13 17 -36 24
-36 10z"/>
<path d="M1560 173 c0 -4 7 -17 15 -27 13 -17 18 -18 40 -6 25 13 26 33 0 24
-7 -3 -23 -1 -34 6 -12 6 -21 7 -21 3z"/>
<path d="M1416 143 c4 -10 10 -46 12 -80 3 -58 5 -63 27 -63 24 0 24 0 7 30
-15 26 -15 32 -3 39 12 8 10 16 -13 50 -30 43 -44 54 -30 24z"/>
<path d="M1366 137 c3 -10 9 -15 12 -12 3 3 0 11 -7 18 -10 9 -11 8 -5 -6z"/>
<path d="M219 122 c-41 -3 -49 -17 -49 -84 l0 -38 60 0 c56 0 60 2 60 23 0 29
-19 95 -28 99 -4 2 -23 2 -43 0z"/>
<path d="M1270 94 c0 -13 18 -39 24 -34 2 3 -2 14 -10 24 -8 11 -14 16 -14 10z"/>
<path d="M1550 77 c0 -14 5 -29 10 -32 6 -3 10 -15 10 -26 0 -10 5 -19 10 -19
13 0 12 7 -3 52 -17 49 -27 58 -27 25z"/>
<path d="M1600 93 c1 -21 19 -34 41 -30 l24 4 -22 8 c-13 4 -23 11 -23 16 0 5
-4 9 -10 9 -5 0 -10 -3 -10 -7z"/>
<path d="M1381 63 c0 -16 4 -37 9 -48 6 -15 9 -8 9 28 1 26 -3 47 -9 47 -5 0
-10 -12 -9 -27z"/>
<path d="M769 70 c-1 -8 -1 -21 0 -28 1 -8 -3 -20 -10 -28 -9 -11 -7 -14 15
-14 21 0 26 5 26 23 0 28 -28 71 -31 47z"/>
<path d="M1195 46 c-4 -20 -6 -39 -3 -41 8 -9 25 53 18 66 -6 8 -11 0 -15 -25z"/>
<path d="M5083 40 c-30 -37 -29 -40 7 -40 28 0 30 3 30 35 0 42 -8 43 -37 5z"/>
<path d="M992 20 c0 -14 2 -19 5 -12 2 6 2 18 0 25 -3 6 -5 1 -5 -13z"/>
<path d="M1310 15 c0 -8 4 -15 10 -15 5 0 7 7 4 15 -4 8 -8 15 -10 15 -2 0 -4
-7 -4 -15z"/>
<path d="M1520 15 c0 -8 4 -15 10 -15 5 0 7 7 4 15 -4 8 -8 15 -10 15 -2 0 -4
-7 -4 -15z"/>
<path d="M1626 15 c4 -8 12 -15 20 -15 19 0 18 16 -2 24 -22 9 -24 8 -18 -9z"/>
</g>
</svg>
